<?xml version="1.0" encoding="utf-8"?>
<!-- Generator: Adobe Illustrator 21.0.0, SVG Export Plug-In . SVG Version: 6.00 Build 0)  -->
<svg version="1.1" id="Calque_1" xmlns="http://www.w3.org/2000/svg" xmlns:xlink="http://www.w3.org/1999/xlink" x="0px" y="0px"
	 viewBox="0 0 38.3 774" style="enable-background:new 0 0 38.3 774;" xml:space="preserve">
<style type="text/css">
	.st0{fill:#D3D3D3;}
	.st1{fill:none;stroke:#D3D3D3;stroke-width:3;stroke-miterlimit:10;}
	.st2{fill:#EEEBEB;}
</style>
<g>
	<path class="st0" d="M25.4,502.3c0.4-0.4,0.9-0.7,1.4-0.7s1,0.1,1.4,0.3c0.4,0.2,0.7,0.6,0.9,1.1c0.2,0.5,0.2,1,0,1.6
		c-0.2,0.4-0.4,0.8-0.6,1.2c-0.3,0.4-0.5,0.7-0.8,1.1c-0.8,1.2-1.6,2.4-2.5,3.5s-1.8,2.2-2.7,3.3c0.2,0.2,0.5,0.6,0.9,1.1
		s0.8,1,1.2,1.6c0.5,0.6,0.9,1.2,1.4,1.8s0.9,1.3,1.3,1.9c0.4,0.6,0.8,1.2,1.1,1.7c0.3,0.5,0.5,1,0.6,1.3c0.2,0.6,0.2,1.1,0,1.6
		s-0.5,0.9-0.8,1.1c-0.4,0.3-0.8,0.4-1.3,0.4s-1-0.2-1.4-0.6c-0.4-0.3-0.7-0.8-1-1.4c-0.3-0.6-0.6-1.1-0.9-1.6
		c-0.6-0.9-1.2-1.8-1.9-2.7c-0.7-0.9-1.3-1.7-2.1-2.6c-0.7,0.9-1.4,1.7-2.1,2.5s-1.4,1.6-2.1,2.4c-0.2,0.2-0.4,0.5-0.7,0.9
		s-0.6,0.7-0.9,1.1c-0.3,0.4-0.6,0.7-1,1c-0.3,0.3-0.6,0.5-0.9,0.6c-0.5,0.2-0.9,0.2-1.4,0.1c-0.4-0.1-0.8-0.3-1.1-0.6
		s-0.5-0.7-0.6-1.1c-0.1-0.4-0.1-0.9,0.1-1.4c0.2-0.5,0.5-0.9,0.9-1.3c0.4-0.4,0.7-0.7,1.1-1.1c1-1.1,2-2.3,2.9-3.4
		c1-1.1,2-2.3,2.9-3.5c-0.9-1.1-1.7-2.2-2.6-3.2c-0.9-1.1-1.8-2.1-2.8-3.1c-0.1-0.1-0.3-0.2-0.5-0.4c-0.2-0.2-0.4-0.3-0.6-0.5
		c-0.2-0.2-0.4-0.4-0.6-0.6c-0.2-0.2-0.4-0.4-0.5-0.6c-0.2-0.5-0.3-0.9-0.3-1.4c0.1-0.5,0.3-0.9,0.6-1.3s0.7-0.6,1.2-0.7
		s1,0,1.5,0.3c0.4,0.3,0.8,0.6,1.1,0.9s0.7,0.7,1,1c1,1,1.9,1.9,2.8,2.9s1.7,2.1,2.6,3.1c0.3-0.4,0.7-0.8,1-1.2
		c0.3-0.4,0.7-0.8,1-1.2c0.7-0.9,1.3-1.8,1.9-2.6C24.2,504.1,24.8,503.2,25.4,502.3z"/>
	<path class="st0" d="M9.9,746.7c1.5,1.5,3,2.9,4.6,4.3c1.5,1.4,3,2.8,4.5,4.3c1-0.9,2-1.8,2.9-2.6c1-0.9,1.9-1.8,2.9-2.7
		c0.2-0.2,0.5-0.5,0.8-0.9c0.3-0.3,0.7-0.7,1.1-1c0.4-0.4,0.8-0.7,1.2-1c0.4-0.3,0.8-0.6,1.3-0.7c0.8-0.3,1.6-0.4,2.4-0.4
		s1.6,0.2,2.2,0.5c0.7,0.3,1.2,0.7,1.5,1.2s0.4,1.1,0.2,1.8c-0.2,0.6-0.6,1.1-1.2,1.7c-0.6,0.5-1.2,1-1.7,1.5
		c-0.8,0.7-1.6,1.5-2.4,2.2s-1.7,1.5-2.5,2.2c-0.5,0.5-0.9,0.8-1.2,1c-0.2,0.2-0.4,0.4-0.6,0.6c-0.2,0.2-0.4,0.4-0.7,0.7
		c-0.3,0.3-0.7,0.6-1.3,1.2c-0.6,0.6-1.3,1.2-1.9,1.7s-1.5,0.8-2.6,1c-0.8,0.1-1.5,0-2.1-0.2c-0.7-0.3-1.2-0.6-1.8-1
		c-0.5-0.4-1-0.9-1.4-1.3c-0.4-0.5-0.8-0.9-1.2-1.2c-1.2-1.1-2.4-2.3-3.5-3.4c-1.2-1.1-2.4-2.2-3.5-3.4c-0.5-0.5-1-1-1.6-1.5
		s-1-1-1.2-1.6c-0.3-0.8-0.3-1.5,0-2.1s0.8-1,1.5-1.3s1.5-0.4,2.4-0.4s1.8,0.3,2.8,0.7L9.9,746.7z"/>
	<line class="st1" x1="19.1" y1="536.6" x2="19.1" y2="741.7"/>
	<ellipse class="st2" cx="19.1" cy="771.1" rx="13.3" ry="2.3"/>
</g>
</svg>
