<?xml version="1.0" encoding="utf-8"?>
<!-- Generator: Adobe Illustrator 21.0.0, SVG Export Plug-In . SVG Version: 6.00 Build 0)  -->
<svg version="1.1" id="Calque_1" xmlns="http://www.w3.org/2000/svg" xmlns:xlink="http://www.w3.org/1999/xlink" x="0px" y="0px"
	 viewBox="0 0 225.3 114" style="enable-background:new 0 0 225.3 114;" xml:space="preserve">
<style type="text/css">
	.st0{fill:#1D1D1D;}
	.st1{fill:#FFFFFF;}
	.st2{fill:#E20613;}
	.st3{fill:none;stroke:#1D1D1B;stroke-width:2;stroke-miterlimit:10;}
	.st4{fill:#1D1D1B;}
</style>
<g>
	<g>
		<g>
			<g>
				<g>
					<g>
						<g>
							<path class="st0" d="M57,3.8c-0.5-0.1-0.3,0.3-0.4,0.3C57.4,4.1,57,3.7,57,3.8z"/>
							<polygon class="st0" points="64.9,3.7 64.8,3.9 66,3.7 							"/>
							<path class="st0" d="M72.1,5.4c-0.5-0.7-2.6-0.6-3.9-1.1l-0.2-0.2l-0.7,0.3C69,4.7,71.1,5,72.1,5.4z"/>
							<path class="st0" d="M75.4,7.8c-0.1-0.3,0.9,0.1-0.8-0.4c0.1,0.1,0.1,0.1,0.1,0.1C74.9,7.6,75.1,7.7,75.4,7.8z"/>
							<path class="st0" d="M74.7,7.6C74,7.3,75.1,7.9,74.7,7.6L74.7,7.6z"/>
							<path class="st0" d="M78,8.8l-1-0.3c0.1,0.2,0.9,0.6,0.6,0.6C78.6,9.5,78.5,9.3,78,8.8z"/>
							<path class="st0" d="M79.1,8.9l-0.5-0.2C78.6,8.8,78.7,8.9,79.1,8.9z"/>
							<path class="st0" d="M77.5,8.4l1.1,0.3c-0.1-0.1,0-0.3-0.5-0.2C78.2,8.5,78,8.5,77.5,8.4z"/>
							<path class="st0" d="M77,8.1c-0.5-0.4-1.1-0.7-0.1-0.5c-0.9-0.3-1.4-0.3-1.3-0.2C75.5,7.5,76.1,7.7,77,8.1z"/>
							<path class="st0" d="M72.7,5c-0.2-0.1-0.5-0.3-0.7-0.4l-0.7,0c0.2,0,0.5,0.1,0.8,0.2C72.4,5,72.7,5.1,72.7,5z"/>
							<path class="st0" d="M83.4,12.1c0.1-0.1-0.1-0.4-0.1-0.6l-0.7-0.3C82.9,11.5,83.5,11.9,83.4,12.1z"/>
							<path class="st0" d="M83.3,11.5l1.1,0.4C83.5,11.3,83.3,11.3,83.3,11.5z"/>
							<polygon class="st0" points="79.5,8.4 77.6,8 79.8,8.6 							"/>
							<polygon class="st0" points="86.9,14.5 86.2,14.3 87.4,14.7 							"/>
							<path class="st0" d="M89.1,16.2c-0.5-0.1,0.2,0.7-0.2,0.5c0.6,0.5,1.2,0.8,1.7,1C90.1,17.3,89.7,16.9,89.1,16.2z"/>
							<path class="st0" d="M91.6,18.2c-0.3-0.2-0.6-0.3-0.9-0.5C90.9,17.9,91.2,18,91.6,18.2z"/>
							<path class="st0" d="M85.9,13c0,0.1,0.1,0.4,0.5,0.8l-0.2-0.5C86.2,13.2,86,13.1,85.9,13z"/>
							<path class="st0" d="M86.3,13.2L86.3,13.2c0.4,0.3,0.6,0.5,0.8,0.6C86.9,13.8,86.7,13.6,86.3,13.2z"/>
							<path class="st0" d="M85.8,12.9C85.9,12.9,85.9,13,85.8,12.9C85.9,12.9,85.9,12.9,85.8,12.9z"/>
							<path class="st0" d="M82,10.1c0.7,0.2,1.9,0.8,0.9-0.2C82.4,9.8,83,10.4,82,10.1z"/>
							<path class="st0" d="M85.6,12.3c-0.3-0.3-0.7-0.5-1-0.7c0,0.1,0.1,0.3-0.2,0.2C84.8,11.9,85.2,12.1,85.6,12.3z"/>
							<polygon class="st0" points="86.1,12.5 85.6,12.3 85.9,12.6 							"/>
							<path class="st0" d="M90.3,16.6c0.5,0.2,0.9,0.6,1.4,1c-0.5-0.5-1-1-1.5-1.5C90,16.2,89.7,16.1,90.3,16.6z"/>
							<path class="st0" d="M88.4,14.9c0,0,0.1,0,0.1,0.1C88.4,14.9,88.4,14.8,88.4,14.9z"/>
							<polygon class="st0" points="96,22.1 95.9,22 95.9,22 							"/>
							<path class="st0" d="M90.1,16c-0.3-0.4-0.6-0.5-0.9-0.7c0.3,0.2,0.6,0.5,0.9,0.8C90.2,16.1,90.3,16.1,90.1,16z"/>
							<path class="st0" d="M92.9,19.3c-0.1-0.2-0.3-0.5-0.5-0.8C92.5,18.7,92.8,19.2,92.9,19.3z"/>
							<path class="st0" d="M88.6,15.1C88.5,15.1,88.5,15.1,88.6,15.1C88.6,15.2,88.6,15.2,88.6,15.1z"/>
							<path class="st0" d="M88.6,15.1c0.2,0.1,0.5,0.2,0.7,0.3c-0.3-0.2-0.5-0.3-0.8-0.4C88.5,15,88.5,15.1,88.6,15.1z"/>
							<path class="st0" d="M98.7,22.4c-0.1,0.1-0.5-0.2-0.8-0.5c-0.2-0.2-0.4-0.4-0.5-0.7c-0.2-0.2-0.4-0.5-0.5-0.8
								c-1-0.7-1.2,0.5-0.9,1.6c0.1,0,0.2-0.2,1.1,0.7c-0.1-0.5-1.4-2.3-0.5-1.7c0.6,0.5,0.8,0.8,0.9,1c0.1,0.2,0.1,0.4,0.2,0.7
								c-0.1-0.8,1.6,1.3,1.9,0.7l-1-1C98.5,22.4,98.9,22.7,98.7,22.4z"/>
							<path class="st0" d="M94.4,20.3L94.1,20c0.3,0.4,0.5,0.8,0.8,1.5c0.6,0.5,0.8,0.6,1,0.5l-1.6-1.8L94.4,20.3z"/>
							<path class="st0" d="M92.6,18.4c0.5,0,1.4,0.8,1.2,0c-1-1-0.9-0.5-1.6-1C93.9,18.9,91.5,17.1,92.6,18.4
								c-0.4-0.3-0.7-0.6-1-0.8c0.3,0.3,0.5,0.6,0.8,0.9c0,0,0,0,0,0l0,0l0,0c0-0.1-0.1-0.1,0,0c0,0,0,0,0,0
								C92.5,18.4,92.5,18.4,92.6,18.4c0.4,0.5,0,0.1-0.2,0c0,0,0,0-0.1,0l0,0c0.6,0.5,1.1,1,1.7,1.5C93.8,19.6,93.4,19.1,92.6,18.4
								z"/>
							<path class="st0" d="M84.4,9.9c0,0.1,0,0.1,0,0.1C84.5,10.1,84.6,10.1,84.4,9.9z"/>
							<path class="st0" d="M85.1,10.6c-0.2-0.1-0.4,0-0.8-0.3c-0.4-0.3,0.1-0.1,0.1-0.2c-0.3-0.1-1.1-0.4-0.3,0.3l0.2,0
								c0.8,0.6,1.6,1.6,1.4,1.5C85.6,11.5,85.5,11.2,85.1,10.6z"/>
							<path class="st0" d="M89.2,14.3c0.6,0.3,1.1,0.7,1.6,1.1l-0.6-0.9l-0.1,0.2C89.3,14,89.4,14.3,89.2,14.3z"/>
							<path class="st0" d="M96,22.4l-0.4,0c0.4,0.2,0.7,0.4,1.1,0.6L96,22.4z"/>
							<polygon class="st0" points="97.5,24.4 97.2,24.5 97.7,24.9 							"/>
							<path class="st0" d="M28.8,101.9l-0.6-0.2C28.5,101.8,28.6,101.9,28.8,101.9z"/>
							<path class="st0" d="M32.6,104l0.2-0.1C32.5,103.9,32.4,103.9,32.6,104z"/>
							<path class="st0" d="M100,81.7c-0.7,0.6-1.5,1.1-1.2,1.2l0.4,0C99.5,82.4,99.8,82,100,81.7z"/>
							<path class="st0" d="M67.1,106.9c0.1,0,0.2,0,0.3,0.1c0.2-0.2,0.3-0.3,0.5-0.4C67.6,106.6,67.4,106.8,67.1,106.9z"/>
							<path class="st0" d="M66.7,108.3l-1.2,0C65.8,108.3,66.2,108.3,66.7,108.3z"/>
							<path class="st0" d="M11.2,86c-0.2-0.1-0.5-0.3-0.7-0.4C11.2,86.5,11,86,11.2,86z"/>
							<path class="st0" d="M107.2,47.6c0,0.7,0,1.3,0.1,1.8C107.4,48.5,107.5,47.8,107.2,47.6z"/>
							<path class="st0" d="M31.9,99.8c-0.3-0.1-0.5-0.1-0.5-0.1C31.7,99.9,31.9,99.9,31.9,99.8z"/>
							<path class="st0" d="M107.4,51.4c0-0.1,0-0.2,0.1-0.4c-0.1-0.5-0.1-1-0.2-1.7C107.3,50,107.2,50.7,107.4,51.4z"/>
							<path class="st0" d="M26,9.4c0.1,0,0.1-0.1,0.2-0.1C26.2,9.3,26.1,9.4,26,9.4z"/>
							<path class="st0" d="M49.8,3.9c-0.2,0.1-0.6,0.1-1,0.2C49,4,49.3,4,49.8,3.9z"/>
							<path class="st0" d="M102.5,33C102.3,32.5,102.5,32.9,102.5,33L102.5,33z"/>
							<path class="st0" d="M102.6,30c0.1,0.1,0.2,0.1,0.2,0.1C102.7,30.2,102.6,30.1,102.6,30z"/>
							<path class="st0" d="M109.6,56.7C109.6,56.7,109.6,56.7,109.6,56.7C109.6,56.6,109.6,56.6,109.6,56.7z"/>
							<path class="st0" d="M102.3,32.2c0,0.2,0.1,0.4,0.2,0.6C102.5,32.7,102.4,32.5,102.3,32.2z"/>
							<path class="st0" d="M102.2,32.3c-0.1-0.2-0.1-0.3-0.2-0.4C102,31.9,102,31.9,102.2,32.3z"/>
							<path class="st0" d="M102.9,33.6c-0.1-0.3-0.2-0.5-0.3-0.8c0,0.1,0,0.1,0,0.1C102.6,33.1,102.7,33.3,102.9,33.6z"/>
							<path class="st0" d="M3.2,47.8c0,0,0-0.1,0-0.1C3.2,47.1,3.2,47.4,3.2,47.8z"/>
							<path class="st0" d="M93.7,94.8C93.7,94.7,93.7,94.7,93.7,94.8C93.7,94.7,93.6,94.7,93.7,94.8L93.7,94.8z"/>
							<path class="st0" d="M92.3,96.3c0.4-0.9,0.8-1.2,1.3-1.5l-1.1-0.2L92.3,96.3z"/>
							<path class="st0" d="M20.3,95.9l0.9,1.2c-1.6-0.8-2.4-1.8-1.7-0.6c0.2-0.2,0.6,0,1,0.3c0.5,0.3,1,0.8,1.5,1.2
								c1.1,0.8,2.3,1.6,2.6,1.3l0.6,0.7c-0.2-0.2-0.3-0.1-0.5-0.3c1.2,1.5,1.5,0.2,3.4,1.5c0.7,0.5,1.1,0.9,0.5,0.7l1.7,0.7
								c0.4,0.3,0.2,0.4-0.2,0.1c0.8,0.4,1.7,0.8,2.5,1.2l0,0c0.4,0,1.3,0.2,1.8,0.3c0.6,0.4-0.4-0.1-0.3,0.1c0.5,0.1,1,0.3,1.5,0.4
								c0.2,0.2,0,0.3-0.3,0.2c-0.4-0.1-0.9-0.3-1.4-0.5c0.4,0.8,0.8,0.9,1.3,1c0.5,0.1,1.3,0.2,2.7,1l-1.4-0.4
								c0.7,0.9,1.8,1.1,3.3,2c-0.3-0.3-2.8-2-1.2-1.7c0.4,0.2,1,0.5,1.9,0.6c-0.1,0.3,0.8,0.5,1.9,0.7l-0.2,0.4
								c1.2,0.2,1.2-0.1,1.9-0.1c1.3,0.4,1.5,0.8,1.7,1.2c2.1,0.4-1.3-0.8,1.2-0.5c0.9,0.2,1.6,0.3,2.4,0.4c0.8,0.1,1.6,0.1,2.7,0
								c1.2,0.2-0.2,0.3,0.2,0.4l1.1-0.3c0.3,0,0.2,0.1,0.1,0.2c0.9-0.1,0.1-0.5,1.5-0.5c0.2-0.3,0.9,0,1.8,0.2
								c0.9,0.1,2,0.3,2.9-0.1c0.4,0.1-0.2,0.3-0.1,0.5c2.4-0.5,2.1-0.3,4-1.2l1.7,0.1c-1.3-0.2,0.2-0.8,1.5-1.4
								c-0.5-0.1-0.9-0.2-1.1-0.2c0.7-0.2,1.4-0.4,2.1-0.7c0.3,0,0.1,0.2-0.2,0.5c0.1-0.1,0.3-0.2,0.4-0.2c0.8,0,0.5,0.3,0,0.8
								c-0.3,0-0.6-0.1-0.8-0.1c-0.5,0.4-0.9,0.8-0.8,1c0.1-0.1,0.4-0.2,0.7-0.2c-0.1,0.1-0.2,0.2-0.1,0.2c0.1,0,0.3-0.1,0.6-0.3
								l0.6,0.4l0.1-0.2l2.9-0.4c0.5-0.3,0.9-0.5,1.4-0.8c0.4-0.3,0.9-0.6,1.4-1c1-0.7,2.1-1.3,3.5-2c-0.6,0.7,0.1,0.7,0.2,1.1
								c-1-0.1-2.3,1.1-4,1.6c0.9-0.3,0.8,0,0.6,0.2l2.7-1.5c0.1,0.4,0.7,0,1.5-0.2c-0.9-0.4,1.9-1.5,2.9-2.2c0.2,0.2,0,0.5-1.4,1.2
								c1.8-0.3,1.6-1.7,3.2-2.1c-0.3,0.2-0.5,0.3-0.6,0.5c0.6-0.6,2.5-1.6,2.2-1.1l-0.3,0.2c0.5-0.3,1.2-0.7,1.9-1.1
								c0.7-0.5,1.4-1,2-1.5c1.2-1.1,2.2-2,2.1-2.4c0.1,0,0.3,0.8,0.2,1c0.7-1.5,1.3-3.1,1.8-4.5c0.1,0.7,2.1,0.6,0.8,2.2
								c0.5-0.4,1.1-0.7,1.9-1.8c-0.3,0.3-1.2,0.2-0.9-0.3c1.4-0.7,0.9-0.5,2.6-1.6c-0.5,0.4-0.7-0.7,0-1.4c0,0.2,0.7,0.5,0.5,0.8
								c0.3-0.8,0.6-1.5,0.9-2.4c-0.2,0.6,0.5,0.5,1,0.2c-0.3,0.1,1.3-1.6,1.6-2.2l-0.8,0.7c1.7-2.1,0.5-2.8,1.9-5
								c0,0.4,0.5,1.2,1.3,0.1c0-0.4-0.1-1.2-0.1-2.2c-0.1-1,0-2.2,0.3-3.3l0.4-0.3c0.2-0.6,0.3-1.1,0.4-1.7c0.2,0.6,0.1,1.8,0.1,3
								c0,1.2-0.1,2.5-0.3,3.4c0.6-0.8,0.4-0.1,1-1.5c0.4-0.4,0,0.9-0.2,1.3l1.7-3.1c-0.3,0-0.1-0.7,0.1-1.4
								c0.1-0.7,0.3-1.4,0.1-1.4c-0.2,1.3-0.7,2.5-1.1,3.7c-0.3,0-0.3-0.7-0.2-1.6c0-0.5,0.2-1,0.3-1.5c0.1-0.6,0.3-1.1,0.5-1.7
								c0.4-0.5,0.7,0.8,0.9,0.8c0-0.4,0.5-2.3,0.7-2.5l-0.1,1.1c0.3-0.6,0.4-1.2,0.4-1.8c0.1-0.6,0.1-1.3,0.6-2
								c0.2-0.5,1.1-1.5,0.8-1.7c-0.8,0.8-2.6,0.5-2.8-0.2c0-0.1,0.4-0.8,0.7-1.5c0.4-0.7,0.6-1.5,0.8-1.8c0.6-0.8,0.8,1.6,1.3,0.9
								c-0.1-0.1-0.2-0.6-0.2-0.8c0.2-0.6,0.4,0.3,0.5-1c-0.5-0.3,0.4-2.6-0.3-0.7c0-0.6,0.1-1,0.2-1.3c0.1-0.4,0.2-0.7,0.2-1.5
								c-0.4,0.4-1.1-1.4-1.1-2.7c0.1,0.1,0.3-0.2,0.4-0.3c0-0.6,0.1-1.2,0.2-1.7c0-0.5,0-1,0-1.5c0-1,0-1.9,0-3.1
								c0.1-0.2,0.2-1.4,0.4-0.9c-0.1-0.3-0.4-0.6-0.5-1.4c0.2-1.5,0.3,1.6,0.7,0.5c-0.3-0.1-0.7-1.9-1-2.9
								c-0.4,0.4,0.3,2.4,0.6,3.5c-0.6,0.1-1.6-1.7-2.2-4c-0.2-1-0.2-1.2-0.1-1.2c0.1,0,0.3,0.1,0.2,0c-0.4-1.8-0.9-2.5-1.3-3.1
								c-0.4-0.6-0.7-1.2-1-2.6c0-1.3,0.7-0.3,0.9-0.7c0.3,0.7,0.5,1.3,0.6,1.9c0.1,0.6,0.1,1.1,0.2,1.6l-0.2-1.4
								c0.3,0.5,0.6,1.5,0.7,2.1c0.2-1.1-1.7-6.1-2.7-8.8c-0.3-0.4-0.9-1.1-0.8-0.7l0.4,0.8c0.1,0.9-1.1-1.3-0.8-0.2
								c-0.4-0.5-0.8-1-1.2-1.6c-0.2-0.3-0.4-0.6-0.6-0.9c-0.2-0.3-0.4-0.7-0.6-1l0.2-0.5c-0.1,0.1,0.3,1.1,0.7,1.4
								c-0.5-0.5-0.8-2.5-1.7-2.9l0.3,1.2c-0.9-0.9-1.9-1.9-2.7-3.2c0,0.8,0.3,0.2,0.4,1.4c0.1-1.1,1.9,3.2,1.8,1.6
								c0,0.6,0.2,1,0.4,1.5c0.2,0.5,0.5,0.9,0.5,1.7c0.1-0.1,0-0.6,0.5,0.6c0.1,0,0.2,0.1,0.2,0.2c0,0,0,0,0,0.1c0,0,0,0,0-0.1
								c0,0,0,0,0,0c-0.1-0.3-0.1-0.5-0.1-0.7c0.6,0.4,1.4,2.2,1.9,2.7c0.3,0.7-0.3-0.2-0.3,0.2c0.2,0.3,0.5,0.5,0.6,0.8
								c-0.3,0.2,0.1,2-0.6,0.5l0.5,1.5c0.1,0.9,0.5,2.1,0.9,2.8c0.1,0.7,0.8,1.7,0.4,1.1l0.8,2.3l-0.1,0c0.3,1.2,0.6,2.4,0.9,3.6
								c0.2,1.3,0.5,2.6,0.2,4c0.1,0.8,0.3,1.6,0.2,3l-0.3,0.3c0.1,0.5,0,1.3-0.1,2c-0.1,0.7-0.1,1.3,0,1.6
								c-0.2,0.3-0.3,0.7-0.4,1.3c0,0.3-0.1,0.6-0.1,0.9c0,0.3-0.1,0.6-0.1,1c-0.2,1.3-0.3,2.7-0.5,3.6l0.4,0.1
								c-0.2,1.2-0.5,2.4-0.7,4l0.3,0c0,1.4-1.3,3.2-2,5.3c-0.1-0.2,0.1-0.7,0.4-1c-0.4,0.5-0.7,1.1-0.9,1.7
								c-0.3,0.6-0.5,1.2-0.7,1.9c-0.2,0.6-0.4,1.3-0.7,1.8c-0.2,0.6-0.5,1.1-1,1.6c-0.2,0.6-0.4,0.9-0.7,1.2c0,0,0-0.1,0.1-0.1
								c0,0.1-0.1,0.1-0.1,0.2c-0.2,0.2-0.4,0.4-0.6,0.6c0.2-0.2,0.4-0.3,0.5-0.5c-0.2,0.4-0.5,1-0.8,1.6l-0.4,0c0,0,0,0.1-0.1,0.1
								c-0.4,0.5-0.1,0.5,0.3,0.4c-0.1,0.3-0.3,0.6-0.3,0.8c-0.8,0.1-0.9,1.5-1.8,1.7c0,0.3-0.5,1-0.9,1.7c-0.5,0.7-0.9,1.4-0.8,1.7
								c-0.1,0-0.2,0.1,0-0.2c-0.6,0.5-1.1,1-1.4,1.6l-0.5-0.1l-0.3,0.8L93,92.3c-0.9,0.5-1.3,0.6-0.9-0.3c-1.4,2-1.3,1.4-2.4,3.2
								l-0.1-0.3c-0.6,0.4-1.3,1.4-1.8,1.5c-1.5,0.6-6.7,4.4-10.7,5.6c0.5,0.2,0.1,0.4-0.5,0.5c-0.6,0.1-1.3,0.2-1.3,0.5
								c-0.3-0.1-0.9,0-0.3-0.4c-1.9,0.9-3,0.8-4.3,1.7c-0.3-0.1,0.3-0.4,0.1-0.5c-0.1,0.1-0.6,0.3-0.8,0.3
								c-0.2-0.1,0.2-0.2,0.5-0.4c-2,0.6-2.1,1.2-2.1,1.9c-0.6,0-1,0-1.3,0.2c-0.4,0.1-0.7,0.2-1,0.5c-0.4-0.1-1.1-0.2,0.2-0.5
								c-0.8,0.1-4.6,0.4-4.6,0.9c-0.2-0.1-1.1,0-1.3,0.1c-1.7,0.1-1.8,0-3.5,0.2l0.5,0.1c-0.7,0.6-1.4,0.1-2.7,0.1l0-0.1
								c-1.5-0.3-1.9-0.3-2.2-0.2c-0.2,0-0.3,0-0.6,0c-0.3,0-0.8-0.1-1.5-0.4l0.1,0.4c-0.4,0.7-2.6-0.9-4.4-0.8
								c0.2,0.1,0.4,0.2,0.6,0.3c-0.5,0.1-1.1-0.4-1.7-0.8c-0.6-0.5-1.1-1-1.6-1.1c-0.2-0.1,0.3,0,0.6,0c-2.3-1.1-0.4,0.4-2.3,0
								c-0.3-0.3,0.6-0.5-0.6-0.9c-0.3-0.2-1.2-0.3-2.2-0.5c-0.5-0.1-1.1-0.2-1.6-0.4c-0.3-0.1-0.5-0.2-0.7-0.3
								c-0.2-0.1-0.4-0.3-0.6-0.4c0.3,0.3,0.5,0.7-0.3,0.4c-0.6-0.3-1.4-0.8-2.1-1.3c-0.7-0.5-1.5-0.9-2.2-0.9
								c-0.1-0.1-0.1-0.2-0.1-0.3c-0.9-0.4-3-1.5-3.7-1.5c-0.1-0.8-1.4-1.6-2.7-2.4c-0.6-0.4-1.3-0.7-1.7-1.1
								c-0.4-0.4-0.6-0.7-0.4-0.9l-2.4-2.1l0.1,0c-0.7-0.7-1.2-1.2-1.6-1.5c-0.4-0.3-0.8-0.5-1.1-0.7c-0.3-0.4,0.1-0.2,0.1-0.2
								c-1.8-2.3-1.9-2.6-3.9-4.2l0.1-0.4c-0.1-0.1-0.3-0.4-0.6-0.8c-0.3-0.4-0.5-1-0.8-1.6c-0.3-0.6-0.6-1.3-1-1.9
								c-0.4-0.6-0.8-1.3-1.2-1.9c0,0,0.1,0,0.3,0.2c-0.4-0.7-0.8-1.5-1.2-2.3c-0.3-0.8-0.7-1.7-0.9-2.5c-0.4-1.6-0.9-2.9-1.7-3.3
								c-0.4-0.6-0.6-1.3-0.9-2c0.6,2.7-0.7-0.2-0.6,0.9c-0.4-1.1-0.3-2.9,0.1-1.6l0,0.2C6.8,68.7,5.3,65,5.9,65
								c-1.1-5.4-0.8-10.7-0.3-15.7c-0.2,0.2-0.4,0.3-0.6,0.5c0.1-0.6,0.2-1.2,0.3-1.8c0.2-0.4,0.5-0.6,0.3,0.7
								c0.4-0.6,0.1-2.1,0-2.2c0.6-2.4,0.5,1.1,0.6,0.3l0.1-1L6.2,46c0-0.4-0.1-0.7-0.2-1c0-0.3,0-0.7,0.2-1.5
								c0.3-0.9,0.5-0.4,0.6-0.8c0,0,0.1-0.1,0.2-0.6l0.6-2.1l-0.6,0.7c0-1,0.6-2-0.2-1.2c0.6-0.6,1.4-2.5,2.1-4.4
								c0.8-1.9,1.6-3.6,1.9-4c0.1-0.3,0.2-0.7,0.3-1c0.1-0.3,0.3-0.6,0.5-1c0.4-0.6,0.8-1.3,1.2-2c-0.3,0.3-0.8,0.3,0-1
								c0.3,0.5,0.7,0,1.3-0.7c0.6-0.7,1.3-1.5,1.9-1.8c-0.5,0.3,0.1-0.6,0.6-1.4c0.5-0.8,1.1-1.5,0.3-1.1c0.9-0.9,0.3,0.2,1.1-0.3
								c0.4-0.6,0.9-1.2,1.4-1.8c0.3-0.3,0.5-0.6,0.8-0.9c0.3-0.3,0.6-0.5,1-0.8c1.3-1,2.6-2.2,4.1-3.3c0-0.1-0.6,0.1-0.1-0.6
								l1.9-0.6c0.3-0.2,0.3-0.5,0.4-0.7c0.1-0.3,0.3-0.5,1-0.6c-0.2,0-0.5,0-0.2-0.3c3.2-1.6,6.3-3.4,9.6-4.8
								C39.6,6,41.3,5.3,43.1,5c0.9-0.2,1.8-0.4,2.7-0.5c0.9-0.2,1.8-0.1,2.7-0.1c-1-0.1-0.4-0.2,0.4-0.3c-0.5,0,0-0.3-0.2-0.5
								c1,0,2,0,3,0.1c0.5-0.5,3.2-0.2,3.5-0.7l-1,0.1c1.3-0.6-1.9-1.2-1.7-1.9c-0.4,0.2-0.8,0.2-1.3,0.2c-0.5,0-1,0-1.5,0
								c-1.1,0-2.3,0-3.5,0.6c-0.6-0.1,0.4-0.3,0.1-0.4c-0.6,0.4-1.3,0.6-2.6,0.8l0.1-0.1C42,2.8,40.6,3,39.2,3.5
								c-0.7,0.2-1.4,0.4-2.2,0.6c-0.8,0.2-1.7,0.5-2.7,0.9l0.4,0.2c-0.9,0.4-1.1,0.3-1.5,0.5c-0.7,1,2.4-1.1,1.7-0.1
								c-0.7-0.1-2.2,0.7-3.6,1.3c-0.7,0.3-1.4,0.8-2,1c-0.6,0.3-1.1,0.4-1.3,0.4c-1.2,0.7,0.6,0.1-0.7,0.9l-0.4,0l-0.2,0.4
								c-0.8,0.4-1.3,0.6-1.5,0.4c0.2-0.1,0.5-0.4,0.7-0.6c-1.1,0.5-2.7,2.2-3.1,2.3l1.2-0.7c-0.8,0.6-1.6,1.2-2.4,2
								c-0.8,0.7-1.6,1.5-2.4,2.2c-0.4,0.4-0.8,0.7-1.2,1.1c-0.4,0.4-0.7,0.8-1,1.2c-0.7,0.8-1.3,1.6-1.9,2.4l0.3-0.1
								c-0.4,0.6-0.7,1-1,1.3c-0.2,0.3-0.4,0.5-0.7,0.8c-0.4,0.5-0.9,0.9-1.8,2.2l0-0.1c-0.3,0.6-0.6,1.4-1.1,2.1
								c0.3-0.8-1.1,1.1-0.7,0.1c-1.3,2.9-0.6,1.5-1.1,3.6L8.8,30c-0.1,0.7,0,0.9-0.6,2.3c0.3-1.3-0.8,0.7-0.5-0.7
								c-0.5,0.7-0.9,1.3-1.1,1.9c-0.2,0.6-0.3,1.2-0.5,1.7c-0.2,1-0.4,1.8-1.1,2.3c0.2,1.7,1.4-2.6,1.3-1.7
								c0.5-0.6,0.1,1.4-0.3,2.3c-0.4,1-1.5,1.4-2.1,4c0.1-0.3,0-0.3,0.1-0.5c-0.2,0.5-0.3,1-0.4,1.5c0,0.3-0.1,0.5-0.2,0.8
								c-0.1,0.3-0.1,0.6-0.2,0.8c0.4,0.8-0.3,1.6,0.3,1.9l0.2-2.4c-0.1,1.4,0.4,2.8-0.2,5c-0.1-0.2-0.1-0.9-0.2-1.3
								c-0.3,0.6-0.1,1.3-0.3,2c-0.6-0.3,0.3-3,0.1-4.5c-0.4,0.7,0,2.9-0.5,2c0.3,0.6,0.2,1.2,0,2c-0.1,0.7-0.2,1.6,0.1,2.5
								l-0.3-0.1c0,0.3,0.2,0.9,0.1,1.4l-0.4-1c0.3,1.5-0.5,2.9-0.2,4.3c-0.1-1.5,0-1.7,0.2-1.6c0.1,0,0.3,0.3,0.5-0.3
								c0.2,1.8,0.1,2.3-0.2,2.9c-0.2,0.6-0.5,1.3-0.3,3.3c-0.1-0.6,0.1-2.1,0.3-1.3c-0.1,0.8,0,1.8-0.2,2.3
								c0.5,2.7,0.3-0.5,0.7,0.7c-0.3,1,0.4,1.3,0.7,2.4L3,64.9c0,0.4,0.1,0.7,0.1,0.9c0.1,0.2,0.1,0.4,0.2,0.5
								c0.1,0.2,0.2,0.3,0.3,0.4c0.2,0.1,0.4,0.2,0.6,1.6l-0.8-1L4,68.7l-0.5-0.2c0.3,0.7,0.5,1.2,0.7,1.7c0.1,0.5,0.2,1,0.4,1.8
								c0.1-0.4,0.7,0,1.2,1.3c0.1,0.9-0.5-0.4,0.2,1.4c-0.4-0.3-0.8-0.7-0.8-1.6c-0.1,0-0.4-0.3-0.5-0.4c0.1,1,0.8,2.4,1.1,3.1
								c-0.1-0.3-0.2-0.6-0.2-0.8c0.2,0.4,0.5,0.8,0.7,1.2l0.8,1.2c0.1,0.5-0.2,0.2-0.4-0.1c0.3,0.5,0.6,0.8,1,1.5
								c-0.4-0.1-0.6,0.1-1.3-0.9L8,80.2c0,0.2,0.3,1.4,0.1,1.1c0.7,1.4,2.4,2.9,3.3,4.7c0.1,0.1,0.3,0.2,0.6,0.5
								c0.5,0.8,1,1.5,1.5,2.3c0.3,0.4,0.5,0.8,0.9,1.1c0.4,0.4,0.7,0.7,1.2,1l0.5,1.3c1.3,1.2-0.7-1.7,1.4,0.3
								c1.5,1.4,0.2,0.9,0.6,1.5c0.9,0.5,2.6,1.3,3.7,2.9C21.1,96.6,20.8,96.2,20.3,95.9z M38.6,106.4c-0.4-0.1-1.3-0.1-1.5-0.4
								C37.8,105.7,38,106,38.6,106.4z M70.2,106.8c-0.3,0.2-0.7,0.2-1.3,0.2C69.3,106.9,69.7,106.8,70.2,106.8z M105,38.2
								C105,38.2,105,38.2,105,38.2C105.2,39.1,105.1,38.8,105,38.2z M104.5,36.4c-0.1-0.2-0.2-0.1-0.2,0c0.1,0.1,0.3,0.5,0.4,0.9
								C104.8,37.2,104.8,36.9,104.5,36.4z M6.7,42.5l-0.2,0.3C6.6,42.1,6.6,42.3,6.7,42.5z"/>
							<path class="st0" d="M66.8,108.1c-0.1,0-0.2-0.1-0.2-0.2C66.4,108,66.4,108.1,66.8,108.1z"/>
							<path class="st0" d="M11.3,86.1L11.3,86.1C11.3,86,11.2,86,11.2,86L11.3,86.1z"/>
							<path class="st0" d="M110.2,64.3c-0.1,0.4-0.2,0.6-0.3,0.7C110,65,110.1,64.9,110.2,64.3z"/>
							<path class="st0" d="M99.8,28.3l0.7,0.9c-0.3-0.5-0.3-0.7-0.4-0.9C100,28.3,100,28.6,99.8,28.3z"/>
							<path class="st0" d="M95.5,18.9c-0.1-0.1-0.3-0.3-0.4-0.4L95,18.7C95.5,19.2,96,19.5,95.5,18.9z"/>
							<path class="st0" d="M100.3,26.7c0.2-0.2-0.2-0.8-0.8-1.4c0,0,0.1,0.1,0.1,0.1C99.1,25.4,99.7,26,100.3,26.7z"/>
							<path class="st0" d="M99.4,25.1c-0.2-0.2-0.3-0.4-0.5-0.6C98.7,24.5,99.1,24.8,99.4,25.1z"/>
							<path class="st0" d="M103.5,34.4c-0.1-0.4-0.5-0.1-0.4-0.3C102.6,33.9,104.6,36.2,103.5,34.4z"/>
							<polygon class="st0" points="100.8,25.6 100.6,26.1 101.1,26.3 							"/>
							<path class="st0" d="M103.8,31.4l-0.5-1.2c0,0-0.2-0.1-0.3-0.3C103.4,30.7,103.7,31.5,103.8,31.4z"/>
							<path class="st0" d="M103,29.9c-0.2-0.4-0.4-0.7-0.6-0.9C102.5,29.2,102.8,29.6,103,29.9z"/>
							<polygon class="st0" points="101.8,27.1 101.9,27.5 102.4,28.3 							"/>
							<path class="st0" d="M108.3,44.8l0.3,1.4c0.1,0.1,0.2-0.3,0-0.8C108.5,45.1,108.3,44.5,108.3,44.8z"/>
							<path class="st0" d="M108.2,40.3c0,0.4-0.1,0.5-0.1,0.7l0.5-0.1L108.2,40.3z"/>
							<path class="st0" d="M109.4,44.4c0.1,0.1,0.7,2,0.4,0.2C109.6,44.5,109.2,43.1,109.4,44.4z"/>
							<polygon class="st0" points="108.5,66.3 108.6,65.9 107.9,65.8 							"/>
							<path class="st0" d="M102.6,84.9c1.1-1.4-0.2-0.6,0.8-1.9c0.1-0.4-0.8,1-0.7,0.6C102.4,84.7,102,85.1,102.6,84.9z"/>
							<path class="st0" d="M102.7,83.7c0.1-0.2,0.1-0.3,0.2-0.5C102.8,83.4,102.8,83.6,102.7,83.7z"/>
							<polygon class="st0" points="53.7,3.9 54.8,4 54.1,3.8 							"/>
							<path class="st0" d="M55.7,3.2L56,3.7l0.6-0.5C56.4,3.3,55.9,3.3,55.7,3.2z"/>
							<path class="st0" d="M41.4,108.3l0.1-0.1c-0.1-0.2-0.4-0.2-0.9-0.4L41.4,108.3z"/>
							<polygon class="st0" points="27.3,101.6 27.5,101.7 27.3,101.1 							"/>
							<path class="st0" d="M16.7,93.8c0.3,0.4,0.9,0.8,1.3,1.2C17,94.2,17,93.3,16.7,93.8z"/>
						</g>
					</g>
				</g>
			</g>
		</g>
		
			<rect x="43.9" y="45.3" transform="matrix(4.486462e-11 -1 1 4.486462e-11 4.5459 157.8974)" class="st1" width="74.6" height="62.7"/>
		<circle class="st2" cx="107.7" cy="54.9" r="12.8"/>
		<g>
			<g>
				<line class="st3" x1="34" y1="54.9" x2="87.4" y2="54.9"/>
				<g>
					<polygon class="st4" points="19.1,64.8 35.8,54.8 19.1,44.8 					"/>
				</g>
				<g>
					<rect x="86.4" y="48.4" class="st4" width="2" height="13"/>
				</g>
			</g>
		</g>
		<g>
			<path class="st4" d="M59.3,102.1c0.3-0.2,0.5-0.3,0.8-0.3c0.3,0,0.5,0.1,0.6,0.3c0.2,0.2,0.2,0.4,0.3,0.6s-0.1,0.5-0.3,0.8
				c-0.6,0.6-1.2,1.2-1.8,1.8c-0.6,0.6-1.1,1.2-1.7,1.8c0.7,0.8,1.3,1.6,1.9,2.4c0.6,0.8,1.2,1.7,1.7,2.5c0.1,0.3,0.1,0.6,0,0.8
				c-0.1,0.2-0.2,0.4-0.4,0.5c-0.2,0.1-0.4,0.1-0.6,0.1c-0.2,0-0.5-0.2-0.7-0.4c-0.5-0.8-1-1.5-1.5-2.3c-0.5-0.7-1.1-1.4-1.7-2.1
				c-1.1,1.3-2.1,2.7-3,4.2c-0.2,0.3-0.5,0.4-0.7,0.5c-0.3,0-0.5,0-0.7-0.2c-0.2-0.1-0.3-0.3-0.4-0.6c-0.1-0.3,0-0.6,0.2-0.9
				c0.5-0.8,1-1.6,1.6-2.3c0.6-0.8,1.1-1.5,1.7-2.2c-0.5-0.6-1-1.1-1.6-1.7s-1.1-1.1-1.6-1.7c-0.3-0.3-0.4-0.5-0.4-0.8
				c0-0.3,0.1-0.5,0.2-0.7c0.2-0.2,0.4-0.3,0.6-0.3c0.3,0,0.5,0,0.8,0.3c0.5,0.6,1.1,1.1,1.6,1.7s1.1,1.1,1.6,1.7
				c0.5-0.6,1.1-1.2,1.6-1.8C58.2,103.3,58.7,102.7,59.3,102.1z"/>
		</g>
	</g>
	<g>
		<path class="st4" d="M71.4,104.5c0-1.8,0-4.6-0.1-8.3c-0.1-3.6-0.1-6.9-0.1-9.9c0-2.9,0.1-5.7,0.2-8.3c0-0.5,0.4-0.8,0.9-0.8
			c0.5,0.1,0.8,0.5,0.8,0.9c-0.1,2.6-0.2,5.3-0.2,8.2s0,6.2,0.1,9.8c0.1,3.6,0.1,6.4,0.1,8.3c0,2.4,0,3.8,0.1,4.2
			c0.1,0.9,0.1,1.7,0.2,2.2c0,0.1,0.1,0.2,0.1,0.3c0.1,0.2,0.3,0.5,0.9,0.6c0.6,0.1,1.4,0.1,2.4,0.1c2-0.1,3.3-0.1,4,0.1
			c0.5,0.1,0.7,0.6,0.6,1c-0.1,0.5-0.6,0.7-1,0.6c-0.5-0.2-1.7-0.2-3.5-0.1c-1.8,0.1-3.2-0.1-4-0.5c-1.1-0.5-1.3-2.3-1.4-4.3V104.5z
			"/>
		<path class="st4" d="M85.7,76.4c2,1.9,2.7,4.9,2,8.8c-0.1,0.5-0.5,0.8-0.9,0.7s-0.8-0.5-0.7-0.9c0.5-3.4,0-5.8-1.6-7.4
			C83.8,76.8,85,75.7,85.7,76.4z"/>
		<path class="st4" d="M93.7,78.1c-0.1,0.1-0.1,0.1-0.1,0.1c0,0.1-0.1,0.3-0.2,0.8c0,0.1-0.1,0.2-0.1,0.4c-0.2,1.8-0.1,4.2,0.2,7.2
			c0.2,2.7,0.3,2.5,0.2,4.9c-0.1,1.2,0.3,1.3,1.2,1.3c0.7,0,1.3,0,1.8-0.1c0.5-0.1,0.9,0.3,0.9,0.8c0,0.5-0.3,0.9-0.8,0.9
			c-0.6,0.1-1.2,0.1-2,0.1c-0.8,0-1.2,0-1.2,1.2c-0.3,5.7-0.3,10.2-0.1,13.3c0.1,1,0.2,1.7,0.3,2.3c0,0.1,0.1,0.2,0.1,0.3
			c0.1,0.1,0.1-0.3,0.1-0.5c0,0.6,0.2,1,0.9,1.1c1.3,0.2,2.9,0,4.6-0.1c0.9-0.1,1.5-0.1,1.9-0.1c0.5,0,0.8,0.3,0.8,0.8
			c0,0.5-0.3,0.8-0.8,0.8c-0.8,0-3.2,0.2-3.9,0.3c-1.9,0.1-3.3-0.1-4.2-0.5c-0.6-0.2-0.9-0.9-1-1.7c-0.2-0.6-0.3-1.4-0.3-2.5
			c-0.2-3.5-0.1-8.6,0.1-12.4c0.1-1.9,0.2-3.5,0.2-4.8c0.1-2.5,0.1-2.3-0.2-5.1c-0.2-3.1-0.4-5.6-0.2-7.5c0.2-1.2,0.4-2.1,1.1-2.6
			c0.4-0.2,1.1-0.3,1.8-0.3c0.4,0,1.3,0,2.8,0.1c2.8,0.1,4.3,0.1,4.6,0.1c0.5-0.1,0.9,0.3,0.9,0.8c0,0.2-0.1,0.5-0.2,0.6
			c-0.3,0.4-0.8,0.3-1.3,0.3c-0.8,0-2.1,0-4-0.1C95.9,78,95.1,78,94.7,78c-0.4,0-0.7,0-0.9,0.1H93.7z"/>
		<path class="st4" d="M111.5,96.1c0.2-0.5,0.2-1,0-1.5l-2.5-6.5c-1.5-3.9-2.6-6.8-3.4-8.9c-0.3-1.1,1.2-1.6,1.6-0.6
			c0.2,0.7,1.3,5,4.6,12.3c0.9,1.9,0.9,1.9,1.6,0.1c2.2-5.8,4.2-10.3,6-13.1c0.5-1,2-0.1,1.4,0.8c-1.8,2.9-4.1,8.3-6.9,15.9
			c-0.2,0.6-0.2,1,0,1.6l0.6,1.7c0.3,0.9,0.8,2.4,1.4,4.5c1.2,4.2,2.3,7.1,3.8,9.4c0.6,0.9-0.8,1.8-1.4,0.9c-1.6-2.5-2.7-5.5-4-9.9
			l-0.6-1.7l-0.3-1c-0.3-1.3-0.8-1.9-1.5,0c-1,2.6-1.6,3.9-3.4,7.7c-0.9,1.9-1.5,3.4-1.8,4.4c-0.2,0.5-0.6,0.6-1,0.5
			c-0.5-0.1-0.6-0.5-0.6-1c0.4-1.3,1-2.8,1.9-4.6c1.1-2.3,1.7-3.7,2-4.3L111.5,96.1z"/>
		<path class="st4" d="M127.8,94.3c-0.5,0.3-0.8,0.5-1.1,0.6c-0.6,0.3-1,0.2-0.9,0.9l0.4,6.1c0.3,4.1,0.4,7.3,0.4,9.5
			c0,0.5-0.3,0.8-0.8,0.8c-0.5,0-0.8-0.3-0.8-0.8c0-2.3-0.1-5.5-0.4-9.6c-0.3-4.1-0.5-6.8-0.5-8c-0.1-1.7,0.2-7.1,0.2-7.6
			c0.1-3.2-0.2-5.5-0.7-6.9c-0.1,0-0.1,0-0.1-0.1c-0.4-0.2-0.5-0.7-0.2-1.2c0.1-0.2,0.3-0.3,0.5-0.3c2.7-0.7,5.5,0.2,7.3,2.1
			c1.8,1.8,2.9,4.3,2.7,7c-0.1,1.4-0.6,2.7-1.3,3.8c-0.5,0.9-1.3,1.5-2.2,2.1c-0.5,0.3-0.9,0.6-1.2,0.8L127.8,94.3z M125.8,93.5
			c0.1-0.1,0.2-0.2,0.7-0.4c0.2-0.1,0.4-0.2,0.6-0.3c1.1-0.6,1.4-0.9,2.3-1.4c0.8-0.6,1.3-1.1,1.8-1.7c1.6-2.3,1.3-5,0.1-7
			c-0.9-1.7-2.7-3.1-4.7-3.4c-0.8-0.1-1.2,0.5-1,1.3c0.3,1.4,0.4,3.4,0.3,5.7c0,0.3-0.1,1.7-0.2,4c0,0.7-0.1,1.3-0.1,1.9
			C125.6,92.9,125.7,93.6,125.8,93.5z"/>
		<path class="st4" d="M139.1,79.2l-0.1,0.1c-0.1,0.2-0.1,0.5-0.1,0.8c-0.1,0.5-0.1,1.3-0.1,2.2c0,0.6,0,1.4,0.1,2.4
			c0,1,0,1.5,0,1.7c0,1.4,0.1,3.2,0.1,5.3c0,1.2,0.4,1.2,1.1,1.2c0.6,0,1.1,0,1.6-0.1c0.5-0.1,0.9,0.3,0.9,0.8
			c0,0.5-0.3,0.9-0.8,0.9c-0.5,0.1-1.1,0.1-1.6,0.1c-0.8,0-1.2,0.1-1.2,1.2c0,0.5,0,0.9,0,1.2c0.1,4.3,0.1,7.8-0.1,10.5
			c0,0.2-0.1,1.6-0.2,2.3v0.5c0,0.5,0.1,1.3,0.1,1.3l0.1,0.1c0.1,0,0.1,0,0.3,0.1c0.1,0.1,0.3,0.1,0.5,0.1c0.6,0.1,1.4,0.2,2.4,0.2
			c1.1,0,2.4-0.1,3.5-0.2c0.5-0.1,0.9-0.1,1-0.1c0.5-0.1,0.9,0.3,0.9,0.8c0,0.2-0.1,0.5-0.2,0.6c-0.3,0.4-0.8,0.3-1.3,0.3
			c-0.5,0.1-1.3,0.1-2.1,0.2c-0.6,0.1-1.3,0.1-1.8,0.1c-2.1,0-4.2-0.2-4.7-1.3c-0.3-0.5-0.3-1.5-0.2-2.6c0-0.3,0.1-0.8,0.1-1.3
			c0.1-0.5,0.1-0.9,0.1-1c0.1-2.7,0.1-6.2,0.1-10.4c-0.2-5.8-0.2-9.4-0.2-10.5c0-0.2,0-0.7-0.1-1.7c-0.1-0.9-0.1-1.7-0.1-2.3
			c0-1,0-1.8,0.1-2.4c0.1-0.8,0.2-1.4,0.4-1.8c0.4-0.5,1.3-0.6,2.3-0.8c1.6-0.1,3.8-0.1,6.4-0.1c1.3,0.1,2,0.1,2.3,0
			c0.5,0,0.9,0.3,0.9,0.8c0,0.2-0.1,0.4-0.2,0.6s-0.3,0.3-0.6,0.3c-0.2,0.1-1,0.1-2.3,0c-1.3,0-2.4,0-3.2,0c-1.3,0-2.3,0.1-3.1,0.1
			c-0.2,0-0.3,0.1-0.5,0.1L139.1,79.2z M142.5,71.4c0.2-0.1,0.5-0.3,0.8-0.5c0.7-0.5,1.3-0.8,2-1c1.1-0.5,1.7,1.1,0.7,1.5
			c-0.7,0.3-1.2,0.5-1.7,0.9c-0.3,0.2-0.5,0.4-0.7,0.5c-0.3,0.2-1.4,1-1.7,1.3c-0.9,0.6-1.9-0.7-1-1.4c0.2-0.1,0.5-0.3,0.9-0.6
			L142.5,71.4z"/>
		<path class="st4" d="M154.2,77.6c2.5,0.1,4,1.3,5.8,3.5c3.5,4.2,4.6,9.5,3.3,16.1c-1.1,5.5-3.9,11-7.3,15
			c-0.2,0.2-0.3,0.3-0.5,0.3c-0.5,0.1-0.7,0.2-1.3,0.1c-0.1,0-0.3-0.1-0.4-0.2c-0.2-0.2-0.3-0.3-0.3-0.6c-0.4-4.5-0.6-10.1-0.5-16.8
			c0-1.2,0.1-3.8,0.2-7.6c0.1-3.9,0.1-6.9,0.1-9v-0.1C153.4,78,153.7,77.6,154.2,77.6L154.2,77.6z M156.6,108.8
			c5.7-8.3,8-19.6,2.2-26.6c-0.9-1-1.7-1.8-2.5-2.3c-0.8-0.5-1.3-0.6-1.3,0.9c0,1.8-0.1,4.1-0.1,6.9c-0.1,3.6-0.1,6.1-0.1,7.4
			c-0.1,5.1,0.1,9.5,0.2,13.2C155.1,109.9,156,109.8,156.6,108.8z"/>
		<path class="st4" d="M170.2,78.1c0.2,4.3,0.1,10.7-0.2,19.4c-0.1,1.9-0.1,4.4,0.1,7.6c0.2,4,0.3,6.6,0.3,7.7
			c0,0.5-0.3,0.8-0.8,0.8s-0.8-0.3-0.8-0.8c0-1.3-0.1-3.9-0.3-7.7c-0.2-3.5-0.2-6.1-0.1-7.8c0.3-7.9,0.4-14.2,0.2-19.1
			c-0.1-0.5,0.3-0.9,0.8-0.9C169.8,77.3,170.2,77.6,170.2,78.1z"/>
		<path class="st4" d="M177.9,79.6c0-0.1-0.4-0.2-1.2-0.2c-1.3-0.1-2.5,0-3.5,0.1c-0.5,0.1-0.9-0.3-0.9-0.8
			c-0.1-0.5,0.3-0.9,0.8-0.9c1.5-0.2,3.6-0.2,6.4-0.1c2.9,0.1,5,0.1,6.2,0.1c0.5-0.1,0.9,0.3,0.9,0.8c0,0.5-0.3,0.9-0.8,0.9
			c-1.3,0.1-3.5,0.1-6.4-0.1c0,0,0.1,0.2,0.1,0.8c0.3,1.4,0.3,2.9,0.2,5c-0.1,1.2-0.1,2-0.1,2.4c0,1.5-0.1,3.9-0.2,7.3
			c-0.2,6.8-0.3,12,0.3,16.2c0.1,0.5-0.2,0.9-0.7,0.9c-0.5,0.1-0.9-0.2-0.9-0.7c-0.7-4.2-0.6-9.6-0.3-16.5c0.1-3.4,0.2-5.8,0.2-7.2
			c0-0.5,0-1.3,0.1-2.5c0.1-2.4,0.1-3.8-0.2-5.2L177.9,79.6z"/>
		<path class="st4" d="M193.1,78.1c0.2,4.3,0.1,10.7-0.2,19.4c-0.1,1.9-0.1,4.4,0.1,7.6c0.2,4,0.3,6.6,0.3,7.7
			c0,0.5-0.3,0.8-0.8,0.8s-0.8-0.3-0.8-0.8c0-1.3-0.1-3.9-0.3-7.7c-0.2-3.5-0.2-6.1-0.1-7.8c0.3-7.9,0.4-14.2,0.2-19.1
			c-0.1-0.5,0.3-0.9,0.8-0.9C192.7,77.3,193.1,77.6,193.1,78.1z"/>
		<path class="st4" d="M208,88.4c0.5,10.2,0.1,15.5-0.9,19.2c-0.6,2.5-1.6,4.1-2.9,4.9c-1.7,1.1-3.3,0.6-4.5-0.8
			c-0.9-1.1-1.7-2.8-2.4-5.2c-1.4-5.1-3.8-19.1-0.1-26.5c0.9-1.6,2.7-3.1,4.3-3.5c2.8-0.6,4.6,1.1,5.5,3.8
			C207.5,81.4,207.9,83.2,208,88.4z M206.4,85.7c-0.1-1.8-0.3-3.4-0.8-4.6c-0.7-2.1-1.8-3.2-3.6-2.8c-1.2,0.2-2.5,1.4-3.2,2.7
			c-3.5,6.8-1.3,20.1,0.2,25.2c0.6,2.1,1.3,3.7,2,4.6c0.8,0.9,1.4,1,2.3,0.5c1.8-1.2,2.9-5.4,3.2-11
			C206.6,97.3,206.5,92.9,206.4,85.7z"/>
		<path class="st4" d="M214.6,81.7c0.4,1,0.6,1.8,0.8,2.5c0.2,0.7,3.3,14.4,4.9,19.3l0.1,0.1c0.3,1,1.3,3.3,1.3,2.4v-2.5
			c0-1.5-0.1-4.1-0.2-7.9c-0.2-7.4-0.2-12.5,0.5-17.6c0.1-0.5,0.5-0.8,0.9-0.7c0.5,0.1,0.8,0.5,0.7,0.9c-0.7,4.9-0.7,9.9-0.5,17.3
			c0.1,3.7,0.1,6.4,0.1,7.9v4.6c0,1-0.1,1.8-0.1,2.4c-0.1,0.4-0.1,0.7-0.2,0.9c-0.1,0.2-0.1,0.3-0.2,0.4c-0.2,0.3-0.5,0.5-0.9,0.4
			c-0.2,0-0.3-0.1-0.5-0.2c-0.1-0.1-0.1-0.1-0.1-0.2c-0.1-0.1-0.1-0.1-0.1-0.1l-0.1-0.3c-0.1-0.2-0.2-0.3-0.3-0.6l-0.6-2.1l-1.5-4.6
			c-0.8-2.5-1.7-5.7-2.6-9.7c-1.3-5.6-2.1-8.8-2.3-9.7c-0.1-0.3-0.3-1-0.4-1.3c-0.1-0.2-0.2,2.6-0.2,2.6c-0.1,2-0.2,3.2-0.2,3.9
			c0,1.5-0.1,4-0.2,7.5c-0.2,6.9-0.3,8.9,0.2,14.9c0.1,0.5-0.2,0.9-0.7,0.9c-0.5,0.1-0.9-0.2-0.9-0.7c-0.3-2-0.4-4.3-0.4-6.9
			c0-2.6,0.1-5.5,0.2-8.7c0.1-3.2,0.2-5.5,0.2-6.9c0-0.9,0.1-2.2,0.1-3.9c0.1-1.7,0.2-3,0.2-3.9c-0.2-3.7-0.2-4.2,0.3-4.5
			c0.2-0.1,0.5-0.1,0.8-0.1c0.5,0.2,0.8,0.6,0.9,1.2L214.6,81.7z"/>
	</g>
</g>
</svg>
