<?xml version="1.0" encoding="utf-8"?>
<!-- Generator: Adobe Illustrator 21.0.0, SVG Export Plug-In . SVG Version: 6.00 Build 0)  -->
<svg version="1.1" id="Calque_1" xmlns="http://www.w3.org/2000/svg" xmlns:xlink="http://www.w3.org/1999/xlink" x="0px" y="0px"
	 viewBox="0 0 83.2 85.1" style="enable-background:new 0 0 83.2 85.1;" xml:space="preserve">
<style type="text/css">
	.st0{fill:none;stroke:#1D1D1B;stroke-width:2;stroke-miterlimit:10;}
</style>
<g>
	<path class="st0" d="M44.9,17.7c-2.1,0-5.1-0.5-6.8,0.4c-0.6-1.8-1.4-3.4-2.5-4.9c0.4-0.2,0.8-0.6,0.8-1.2c0-0.3,0-0.5,0-0.8
		c0.6-1.1,1.1-2.3,1.3-3s-0.3-1.3-0.9-1.6c-3.6-1.5-6.9-3.4-10.5-4.9c-0.5-0.2-1.2,0.1-1.4,0.6c-0.7,1.3-1,2.6-1.2,4
		c-1.1-0.1-2.2-0.1-3.3,0c-0.6,0.1-1,0.4-1.2,0.8c-0.6,0.1-1.2,0.2-1.8,0.3c0-0.1,0-0.1-0.1-0.2c-1.2-2-3.4-2.9-5.1-4.5
		c-0.4-0.4-1.1-0.5-1.6-0.2C9,3.6,7.5,5,6.2,6.4c-0.9,1-2.5,2.7-2.5,4.2c0,1.7,2.7,3.4,3.9,4.3C8,15.2,8.5,15.4,9,15.6
		c-0.4,1.3-0.7,2.8-0.9,4.2c-2.1-0.1-4.2,1-5.9,2.1c-0.6,0.3-0.7,0.9-0.6,1.5c0.7,4,1.4,8,2.8,11.8C4.6,36,5.5,36.5,6.3,36
		c1.2-0.8,2.4-1.3,3.9-1.6c0.6-0.1,1.3-0.3,1.9-0.5c1.4,1.8,3.2,3.2,5.3,4.1c-1,1.8-1.1,5-1.1,6.6c0,0.7,0.6,1.3,1.3,1.3
		c3.6,0,7.3,0.6,10.9-0.1c0.7-0.1,1.1-0.9,0.9-1.5c-0.3-1.2-0.6-2.3-1-3.4c-0.3-0.7-0.5-1.5-0.9-2.2c0,0,0,0-0.1-0.1
		c4.7-1.4,8.4-4.8,10.2-9.3c1.6,0.3,3.1,0.4,4.5,1.2c0.6,0.3,1.5,0.2,1.8-0.5c1.7-3.5,2.2-7.3,2.2-11.1
		C46.2,18.2,45.6,17.7,44.9,17.7z M25.9,26.6c-2.1,1.1-5.3-0.8-5.9-2.9c-0.4-1.4,0.2-2.6,1.2-3.6c0.2,0,0.4,0.1,0.7,0
		c0.5-0.1,0.9-0.4,1.2-0.7c0.3-0.1,0.5-0.4,0.7-0.6c2.1,0.4,3.8,1.2,4.3,3.4C28.4,24,27.5,25.8,25.9,26.6z"/>
	<path class="st0" d="M81.8,48.8c-1.9-3.7-4-7.3-5.7-11.1c-0.3-0.7-1.3-0.7-1.9-0.3c-0.3-0.2-0.8-0.3-1.2-0.1
		c-1.6,0.8-3,2.5-4.1,4.1c-1.1-1.2-2.4-2.2-3.7-3.1c1-1.5,1.4-3.8,1.9-5.1c0.2-0.5-0.1-1.2-0.6-1.4c-4-1.9-8.1-3.6-12.5-3.7
		c-0.5-0.3-1-0.2-1.5,0.1c-0.2,0-0.4,0-0.6,0c-0.5,0.1-1.1,0.3-1.2,0.9c-0.4,2.2-0.4,4.3,0.4,6.1c-1.8,0.4-3.5,1.1-5.3,2.1
		c-0.7-0.7-1.5-1.3-1.9-2.3c-0.3-0.6-1.1-0.8-1.7-0.5c-0.4-0.1-0.9-0.1-1.3,0.1c-3.4,1.4-6.5,3.8-9.1,6.4c-0.5,0.5-0.5,1.2-0.2,1.7
		c0.2,0.4,0.4,0.7,0.7,1.1c0.1,0.2,0.2,0.5,0.5,0.6c0.6,0.7,1.2,1.3,2,1.7c0.3,0.3,0.6,0.6,0.9,0.9c-1.6,2.6-2.5,5.6-2.8,8.7
		c-0.2-0.1-0.3-0.1-0.5-0.1c-2-0.2-4.1,0-6.2,0.4c-0.7,0.1-1.2,1-1,1.7c1.4,4.8,2.7,9.6,3.5,14.6c0.1,0.9,1.3,1.2,2,0.8
		c1.9-1.2,4-2.2,5.7-3.6c1.7,2.6,3.9,4.6,6.2,6c-1,1.2-1.5,2.7-1.9,4.4c-0.2,0.7,0.2,1.3,0.9,1.5c4.2,1.4,8.5,2.1,12.9,2.2
		c0.7,0,1.3-0.6,1.3-1.3c0.1-1.4,0.2-2.8,0.3-4.1c2.9-0.4,5.9-1.3,8.8-2.7c0.8,2.3,2.5,4,5.4,4.6c0.8,0.2,1.4-0.2,1.7-0.9
		c1.4-4,3.4-7.7,6.7-10.5c0.5-0.4,0.5-1.2,0.2-1.7c0.5-0.8,0-1.7-0.8-1.9c-0.9-0.3-1.7-0.7-2.5-1.1c1-3.3,0.9-6.9,0.1-10.3
		c1.8-0.9,3.7-1.9,5.6-2.8C82,50.3,82.2,49.5,81.8,48.8z M57.3,63.3c-3.5,1.4-8.4-1.6-8.5-5.3c-0.1-3.3,3.3-6.5,6.5-7.1
		c2.8,1,4.8,2.7,5.2,5.8C60.9,59.2,59.9,62.3,57.3,63.3z M69.9,67.5c0.6-0.6,1.1-1.2,1.6-1.9c-0.9,1.8-2.3,3.4-4,4.9
		C68.3,69.6,69.1,68.5,69.9,67.5z M67.4,74.1L67.4,74.1c0.2,0.1,0.3,0.2,0.5,0.3c0.1,0.2,0.3,0.3,0.6,0.3c0.3,0.1,0.7,0.1,1.1,0.2
		l0,0c-0.1,0.2-0.3,0.4-0.4,0.6C68.6,75,68,74.5,67.4,74.1z"/>
</g>
</svg>
