<?xml version="1.0" encoding="utf-8"?>
<!-- Generator: Adobe Illustrator 21.0.0, SVG Export Plug-In . SVG Version: 6.00 Build 0)  -->
<svg version="1.1" id="Calque_1" xmlns="http://www.w3.org/2000/svg" xmlns:xlink="http://www.w3.org/1999/xlink" x="0px" y="0px"
	 viewBox="0 0 38.3 774" style="enable-background:new 0 0 38.3 774;" xml:space="preserve">
<style type="text/css">
	.st0{fill:#D3D3D3;}
	.st1{fill:none;stroke:#D3D3D3;stroke-width:3;stroke-miterlimit:10;}
	.st2{fill:#EEEBEB;}
</style>
<path class="st0" d="M25.4,502.3c0.4-0.4,0.9-0.7,1.4-0.7s1,0.1,1.4,0.3c0.4,0.2,0.7,0.6,0.9,1.1c0.2,0.5,0.2,1,0,1.6
	c-0.2,0.4-0.4,0.8-0.6,1.2c-0.3,0.4-0.5,0.7-0.8,1.1c-0.8,1.2-1.6,2.4-2.5,3.5s-1.8,2.2-2.7,3.3c0.2,0.2,0.5,0.6,0.9,1.1
	s0.8,1,1.2,1.6c0.5,0.6,0.9,1.2,1.4,1.8s0.9,1.3,1.3,1.9c0.4,0.6,0.8,1.2,1.1,1.7c0.3,0.5,0.5,1,0.6,1.3c0.2,0.6,0.2,1.1,0,1.6
	s-0.5,0.9-0.8,1.1c-0.4,0.3-0.8,0.4-1.3,0.4s-1-0.2-1.4-0.6c-0.4-0.3-0.7-0.8-1-1.4c-0.3-0.6-0.6-1.1-0.9-1.6
	c-0.6-0.9-1.2-1.8-1.9-2.7c-0.7-0.9-1.3-1.7-2.1-2.6c-0.7,0.9-1.4,1.7-2.1,2.5s-1.4,1.6-2.1,2.4c-0.2,0.2-0.4,0.5-0.7,0.9
	s-0.6,0.7-0.9,1.1c-0.3,0.4-0.6,0.7-1,1c-0.3,0.3-0.6,0.5-0.9,0.6c-0.5,0.2-0.9,0.2-1.4,0.1c-0.4-0.1-0.8-0.3-1.1-0.6
	s-0.5-0.7-0.6-1.1c-0.1-0.4-0.1-0.9,0.1-1.4c0.2-0.5,0.5-0.9,0.9-1.3c0.4-0.4,0.7-0.7,1.1-1.1c1-1.1,2-2.3,2.9-3.4
	c1-1.1,2-2.3,2.9-3.5c-0.9-1.1-1.7-2.2-2.6-3.2c-0.9-1.1-1.8-2.1-2.8-3.1c-0.1-0.1-0.3-0.2-0.5-0.4c-0.2-0.2-0.4-0.3-0.6-0.5
	c-0.2-0.2-0.4-0.4-0.6-0.6c-0.2-0.2-0.4-0.4-0.5-0.6c-0.2-0.5-0.3-0.9-0.3-1.4c0.1-0.5,0.3-0.9,0.6-1.3s0.7-0.6,1.2-0.7s1,0,1.5,0.3
	c0.4,0.3,0.8,0.6,1.1,0.9s0.7,0.7,1,1c1,1,1.9,1.9,2.8,2.9s1.7,2.1,2.6,3.1c0.3-0.4,0.7-0.8,1-1.2c0.3-0.4,0.7-0.8,1-1.2
	c0.7-0.9,1.3-1.8,1.9-2.6C24.2,504.1,24.8,503.2,25.4,502.3z"/>
<path class="st0" d="M9.9,746.7c1.5,1.5,3,2.9,4.6,4.3c1.5,1.4,3,2.8,4.5,4.3c1-0.9,2-1.8,2.9-2.6c1-0.9,1.9-1.8,2.9-2.7
	c0.2-0.2,0.5-0.5,0.8-0.9c0.3-0.3,0.7-0.7,1.1-1c0.4-0.4,0.8-0.7,1.2-1c0.4-0.3,0.8-0.6,1.3-0.7c0.8-0.3,1.6-0.4,2.4-0.4
	s1.6,0.2,2.2,0.5c0.7,0.3,1.2,0.7,1.5,1.2s0.4,1.1,0.2,1.8c-0.2,0.6-0.6,1.1-1.2,1.7c-0.6,0.5-1.2,1-1.7,1.5
	c-0.8,0.7-1.6,1.5-2.4,2.2s-1.7,1.5-2.5,2.2c-0.5,0.5-0.9,0.8-1.2,1c-0.2,0.2-0.4,0.4-0.6,0.6c-0.2,0.2-0.4,0.4-0.7,0.7
	c-0.3,0.3-0.7,0.6-1.3,1.2c-0.6,0.6-1.3,1.2-1.9,1.7s-1.5,0.8-2.6,1c-0.8,0.1-1.5,0-2.1-0.2c-0.7-0.3-1.2-0.6-1.8-1
	c-0.5-0.4-1-0.9-1.4-1.3c-0.4-0.5-0.8-0.9-1.2-1.2c-1.2-1.1-2.4-2.3-3.5-3.4c-1.2-1.1-2.4-2.2-3.5-3.4c-0.5-0.5-1-1-1.6-1.5
	s-1-1-1.2-1.6c-0.3-0.8-0.3-1.5,0-2.1s0.8-1,1.5-1.3s1.5-0.4,2.4-0.4s1.8,0.3,2.8,0.7L9.9,746.7z"/>
<line class="st1" x1="19.1" y1="536.6" x2="19.1" y2="741.7"/>
<ellipse class="st2" cx="19.1" cy="771.1" rx="13.3" ry="2.3"/>
<g>
	<path class="st0" d="M25.1,441.9c0,0.5-0.3,0.8-0.8,0.8s-0.8-0.3-0.8-0.8l-0.1-0.9v-1.1c0.2-2.1,1.4-3,5.1-2.8
		c3.5,0.2,7.5,1.3,8.7,3.6c1.6,2.8-1.1,5.9-8,7.3c-6.1,1.2-15.1,1.6-20.8,0.5c-3.4-0.6-5.6-1.7-6.6-3.1c-1.4-2.3-1-4.3,0.6-5.7
		c1.4-1.4,3.6-1.9,5.7-1.2c1,0.4,0.4,2-0.7,1.5c-1.3-0.5-2.9-0.1-3.9,0.9c-2.4,2.1-0.9,4.8,5.1,6c5.7,1,14.2,0.8,20.2-0.5
		c3.1-0.6,5.1-1.4,6-2.4c1.9-2,1-3.4-2-4.5c-2.8-0.9-6.5-1-7.5-0.5c-0.5,0.3-0.5,1.2-0.4,1.9v1L25.1,441.9L25.1,441.9z"/>
	<path class="st0" d="M18.5,429c0.1,0.2,0.4,0,0.4,0c3.1-1.9,5.7-2.9,11.3-5.1c2-0.8,3.6-1.5,4.8-2.1c1-0.5,1.8,1,0.8,1.5
		c-1.2,0.6-2.9,1.4-5,2.2c-6.9,2.7-10.5,4.3-11.4,5.2c-0.1,0.1-0.1,0.1-0.2,0.2c0.4,0.1,1.2,0.2,1.8,0.2c1,0.1,2,0.1,3,0.1
		c0.5,0,1.4,0.1,2.8,0.1c2.8,0.2,3.6,0.2,5.8,0.2c1.1,0,2.1-0.1,3-0.1c0.5-0.1,0.9,0.3,0.9,0.8c0.1,0.5-0.3,0.9-0.8,0.9
		c-0.9,0.1-1.9,0.2-3.1,0.2c-2.3,0-3.2,0-6-0.2c-1.4-0.1-2.3-0.1-2.8-0.2c-7.9-0.3-14.8-0.2-20.6,0.2c-0.5,0.1-0.9,0.3-1.4,0.2
		c-0.1-0.1-0.2-0.1-0.3-0.1c-0.2-0.1-0.3-0.2-0.4-0.5c-1.1-4.6,0.1-8.1,2.9-10.1c2.6-2,6.7-1.9,9.9,0.8c2,1.6,3.5,3.5,4.4,5.6
		L18.5,429z M16.9,429.6c-0.2-0.4-0.2-0.5-0.3-0.8c-1.7-3.5-5-5.8-7.8-6c-1.4-0.1-2.7,0.3-3.6,1c-1.9,1.2-2.9,3.5-2.7,6.4
		c0.1,0.7,0.6,1,1.3,1c3.4-0.3,7.5-0.4,12.1-0.3c0.9,0,1.2-0.2,1.2-0.5C17.1,430,16.9,429.6,16.9,429.6z"/>
	<path class="st0" d="M12.5,406.4c10.2-0.5,15.5-0.1,19.3,0.9c2.5,0.6,4.1,1.6,4.9,2.9c1.1,1.7,0.6,3.3-0.8,4.5
		c-1.1,0.9-2.8,1.7-5.2,2.4c-5.1,1.4-19.1,3.8-26.5,0.1c-1.6-0.9-3.1-2.7-3.5-4.3c-0.6-2.8,1.1-4.6,3.8-5.6
		C5.5,407,7.3,406.6,12.5,406.4z M9.8,408.1c-1.8,0.1-3.4,0.3-4.6,0.8c-2.1,0.7-3.2,1.9-2.8,3.6c0.2,1.2,1.4,2.5,2.7,3.2
		c6.8,3.5,20.1,1.3,25.2-0.2c2.1-0.6,3.7-1.3,4.6-2c0.9-0.8,1-1.4,0.5-2.3c-1.2-1.9-5.4-2.9-11-3.2C21.4,407.8,17,407.9,9.8,408.1z"
		/>
	<path class="st0" d="M2.4,401.6c3,0.3,7.5,0.3,13.5,0c6.2-0.3,10.8-0.3,13.7-0.2c2.3,0.1,3.9,0,4.9-0.3c1.3-0.5,2-1.3,1.7-2.9
		c-0.3-1.9-1.6-2.8-3.9-3.5c-1.3-0.4-3.1-0.6-4.3-0.6c-0.6,0-1.4,0-2.4,0c-1,0.1-1.8,0.1-2.3,0.1c-0.9,0-3.2-0.1-7.2-0.1
		c-3.9-0.1-6.3-0.1-7.2,0c-0.6,0.1-1.6,0.1-3.1,0.3c-1.3,0.1-2.4,0.2-3.2,0.2c-0.5,0-0.8-0.3-0.8-0.8s0.3-0.8,0.8-0.8
		c0.8,0,1.7-0.1,3.1-0.2c1.5-0.2,2.5-0.2,3.1-0.2c0.9-0.1,3.2-0.1,7.2-0.1c4,0.1,6.4,0.2,7.3,0.2c0.3,0,1,0,2.1-0.1
		c2.2-0.1,3.1-0.1,4.9,0.1c1.9,0.2,4,0.8,5.8,2.1c1.8,1.4,2.2,4.7,1,6.4c-0.5,0.8-1.3,1.3-2.3,1.6c-1.2,0.4-3,0.5-5.5,0.3
		c-2.7-0.1-7.2-0.1-13.5,0.2c-6,0.3-10.6,0.2-13.7-0.1c-0.5,0-0.8-0.4-0.8-0.9C1.5,401.9,1.9,401.5,2.4,401.6z"/>
	<path class="st0" d="M18.4,385.5c0.3,0.5,0.5,0.8,0.6,1.1c0.3,0.6,0.2,1,0.9,0.9l6.1-0.4c4.1-0.3,7.3-0.4,9.5-0.4
		c0.5,0,0.8,0.3,0.8,0.8s-0.3,0.8-0.8,0.8c-2.3,0-5.5,0.1-9.6,0.4s-6.8,0.5-8,0.5c-1.7,0.1-7.1-0.2-7.6-0.2
		c-3.2-0.1-5.6,0.2-6.9,0.7c0,0.1,0,0.1-0.1,0.1c-0.2,0.4-0.7,0.5-1.2,0.2c-0.2-0.1-0.3-0.3-0.3-0.5c-0.7-2.7,0.2-5.5,2.1-7.3
		s4.3-2.9,7-2.7c1.4,0.1,2.7,0.6,3.8,1.3c0.9,0.5,1.5,1.3,2.1,2.2c0.3,0.5,0.6,0.9,0.8,1.2L18.4,385.5z M17.6,387.5
		c-0.1-0.1-0.2-0.2-0.4-0.7c-0.1-0.2-0.2-0.4-0.3-0.6c-0.6-1.1-0.9-1.4-1.4-2.3c-0.6-0.8-1.1-1.3-1.7-1.8c-2.3-1.6-5-1.3-7.1-0.1
		c-1.7,0.9-3.1,2.7-3.4,4.7c-0.1,0.8,0.5,1.2,1.3,1c1.4-0.3,3.4-0.4,5.7-0.3c0.3,0,1.7,0.1,4,0.2c0.7,0,1.3,0.1,1.9,0.1
		C17,387.7,17.7,387.6,17.6,387.5z"/>
	<path class="st0" d="M2.2,373.7c0.1,0.1,0.1,0.1,0.1,0.1s0.3,0.1,0.8,0.2c0.1,0,0.2,0.1,0.4,0.1c1.8,0.2,4.2,0.1,7.2-0.2
		c2.7-0.2,2.5-0.3,4.9-0.2c1.2,0.1,1.3-0.3,1.3-1.2c0-0.7,0-1.3-0.1-1.8s0.3-0.9,0.8-0.9s0.9,0.3,0.9,0.8c0.1,0.6,0.1,1.2,0.1,2
		s0,1.2,1.2,1.2c5.7,0.3,10.2,0.3,13.4,0.1c1-0.1,1.7-0.2,2.3-0.3c0.1,0,0.2-0.1,0.3-0.1c0.1-0.1-0.3-0.1-0.5-0.1
		c0.6,0,1-0.2,1.1-0.9c0.2-1.3,0-2.9-0.1-4.6c-0.1-0.9-0.1-1.5-0.1-1.9c0-0.5,0.3-0.8,0.8-0.8s0.8,0.3,0.8,0.8
		c0,0.8,0.2,3.2,0.3,3.9c0.1,1.9-0.1,3.3-0.5,4.2c-0.2,0.6-0.9,0.9-1.7,1c-0.6,0.2-1.4,0.3-2.5,0.3c-3.5,0.2-8.6,0.1-12.4-0.1
		c-1.9-0.1-3.5-0.2-4.8-0.2c-2.5-0.1-2.3-0.1-5.1,0.2c-3.1,0.2-5.6,0.4-7.5,0.2c-1.2-0.2-2.1-0.4-2.6-1.1c-0.2-0.4-0.3-1.1-0.3-1.9
		c0-0.4,0-1.3,0.1-2.8c0.1-2.8,0.1-4.3,0.1-4.6c-0.1-0.5,0.3-0.9,0.8-0.9c0.2,0,0.5,0.1,0.6,0.2c0.4,0.3,0.3,0.8,0.3,1.3
		c0,0.8,0,2.1-0.1,4c-0.1,1.4-0.1,2.3-0.1,2.7c0,0.4,0,0.7,0.1,0.9v0.4L2.2,373.7L2.2,373.7z"/>
	<path class="st0" d="M1.7,342.3c0.1-2.5,1.3-4,3.5-5.8c4.2-3.5,9.5-4.6,16.1-3.3c5.5,1.1,11,3.9,15,7.3c0.2,0.2,0.3,0.3,0.3,0.5
		c0.1,0.5,0.2,0.7,0.1,1.3c0,0.1-0.1,0.3-0.2,0.4c-0.2,0.2-0.3,0.3-0.6,0.3c-4.5,0.4-10.1,0.6-16.8,0.5c-1.2,0-3.8-0.1-7.6-0.2
		c-3.9-0.1-6.9-0.1-9-0.1l0,0C2.1,343.2,1.7,342.8,1.7,342.3L1.7,342.3z M32.9,339.9c-8.3-5.7-19.6-8-26.7-2.2
		c-1,0.9-1.8,1.7-2.3,2.5s-0.6,1.3,0.9,1.3c1.8,0,4.1,0.1,6.9,0.1c3.6,0.1,6.1,0.1,7.4,0.1c5.1,0.1,9.5-0.1,13.2-0.2
		C34,341.5,33.9,340.6,32.9,339.9z"/>
	<path class="st0" d="M2.2,326.9c0.1,0.1,0.1,0.1,0.1,0.1s0.3,0.1,0.8,0.2c0.1,0,0.2,0.1,0.4,0.1c1.8,0.2,4.2,0.1,7.2-0.2
		c2.7-0.2,2.5-0.3,4.9-0.2c1.2,0.1,1.3-0.3,1.3-1.2c0-0.7,0-1.3-0.1-1.8s0.3-0.9,0.8-0.9s0.9,0.3,0.9,0.8c0.1,0.6,0.1,1.2,0.1,2
		s0,1.2,1.2,1.2c5.7,0.3,10.2,0.3,13.4,0.1c1-0.1,1.7-0.2,2.3-0.3c0.1,0,0.2-0.1,0.3-0.1c0.1-0.1-0.3-0.1-0.5-0.1
		c0.6,0,1-0.2,1.1-0.9c0.2-1.3,0-2.9-0.1-4.6c-0.1-0.9-0.1-1.5-0.1-1.9c0-0.5,0.3-0.8,0.8-0.8s0.8,0.3,0.8,0.8
		c0,0.8,0.2,3.2,0.3,3.9c0.1,1.9-0.1,3.3-0.5,4.2c-0.2,0.6-0.9,0.9-1.7,1c-0.6,0.2-1.4,0.3-2.5,0.3c-3.5,0.2-8.6,0.1-12.4-0.1
		c-1.9-0.1-3.5-0.2-4.8-0.2c-2.5-0.1-2.3-0.1-5.1,0.2c-3.1,0.2-5.6,0.4-7.5,0.2c-1.2-0.2-2.1-0.4-2.6-1.1c-0.2-0.4-0.3-1.1-0.3-1.9
		c0-0.4,0-1.3,0.1-2.8c0.1-2.8,0.1-4.3,0.1-4.6c-0.1-0.5,0.3-0.9,0.8-0.9c0.2,0,0.5,0.1,0.6,0.2c0.4,0.3,0.3,0.8,0.3,1.3
		c0,0.8,0,2.1-0.1,4c-0.1,1.4-0.1,2.3-0.1,2.7c0,0.4,0,0.7,0.1,0.9v0.4L2.2,326.9L2.2,326.9z"/>
	<path class="st0" d="M18.5,292.3c0.1,0.2,0.4,0,0.4,0c3.1-1.9,5.7-2.9,11.3-5.1c2-0.8,3.6-1.5,4.8-2.1c1-0.5,1.8,1,0.8,1.5
		c-1.2,0.6-2.9,1.4-5,2.2c-6.9,2.7-10.5,4.3-11.4,5.2c-0.1,0.1-0.1,0.1-0.2,0.2c0.4,0.1,1.2,0.2,1.8,0.2c1,0.1,2,0.1,3,0.1
		c0.5,0,1.4,0.1,2.8,0.1c2.8,0.2,3.6,0.2,5.8,0.2c1.1,0,2.1-0.1,3-0.1c0.5-0.1,0.9,0.3,0.9,0.8c0.1,0.5-0.3,0.9-0.8,0.9
		c-0.9,0.1-1.9,0.2-3.1,0.2c-2.3,0-3.2,0-6-0.2c-1.4-0.1-2.3-0.1-2.8-0.2c-7.9-0.3-14.8-0.2-20.6,0.2c-0.5,0.1-0.9,0.3-1.4,0.2
		c-0.1-0.1-0.2-0.1-0.3-0.1c-0.2-0.1-0.3-0.2-0.4-0.5c-1.1-4.6,0.1-8.1,2.9-10.1c2.6-2,6.7-1.9,9.9,0.8c2,1.6,3.5,3.5,4.4,5.6
		L18.5,292.3z M16.9,292.9c-0.2-0.4-0.2-0.5-0.3-0.8c-1.7-3.5-5-5.8-7.8-6c-1.4-0.1-2.7,0.3-3.6,1c-1.9,1.2-2.9,3.5-2.7,6.4
		c0.1,0.7,0.6,1,1.3,1c3.4-0.3,7.5-0.4,12.1-0.3c0.9,0,1.2-0.2,1.2-0.5C17.1,293.3,16.9,292.9,16.9,292.9z"/>
	<path class="st0" d="M2.2,278.7c0.1,0.1,0.1,0.1,0.1,0.1s0.3,0.1,0.8,0.2c0.1,0,0.2,0.1,0.4,0.1c1.8,0.2,4.2,0.1,7.2-0.2
		c2.7-0.2,2.5-0.3,4.9-0.2c1.2,0.1,1.3-0.3,1.3-1.2c0-0.7,0-1.3-0.1-1.8s0.3-0.9,0.8-0.9s0.9,0.3,0.9,0.8c0.1,0.6,0.1,1.2,0.1,2
		s0,1.2,1.2,1.2c5.7,0.3,10.2,0.3,13.4,0.1c1-0.1,1.7-0.2,2.3-0.3c0.1,0,0.2-0.1,0.3-0.1c0.1-0.1-0.3-0.1-0.5-0.1
		c0.6,0,1-0.2,1.1-0.9c0.2-1.3,0-2.9-0.1-4.6c-0.1-0.9-0.1-1.5-0.1-1.9c0-0.5,0.3-0.8,0.8-0.8s0.8,0.3,0.8,0.8
		c0,0.8,0.2,3.2,0.3,3.9c0.1,1.9-0.1,3.3-0.5,4.2c-0.2,0.6-0.9,0.9-1.7,1c-0.6,0.2-1.4,0.3-2.5,0.3c-3.5,0.2-8.6,0.1-12.4-0.1
		c-1.9-0.1-3.5-0.2-4.8-0.2c-2.5-0.1-2.3-0.1-5.1,0.2c-3.1,0.2-5.6,0.4-7.5,0.2c-1.2-0.2-2.1-0.4-2.6-1.1c-0.2-0.4-0.3-1.1-0.3-1.9
		c0-0.4,0-1.3,0.1-2.8c0.1-2.8,0.1-4.3,0.1-4.6c-0.1-0.5,0.3-0.9,0.8-0.9c0.2,0,0.5,0.1,0.6,0.2c0.4,0.3,0.3,0.8,0.3,1.3
		c0,0.8,0,2.1-0.1,4c-0.1,1.4-0.1,2.3-0.1,2.7c0,0.4,0,0.7,0.1,0.9v0.4L2.2,278.7L2.2,278.7z"/>
	<path class="st0" d="M9.1,255c-2.7,0-4.6,0.5-5.7,1.3c-1.7,1.3-1.1,3.7,2,5.7c1.6,1,3.5,1.6,5.8,1.9c8.3,0.9,17.2,1.3,21.1-0.2
		c2.5-1.1,3.6-2.8,3.4-4.3c-0.2-1.5-1.7-2.8-4.5-3.2c-0.5-0.1-0.8-0.5-0.7-0.9c0.1-0.5,0.5-0.8,0.9-0.7c3.3,0.5,5.6,2.3,5.9,4.7
		c0.4,2.4-1.3,4.7-4.5,6c-4.2,1.8-13.3,1.3-21.9,0.3c-5-0.5-9.1-3.2-9.9-6.3c-1-3.4,2.1-5.9,8.1-5.9c0.5,0,0.8,0.3,0.8,0.8
		C9.9,254.6,9.6,255,9.1,255z"/>
	<path class="st0" d="M18.3,246.2c0,0.8,0.1,1.2,1.2,1.1c1.2-0.1,2.8-0.1,4.5-0.2c4.9-0.2,8.8-0.2,12.3-0.2c0.5,0,0.8,0.3,0.8,0.8
		s-0.3,0.8-0.8,0.8c-2.5,0-6,0.1-10.5,0.2c-9.1,0.3-9.3,0.4-15.8,0.2c-3-0.1-5.3-0.1-6.9-0.1c-0.5,0.1-0.9-0.3-0.9-0.8
		s0.3-0.9,0.8-0.9c1.7-0.1,4-0.1,7.1,0.1c2.3,0.1,4.2,0.1,5.5,0.1c1.1,0,1.2-0.4,1.2-1.2V240c0-0.8-0.2-1.2-1.2-1.2
		c-2-0.1-3.4-0.1-4.3-0.1s-3.2-0.1-4.2-0.1s-2.6,0.2-3.7,0.6c-1.1,0.3-1.6-1.2-0.6-1.6c1.3-0.4,3.1-0.6,4.3-0.6c0.6,0,1.4,0,2.3,0.1
		c0.9,0.1,1.6,0.1,2,0.1c1.1,0,3.2,0.1,6.1,0.1c2.9,0.1,5.1,0.2,6.6,0.2c5.7,0.1,9.8-0.1,12-0.7c0.4-0.1,0.9,0.2,1,0.6
		c0.1,0.5-0.2,1-0.6,1c-2.4,0.6-6.5,0.9-12.4,0.8c-1.2-0.1-2.7-0.1-4.5-0.1c-1.2,0-1.2,0.4-1.2,1.2v5.9H18.3z"/>
	<path class="st0" d="M2.2,231c0.1,0.1,0.1,0.1,0.1,0.1s0.3,0.1,0.8,0.2c0.1,0,0.2,0.1,0.4,0.1c1.8,0.2,4.2,0.1,7.2-0.2
		c2.7-0.2,2.5-0.3,4.9-0.2c1.2,0.1,1.3-0.3,1.3-1.2c0-0.7,0-1.3-0.1-1.8s0.3-0.9,0.8-0.9s0.9,0.3,0.9,0.8c0.1,0.6,0.1,1.2,0.1,2
		s0,1.2,1.2,1.2c5.7,0.3,10.2,0.3,13.4,0.1c1-0.1,1.7-0.2,2.3-0.3c0.1,0,0.2-0.1,0.3-0.1c0.1-0.1-0.3-0.1-0.5-0.1
		c0.6,0,1-0.2,1.1-0.9c0.2-1.3,0-2.9-0.1-4.6c-0.1-0.9-0.1-1.5-0.1-1.9c0-0.5,0.3-0.8,0.8-0.8s0.8,0.3,0.8,0.8
		c0,0.8,0.2,3.2,0.3,3.9c0.1,1.9-0.1,3.3-0.5,4.2c-0.2,0.6-0.9,0.9-1.7,1c-0.6,0.2-1.4,0.3-2.5,0.3c-3.5,0.2-8.6,0.1-12.4-0.1
		c-1.9-0.1-3.5-0.2-4.8-0.2c-2.5-0.1-2.3-0.1-5.1,0.2c-3.1,0.2-5.6,0.4-7.5,0.2c-1.2-0.2-2.1-0.4-2.6-1.1c-0.2-0.4-0.3-1.1-0.3-1.9
		c0-0.4,0-1.3,0.1-2.8c0.1-2.8,0.1-4.3,0.1-4.6c-0.1-0.5,0.3-0.9,0.8-0.9c0.2,0,0.5,0.1,0.6,0.2c0.4,0.3,0.3,0.8,0.3,1.3
		c0,0.8,0,2.1-0.1,4c-0.1,1.4-0.1,2.3-0.1,2.7s0,0.7,0.1,0.9v0.4L2.2,231L2.2,231z"/>
	<path class="st0" d="M18.5,213.7c0.1,0.2,0.4,0,0.4,0c3.1-1.9,5.7-2.9,11.3-5.1c2-0.8,3.6-1.5,4.8-2.1c1-0.5,1.8,1,0.8,1.5
		c-1.2,0.6-2.9,1.4-5,2.2c-6.9,2.7-10.5,4.3-11.4,5.2c-0.1,0.1-0.1,0.1-0.2,0.2c0.4,0.1,1.2,0.2,1.8,0.2c1,0.1,2,0.1,3,0.1
		c0.5,0,1.4,0.1,2.8,0.1c2.8,0.2,3.6,0.2,5.8,0.2c1.1,0,2.1-0.1,3-0.1c0.5-0.1,0.9,0.3,0.9,0.8c0.1,0.5-0.3,0.9-0.8,0.9
		c-0.9,0.1-1.9,0.2-3.1,0.2c-2.3,0-3.2,0-6-0.2c-1.4-0.1-2.3-0.1-2.8-0.2c-7.9-0.3-14.8-0.2-20.6,0.2c-0.5,0.1-0.9,0.3-1.4,0.2
		c-0.1-0.1-0.2-0.1-0.3-0.1c-0.2-0.1-0.3-0.2-0.4-0.5c-1.1-4.6,0.1-8.1,2.9-10.1c2.6-2,6.7-1.9,9.9,0.8c2,1.6,3.5,3.5,4.4,5.6
		L18.5,213.7z M16.9,214.4c-0.2-0.4-0.2-0.5-0.3-0.8c-1.7-3.5-5-5.8-7.8-6c-1.4-0.1-2.7,0.3-3.6,1c-1.9,1.2-2.9,3.5-2.7,6.4
		c0.1,0.7,0.6,1,1.3,1c3.4-0.3,7.5-0.4,12.1-0.3c0.9,0,1.2-0.2,1.2-0.5C17.1,214.8,16.9,214.4,16.9,214.4z"/>
	<path class="st0" d="M9.1,191.4c-2.7,0-4.6,0.5-5.7,1.3c-1.7,1.3-1.1,3.7,2,5.7c1.6,1,3.5,1.6,5.8,1.9c8.3,0.9,17.2,1.3,21.1-0.2
		c2.5-1.1,3.6-2.8,3.4-4.3c-0.2-1.5-1.7-2.8-4.5-3.2c-0.5-0.1-0.8-0.5-0.7-0.9c0.1-0.5,0.5-0.8,0.9-0.7c3.3,0.5,5.6,2.3,5.9,4.7
		c0.4,2.4-1.3,4.7-4.5,6c-4.2,1.8-13.3,1.3-21.9,0.3c-5-0.5-9.1-3.2-9.9-6.3c-1-3.4,2.1-5.9,8.1-5.9c0.5,0,0.8,0.3,0.8,0.8
		C9.9,191.1,9.6,191.4,9.1,191.4z"/>
	<path class="st0" d="M18.3,182.6c0,0.8,0.1,1.2,1.2,1.1c1.2-0.1,2.8-0.1,4.5-0.2c4.9-0.2,8.8-0.2,12.3-0.2c0.5,0,0.8,0.3,0.8,0.8
		s-0.3,0.8-0.8,0.8c-2.5,0-6,0.1-10.5,0.2c-9.1,0.3-9.3,0.4-15.8,0.2c-3-0.1-5.3-0.1-6.9-0.1c-0.5,0.1-0.9-0.3-0.9-0.8
		s0.3-0.9,0.8-0.9c1.7-0.1,4-0.1,7.1,0.1c2.3,0.1,4.2,0.1,5.5,0.1c1.1,0,1.2-0.4,1.2-1.2v-6.1c0-0.8-0.2-1.2-1.2-1.2
		c-2-0.1-3.4-0.1-4.3-0.1S8.1,175,7.1,175s-2.6,0.2-3.7,0.6c-1.1,0.3-1.6-1.2-0.6-1.6c1.3-0.4,3.1-0.6,4.3-0.6c0.6,0,1.4,0,2.3,0.1
		s1.6,0.1,2,0.1c1.1,0,3.2,0.1,6.1,0.1c2.9,0.1,5.1,0.2,6.6,0.2c5.7,0.1,9.8-0.1,12-0.7c0.4-0.1,0.9,0.2,1,0.6c0.1,0.5-0.2,1-0.6,1
		c-2.4,0.6-6.5,0.9-12.4,0.8c-1.2-0.1-2.7-0.1-4.5-0.1c-1.2,0-1.2,0.4-1.2,1.2v5.9H18.3z"/>
	<path class="st0" d="M2.2,167.5c0.1,0.1,0.1,0.1,0.1,0.1s0.3,0.1,0.8,0.2c0.1,0,0.2,0.1,0.4,0.1c1.8,0.2,4.2,0.1,7.2-0.2
		c2.7-0.2,2.5-0.3,4.9-0.2c1.2,0.1,1.3-0.3,1.3-1.2c0-0.7,0-1.3-0.1-1.8s0.3-0.9,0.8-0.9s0.9,0.3,0.9,0.8c0.1,0.6,0.1,1.2,0.1,2
		s0,1.2,1.2,1.2c5.7,0.3,10.2,0.3,13.4,0.1c1-0.1,1.7-0.2,2.3-0.3c0.1,0,0.2-0.1,0.3-0.1c0.1-0.1-0.3-0.1-0.5-0.1
		c0.6,0,1-0.2,1.1-0.9c0.2-1.3,0-2.9-0.1-4.6c-0.1-0.9-0.1-1.5-0.1-1.9c0-0.5,0.3-0.8,0.8-0.8s0.8,0.3,0.8,0.8
		c0,0.8,0.2,3.2,0.3,3.9c0.1,1.9-0.1,3.3-0.5,4.2c-0.2,0.6-0.9,0.9-1.7,1c-0.6,0.2-1.4,0.3-2.5,0.3c-3.5,0.2-8.6,0.1-12.4-0.1
		c-1.9-0.1-3.5-0.2-4.8-0.2c-2.5-0.1-2.3-0.1-5.1,0.2c-3.1,0.2-5.6,0.4-7.5,0.2c-1.2-0.2-2.1-0.4-2.6-1.1c-0.2-0.4-0.3-1.1-0.3-1.9
		c0-0.4,0-1.3,0.1-2.8c0.1-2.8,0.1-4.3,0.1-4.6c-0.1-0.5,0.3-0.9,0.8-0.9c0.2,0,0.5,0.1,0.6,0.2c0.4,0.3,0.3,0.8,0.3,1.3
		c0,0.8,0,2.1-0.1,4c-0.1,1.4-0.1,2.3-0.1,2.7s0,0.7,0.1,0.9v0.4L2.2,167.5L2.2,167.5z"/>
	<path class="st0" d="M36.5,138.6c-0.9-0.1-3.4-0.3-7.3-0.6c-14.1-1.1-16.4-1.2-21.5-2.3c-3.1-0.6-5.3-1.4-5.9-2.5
		c-1.2-2.4,0.3-3.8,2.7-4.5c1.2-0.4,2.5-0.6,4-0.8c0.8-0.1,1.2-0.1,1.2-0.1c9.1-1.3,18.2-1.9,27.1-1.9c0.5,0,0.8,0.3,0.8,0.8
		s-0.3,0.8-0.8,0.8c-5.6,0-11.2,0.2-16.8,0.8c-0.7,0.1-1.1,0.5-1.1,1.2c-0.2,1.7-0.2,3.4-0.3,5c-0.1,0.7,0.3,1.2,1,1.2
		c1.7,0.1,5,0.4,9.7,0.8c4,0.3,6.5,0.5,7.5,0.7c0.5,0.1,0.8,0.5,0.7,0.9C37.4,138.4,37,138.7,36.5,138.6z M16.9,134.1
		c0.1-1.4,0.1-2.8,0.2-4.3c0.1-0.9,0.1-1.3-1.2-1.2c-2,0.1-4,0.5-7.3,0.9c-1.4,0.2-2.7,0.3-3.6,0.6c-1.4,0.4-2,0.9-1.9,1.5
		c0.1,0.5,0.3,0.8,0.8,1c0.2,0.2,0.5,0.3,0.8,0.4c0.8,0.3,2,0.6,3.4,0.9c2,0.4,4.5,1,7.6,1.2C16.8,135.3,16.9,134.9,16.9,134.1z"/>
	<path class="st0" d="M18.5,117.7c0.1,0.2,0.4,0,0.4,0c3.1-1.9,5.7-2.9,11.3-5.1c2-0.8,3.6-1.5,4.8-2.1c1-0.5,1.8,1,0.8,1.5
		c-1.2,0.6-2.9,1.4-5,2.2c-6.9,2.7-10.5,4.3-11.4,5.2c-0.1,0.1-0.1,0.1-0.2,0.2c0.4,0.1,1.2,0.2,1.8,0.2c1,0.1,2,0.1,3,0.1
		c0.5,0,1.4,0.1,2.8,0.1c2.8,0.2,3.6,0.2,5.8,0.2c1.1,0,2.1-0.1,3-0.1c0.5-0.1,0.9,0.3,0.9,0.8c0.1,0.5-0.3,0.9-0.8,0.9
		c-0.9,0.1-1.9,0.2-3.1,0.2c-2.3,0-3.2,0-6-0.2c-1.4-0.1-2.3-0.1-2.8-0.2c-7.9-0.3-14.8-0.2-20.6,0.2c-0.5,0.1-0.9,0.3-1.4,0.2
		c-0.1-0.1-0.2-0.1-0.3-0.1c-0.2-0.1-0.3-0.2-0.4-0.5c-1.1-4.6,0.1-8.1,2.9-10.1c2.6-2,6.7-1.9,9.9,0.8c2,1.6,3.5,3.5,4.4,5.6
		L18.5,117.7z M16.9,118.4c-0.2-0.4-0.2-0.5-0.3-0.8c-1.7-3.5-5-5.8-7.8-6c-1.4-0.1-2.7,0.3-3.6,1c-1.9,1.2-2.9,3.5-2.7,6.4
		c0.1,0.7,0.6,1,1.3,1c3.4-0.3,7.5-0.4,12.1-0.3c0.9,0,1.2-0.2,1.2-0.5C17.1,118.8,16.9,118.4,16.9,118.4z"/>
	<path class="st0" d="M3.7,102.4c-0.1,0-0.2,0.4-0.2,1.2c-0.1,1.3,0,2.5,0.1,3.5c0.1,0.5-0.3,0.9-0.8,0.9c-0.5,0.1-0.9-0.3-0.9-0.8
		c-0.2-1.5-0.2-3.6-0.1-6.4c0.1-2.9,0.1-5,0.1-6.2c-0.1-0.5,0.3-0.9,0.8-0.9s0.9,0.3,0.9,0.8c0.1,1.3,0.1,3.5-0.1,6.4
		c0,0,0.2-0.1,0.8-0.1c1.4-0.3,2.9-0.3,5-0.2c1.2,0.1,2,0.1,2.4,0.1c1.5,0,3.9,0.1,7.3,0.2c6.8,0.2,12,0.3,16.2-0.3
		c0.5-0.1,0.9,0.2,0.9,0.7c0.1,0.5-0.2,0.9-0.7,0.9c-4.2,0.7-9.6,0.6-16.5,0.3c-3.4-0.1-5.8-0.2-7.2-0.2c-0.5,0-1.3,0-2.5-0.1
		c-2.4-0.1-3.8-0.1-5.2,0.2H3.7z"/>
	<path class="st0" d="M2.2,87.3c4.3-0.2,10.8-0.1,19.4,0.2c1.9,0.1,4.5,0.1,7.6-0.1c4-0.2,6.6-0.3,7.7-0.3c0.5,0,0.8,0.3,0.8,0.8
		s-0.3,0.8-0.8,0.8c-1.3,0-3.9,0.1-7.7,0.3c-3.5,0.2-6.1,0.2-7.8,0.1c-7.9-0.3-14.2-0.4-19.1-0.2c-0.5,0.1-0.9-0.3-0.9-0.8
		C1.4,87.7,1.7,87.3,2.2,87.3z"/>
	<path class="st0" d="M9.9,73c-4.6-1-6.8,0.9-6.9,3.6c0,2.8,2.2,5.7,5.8,6.2c1.9,0.2,3.4-0.1,5-1.2s2.2-1.7,4.1-3.8
		c2-2.1,2.5-2.7,4.6-4.4c2.1-1.7,4.2-2.5,6.7-2.8c5.6-0.6,8.9,2.4,8.6,6.3c-0.4,3.9-4.3,7.1-10.3,7.1c-0.5,0-0.8-0.3-0.8-0.8
		s0.3-0.8,0.8-0.8c5.3,0,8.4-2.7,8.6-5.6c0.2-2.7-2.1-5-6.7-4.5c-2.3,0.2-4.1,0.9-6,2.4c-1.8,1.5-2.4,2.1-4.3,4.3
		c-1.9,2-2.5,2.7-4.4,4s-3.8,1.7-6.1,1.4c-4.4-0.5-7.3-4.2-7.3-7.8c0.1-3.9,3.4-6.5,8.9-5.3c0.5,0.1,0.7,0.5,0.6,1
		C10.9,72.9,10.4,73.1,9.9,73z"/>
	<path class="st0" d="M3.7,63.1c-0.1,0-0.2,0.4-0.2,1.2c-0.1,1.3,0,2.5,0.1,3.5c0.1,0.5-0.3,0.9-0.8,0.9c-0.5,0.1-0.9-0.3-0.9-0.8
		c-0.2-1.5-0.2-3.6-0.1-6.4c0.1-2.9,0.1-5,0.1-6.2c-0.1-0.5,0.3-0.9,0.8-0.9s0.9,0.3,0.9,0.8c0.1,1.3,0.1,3.5-0.1,6.4
		c0,0,0.2-0.1,0.8-0.1c1.4-0.3,2.9-0.3,5-0.2c1.2,0.1,2,0.1,2.4,0.1c1.5,0,3.9,0.1,7.3,0.2c6.8,0.2,12,0.3,16.2-0.3
		c0.5-0.1,0.9,0.2,0.9,0.7c0.1,0.5-0.2,0.9-0.7,0.9c-4.2,0.7-9.6,0.6-16.5,0.3c-3.4-0.1-5.8-0.2-7.2-0.2c-0.5,0-1.3,0-2.5-0.1
		C6.8,62.7,5.4,62.7,4,63L3.7,63.1z"/>
	<path class="st0" d="M2.2,47.9c4.3-0.2,10.8-0.1,19.4,0.2c1.9,0.1,4.5,0.1,7.6-0.1c4-0.2,6.6-0.3,7.7-0.3c0.5,0,0.8,0.3,0.8,0.8
		s-0.3,0.8-0.8,0.8c-1.3,0-3.9,0.1-7.7,0.3c-3.5,0.2-6.1,0.2-7.8,0.1c-7.9-0.3-14.2-0.4-19.1-0.2c-0.5,0.1-0.9-0.3-0.9-0.8
		C1.4,48.3,1.7,47.9,2.2,47.9z"/>
	<path class="st0" d="M35.8,31.3c-1.5,1.1-0.8,1.2-0.8,1.2c4.1,2.1,2.8,5-0.6,7.2c-2.6,1.6-6.7,3.2-8.4,3.4c-6.5,1-16.8,1-21.2-1.1
		c-4.9-2.3-5.7-5.4-2.9-8c1.8-1.8,5.2-3.2,8.2-3.8H10c6.1-0.8,16.7-0.2,21.8,1.1c0.6,0.2,1.1,0.1,1.6-0.3l1.6-1.2
		c0.9-0.7,1.9,0.6,1,1.3L35.8,31.3z M11.1,31.9c-4.2,0.8-6.4,1.7-8.2,3.5c-0.9,0.9-1.2,1.6-1,2.4c0.3,1,1.4,2,3.5,2.9
		c4.1,1.9,14,1.9,20.3,1c1.4-0.2,5.3-1.6,7.7-3.2c2.8-1.8,3.3-3.1,0.8-4.3c-0.2-0.1-0.3-0.2-0.5-0.3c-0.4-0.2-0.8-0.1-1.3,0.4
		c-0.6,0.5-1,1-1.4,1.5c-0.6,0.9-2-0.1-1.3-1c0.2-0.3,0.3-0.5,0.7-0.9c0.9-1,0.1-0.9-0.8-1.1C24.7,31.7,16.7,31.3,11.1,31.9
		L11.1,31.9z"/>
	<path class="st0" d="M2.4,25c3,0.3,7.5,0.3,13.5,0c6.2-0.3,10.8-0.3,13.7-0.2c2.3,0.1,3.9,0,4.9-0.3c1.3-0.5,2-1.3,1.7-2.9
		c-0.3-1.9-1.6-2.8-3.9-3.5c-1.3-0.4-3.1-0.6-4.3-0.6c-0.6,0-1.4,0-2.4,0c-1,0.1-1.8,0.1-2.3,0.1c-0.9,0-3.2-0.1-7.2-0.1
		c-3.9-0.1-6.3-0.1-7.2,0c-0.6,0.1-1.6,0.1-3.1,0.3C4.6,17.9,3.5,18,2.7,18c-0.5,0-0.8-0.3-0.8-0.8s0.3-0.8,0.8-0.8
		c0.8,0,1.7-0.1,3.1-0.2C7.3,16,8.3,16,8.9,16c0.9-0.1,3.2-0.1,7.2-0.1c4,0.1,6.4,0.2,7.3,0.2c0.3,0,1,0,2.1-0.1
		c2.2-0.1,3.1-0.1,4.9,0.1c1.9,0.2,4,0.8,5.8,2.1c1.8,1.4,2.2,4.7,1,6.4c-0.5,0.8-1.3,1.3-2.3,1.6c-1.2,0.4-3,0.5-5.5,0.3
		c-2.7-0.1-7.2-0.1-13.5,0.2C10,27,5.4,26.9,2.3,26.6c-0.5,0-0.8-0.4-0.8-0.9C1.5,25.3,1.9,25,2.4,25z"/>
	<path class="st0" d="M2.2,10c0.1,0.1,0.1,0.1,0.1,0.1s0.3,0.1,0.8,0.2c0.1,0,0.2,0.1,0.4,0.1c1.8,0.2,4.2,0.1,7.2-0.2
		c2.7-0.2,2.5-0.3,4.9-0.2c1.2,0.1,1.3-0.3,1.3-1.2c0-0.7,0-1.3-0.1-1.8s0.3-0.9,0.8-0.9s0.9,0.3,0.9,0.8c0.1,0.6,0.1,1.2,0.1,2
		s0,1.2,1.2,1.2c5.7,0.3,10.2,0.3,13.4,0.1c1-0.1,1.7-0.2,2.3-0.3c0.1,0,0.2-0.1,0.3-0.1c0.1-0.1-0.3-0.1-0.5-0.1
		c0.6,0,1-0.2,1.1-0.9c0.2-1.3,0-2.9-0.1-4.6C36,3.5,36,2.8,36,2.4c0-0.5,0.3-0.8,0.8-0.8s0.8,0.3,0.8,0.8c0,0.8,0.2,3.2,0.3,3.9
		c0.1,1.9-0.1,3.3-0.5,4.2c-0.2,0.6-0.9,0.9-1.7,1c-0.6,0.2-1.4,0.3-2.5,0.3c-3.5,0.2-8.6,0.1-12.4-0.1c-1.9-0.1-3.5-0.2-4.8-0.2
		c-2.5-0.1-2.3-0.1-5.1,0.2c-3.1,0.2-5.6,0.4-7.5,0.2c-1.2-0.2-2.1-0.4-2.6-1.1c-0.2-0.4-0.3-1.1-0.3-1.9c0-0.4,0-1.3,0.1-2.8
		c0.1-2.8,0.1-4.3,0.1-4.6C0.6,1.3,0.9,0.9,1.4,0.8C1.6,0.8,1.9,0.9,2,1c0.4,0.3,0.3,0.8,0.3,1.3c0,0.8,0,2.1-0.1,4
		C2.1,7.8,2.1,8.7,2.1,9c0,0.4,0,0.7,0.1,0.9C2.2,9.9,2.2,10,2.2,10z"/>
</g>
</svg>
