<?xml version="1.0" encoding="utf-8"?>
<!-- Generator: Adobe Illustrator 21.0.0, SVG Export Plug-In . SVG Version: 6.00 Build 0)  -->
<svg version="1.1" id="Calque_1" xmlns="http://www.w3.org/2000/svg" xmlns:xlink="http://www.w3.org/1999/xlink" x="0px" y="0px"
	 viewBox="0 0 510.4 164.9" style="enable-background:new 0 0 510.4 164.9;" xml:space="preserve">
<style type="text/css">
	.st0{fill:none;stroke:#FF1C1C;stroke-miterlimit:10;}
	.st1{fill:none;stroke:#FF1C1C;stroke-width:0.5;stroke-miterlimit:10;}
	.st2{fill:none;stroke:#0041FF;stroke-miterlimit:10;}
	.st3{stroke:#000000;stroke-miterlimit:10;}
	.st4{fill:none;stroke:#000000;stroke-width:0.5;stroke-miterlimit:10;}
	.st5{stroke:#000000;stroke-width:0.5;stroke-miterlimit:10;}
	.st6{fill:none;stroke:#000000;stroke-miterlimit:10;}
	.st7{fill:none;stroke:#000000;stroke-width:1.5;stroke-miterlimit:10;}
</style>
<polygon class="st0" points="9.3,12.1 37.3,12.1 37.3,40.3 37.3,68.4 9.3,68.4 "/>
<line class="st1" x1="23.3" y1="40.3" x2="23.3" y2="12.1"/>
<line class="st0" x1="37.3" y1="40.3" x2="9.3" y2="40.3"/>
<g>
	<polygon class="st0" points="50.8,12.1 78.8,12.1 78.8,40.3 78.8,68.4 50.8,68.4 	"/>
	<line class="st1" x1="64.8" y1="40.3" x2="64.8" y2="12.1"/>
	<line class="st0" x1="50.8" y1="40.3" x2="78.8" y2="40.3"/>
	<line class="st0" x1="50.8" y1="26.2" x2="78.8" y2="26.2"/>
	<line class="st1" x1="64.8" y1="40.3" x2="64.8" y2="68.4"/>
	<line class="st0" x1="50.8" y1="54.3" x2="78.8" y2="54.3"/>
</g>
<g>
	<polygon class="st0" points="78.8,12.1 106.8,12.1 106.8,40.3 106.8,68.4 78.8,68.4 	"/>
	<line class="st1" x1="92.8" y1="40.3" x2="92.8" y2="12.1"/>
	<line class="st0" x1="78.8" y1="40.3" x2="106.8" y2="40.3"/>
	<line class="st0" x1="78.8" y1="26.2" x2="106.8" y2="26.2"/>
	<line class="st1" x1="92.8" y1="40.3" x2="92.8" y2="68.4"/>
	<line class="st0" x1="78.8" y1="54.3" x2="106.8" y2="54.3"/>
</g>
<g>
	<polygon class="st0" points="106.8,12.1 134.8,12.1 134.8,40.3 134.8,68.4 106.8,68.4 	"/>
	<line class="st1" x1="120.8" y1="40.3" x2="120.8" y2="12.1"/>
	<line class="st0" x1="106.8" y1="40.3" x2="134.8" y2="40.3"/>
	<line class="st0" x1="106.8" y1="26.2" x2="134.8" y2="26.2"/>
	<line class="st1" x1="120.8" y1="40.3" x2="120.8" y2="68.4"/>
	<line class="st0" x1="106.8" y1="54.3" x2="134.8" y2="54.3"/>
</g>
<g>
	<polygon class="st0" points="134.8,12.1 162.8,12.1 162.8,40.3 162.8,68.4 134.8,68.4 	"/>
	<line class="st1" x1="148.8" y1="40.3" x2="148.8" y2="12.1"/>
	<line class="st0" x1="134.8" y1="40.3" x2="162.8" y2="40.3"/>
	<line class="st0" x1="134.8" y1="26.2" x2="162.8" y2="26.2"/>
	<line class="st1" x1="148.8" y1="40.3" x2="148.8" y2="68.4"/>
	<line class="st0" x1="134.8" y1="54.3" x2="162.8" y2="54.3"/>
</g>
<g>
	<polygon class="st0" points="162.8,12.1 190.8,12.1 190.8,40.3 190.8,68.4 162.8,68.4 	"/>
	<line class="st1" x1="176.8" y1="40.3" x2="176.8" y2="12.1"/>
	<line class="st0" x1="162.8" y1="40.3" x2="190.8" y2="40.3"/>
	<line class="st0" x1="162.8" y1="26.2" x2="190.8" y2="26.2"/>
	<line class="st1" x1="176.8" y1="40.3" x2="176.8" y2="68.4"/>
	<line class="st0" x1="162.8" y1="54.3" x2="190.8" y2="54.3"/>
</g>
<g>
	<polygon class="st0" points="190.8,12.1 218.8,12.1 218.8,40.3 218.8,68.4 190.8,68.4 	"/>
	<line class="st1" x1="204.8" y1="40.3" x2="204.8" y2="12.1"/>
	<line class="st0" x1="190.8" y1="40.3" x2="218.8" y2="40.3"/>
	<line class="st0" x1="190.8" y1="26.2" x2="218.8" y2="26.2"/>
	<line class="st1" x1="204.8" y1="40.3" x2="204.8" y2="68.4"/>
	<line class="st0" x1="190.8" y1="54.3" x2="218.8" y2="54.3"/>
</g>
<g>
	<polygon class="st0" points="218.8,12.1 246.8,12.1 246.8,40.3 246.8,68.4 218.8,68.4 	"/>
	<line class="st1" x1="232.8" y1="40.3" x2="232.8" y2="12.1"/>
	<line class="st0" x1="218.8" y1="40.3" x2="246.8" y2="40.3"/>
	<line class="st0" x1="218.8" y1="26.2" x2="246.8" y2="26.2"/>
	<line class="st1" x1="232.8" y1="40.3" x2="232.8" y2="68.4"/>
	<line class="st0" x1="218.8" y1="54.3" x2="246.8" y2="54.3"/>
</g>
<g>
	<polygon class="st0" points="246.8,12.1 274.8,12.1 274.8,40.3 274.8,68.4 246.8,68.4 	"/>
	<line class="st1" x1="260.8" y1="40.3" x2="260.8" y2="12.1"/>
	<line class="st0" x1="246.8" y1="40.3" x2="274.8" y2="40.3"/>
	<line class="st0" x1="246.8" y1="26.2" x2="274.8" y2="26.2"/>
	<line class="st1" x1="260.8" y1="40.3" x2="260.8" y2="68.4"/>
	<line class="st0" x1="246.8" y1="54.3" x2="274.8" y2="54.3"/>
</g>
<g>
	<polygon class="st0" points="274.8,12.1 302.8,12.1 302.8,40.3 302.8,68.4 274.8,68.4 	"/>
	<line class="st1" x1="288.8" y1="40.3" x2="288.8" y2="12.1"/>
	<line class="st0" x1="274.8" y1="40.3" x2="302.8" y2="40.3"/>
	<line class="st0" x1="274.8" y1="26.2" x2="302.8" y2="26.2"/>
	<line class="st1" x1="288.8" y1="40.3" x2="288.8" y2="68.4"/>
	<line class="st0" x1="274.8" y1="54.3" x2="302.8" y2="54.3"/>
</g>
<g>
	<polygon class="st0" points="302.8,12.1 330.8,12.1 330.8,40.3 330.8,68.4 302.8,68.4 	"/>
	<line class="st1" x1="316.8" y1="40.3" x2="316.8" y2="12.1"/>
	<line class="st0" x1="302.8" y1="40.3" x2="330.8" y2="40.3"/>
	<line class="st0" x1="302.8" y1="26.2" x2="330.8" y2="26.2"/>
	<line class="st1" x1="316.8" y1="40.3" x2="316.8" y2="68.4"/>
	<line class="st0" x1="302.8" y1="54.3" x2="330.8" y2="54.3"/>
</g>
<g>
	<polygon class="st0" points="330.8,12.1 358.8,12.1 358.8,40.3 358.8,68.4 330.8,68.4 	"/>
	<line class="st1" x1="344.8" y1="40.3" x2="344.8" y2="12.1"/>
	<line class="st0" x1="330.8" y1="40.3" x2="358.8" y2="40.3"/>
	<line class="st0" x1="330.8" y1="26.2" x2="358.8" y2="26.2"/>
	<line class="st1" x1="344.8" y1="40.3" x2="344.8" y2="68.4"/>
	<line class="st0" x1="330.8" y1="54.3" x2="358.8" y2="54.3"/>
</g>
<g>
	<polygon class="st0" points="358.8,12.1 386.8,12.1 386.8,40.3 386.8,68.4 358.8,68.4 	"/>
	<line class="st1" x1="372.8" y1="40.3" x2="372.8" y2="12.1"/>
	<line class="st0" x1="358.8" y1="40.3" x2="386.8" y2="40.3"/>
	<line class="st0" x1="358.8" y1="26.2" x2="386.8" y2="26.2"/>
	<line class="st1" x1="372.8" y1="40.3" x2="372.8" y2="68.4"/>
	<line class="st0" x1="358.8" y1="54.3" x2="386.8" y2="54.3"/>
</g>
<g>
	<polygon class="st0" points="386.8,12.1 414.8,12.1 414.8,40.3 414.8,68.4 386.8,68.4 	"/>
	<line class="st1" x1="400.8" y1="40.3" x2="400.8" y2="12.1"/>
	<line class="st0" x1="386.8" y1="40.3" x2="414.8" y2="40.3"/>
	<line class="st0" x1="386.8" y1="26.2" x2="414.8" y2="26.2"/>
	<line class="st1" x1="400.8" y1="40.3" x2="400.8" y2="68.4"/>
	<line class="st0" x1="386.8" y1="54.3" x2="414.8" y2="54.3"/>
</g>
<g>
	<polygon class="st0" points="414.8,12.1 442.8,12.1 442.8,40.3 442.8,68.4 414.8,68.4 	"/>
	<line class="st1" x1="428.8" y1="40.3" x2="428.8" y2="12.1"/>
	<line class="st0" x1="414.8" y1="40.3" x2="442.8" y2="40.3"/>
	<line class="st0" x1="414.8" y1="26.2" x2="442.8" y2="26.2"/>
	<line class="st1" x1="428.8" y1="40.3" x2="428.8" y2="68.4"/>
	<line class="st0" x1="414.8" y1="54.3" x2="442.8" y2="54.3"/>
</g>
<g>
	<polygon class="st0" points="442.8,12.1 470.8,12.1 470.8,40.3 470.8,68.4 442.8,68.4 	"/>
	<line class="st1" x1="456.8" y1="40.3" x2="456.8" y2="12.1"/>
	<line class="st0" x1="442.8" y1="40.3" x2="470.8" y2="40.3"/>
	<line class="st0" x1="442.8" y1="26.2" x2="470.8" y2="26.2"/>
	<line class="st1" x1="456.8" y1="40.3" x2="456.8" y2="68.4"/>
	<line class="st0" x1="442.8" y1="54.3" x2="470.8" y2="54.3"/>
</g>
<g>
	<polygon class="st0" points="470.8,12.1 498.8,12.1 498.8,40.3 498.8,68.4 470.8,68.4 	"/>
	<line class="st1" x1="484.8" y1="40.3" x2="484.8" y2="12.1"/>
	<line class="st0" x1="470.8" y1="40.3" x2="498.8" y2="40.3"/>
	<line class="st0" x1="470.8" y1="26.2" x2="498.8" y2="26.2"/>
	<line class="st1" x1="484.8" y1="40.3" x2="484.8" y2="68.4"/>
	<line class="st0" x1="470.8" y1="54.3" x2="498.8" y2="54.3"/>
</g>
<line class="st2" x1="274.8" y1="12.6" x2="274.8" y2="67.9"/>
<line class="st1" x1="50.8" y1="100" x2="498.8" y2="100"/>
<line class="st1" x1="50.8" y1="113.4" x2="498.8" y2="113.4"/>
<line class="st1" x1="50.8" y1="126.9" x2="498.8" y2="126.9"/>
<line class="st1" x1="50.8" y1="140.3" x2="498.8" y2="140.3"/>
<line class="st1" x1="50.8" y1="153.8" x2="498.8" y2="153.8"/>
<circle class="st3" cx="50.8" cy="54.3" r="4.1"/>
<circle class="st3" cx="46.1" cy="130.4" r="1.8"/>
<circle class="st3" cx="56" cy="131.2" r="1.8"/>
<circle class="st3" cx="493.9" cy="130.4" r="1.8"/>
<circle class="st3" cx="503.8" cy="131.2" r="1.8"/>
<circle class="st3" cx="98.8" cy="129.4" r="1.8"/>
<circle class="st3" cx="92.8" cy="135" r="1.8"/>
<circle class="st3" cx="129.3" cy="129.4" r="1.8"/>
<circle class="st3" cx="138.9" cy="129.4" r="1.8"/>
<circle class="st3" cx="429.3" cy="129.4" r="1.8"/>
<circle class="st3" cx="437.4" cy="129.4" r="1.8"/>
<circle class="st3" cx="223.4" cy="127.1" r="1.8"/>
<circle class="st3" cx="230.8" cy="133.2" r="1.8"/>
<circle class="st3" cx="255.1" cy="127.1" r="1.8"/>
<circle class="st3" cx="288.8" cy="127.6" r="1.8"/>
<circle class="st4" cx="308" cy="103.6" r="1.8"/>
<circle class="st4" cx="312.2" cy="103.6" r="1.8"/>
<circle class="st3" cx="280.8" cy="127.6" r="1.8"/>
<circle class="st3" cx="252.1" cy="102" r="1.8"/>
<circle class="st5" cx="316.8" cy="103.6" r="1.8"/>
<circle class="st5" cx="321.4" cy="103.6" r="1.8"/>
<circle class="st5" cx="335" cy="120" r="1.8"/>
<circle class="st5" cx="339.7" cy="126.9" r="1.8"/>
<circle class="st5" cx="348.7" cy="131.2" r="1.8"/>
<circle class="st5" cx="354.7" cy="131.2" r="1.8"/>
<circle class="st5" cx="388.8" cy="148.3" r="1.8"/>
<circle class="st5" cx="396.3" cy="153.8" r="1.8"/>
<circle class="st3" cx="134.8" cy="47.1" r="4.1"/>
<circle class="st3" cx="162.8" cy="54.3" r="4.1"/>
<circle class="st3" cx="302.8" cy="68.4" r="4.1"/>
<circle class="st3" cx="470.8" cy="68.4" r="4.1"/>
<circle class="st6" cx="78.8" cy="54.3" r="4.1"/>
<circle class="st6" cx="176.8" cy="47.1" r="4.1"/>
<circle class="st6" cx="218.8" cy="54.3" r="4.1"/>
<circle class="st6" cx="358.8" cy="54.3" r="4.1"/>
<circle class="st6" cx="414.8" cy="54.3" r="4.1"/>
<circle class="st6" cx="442.8" cy="40.3" r="4.1"/>
<circle class="st6" cx="274.8" cy="40.3" r="4.1"/>
<circle class="st6" cx="274.8" cy="48.4" r="4.1"/>
<polygon class="st6" points="102.7,57.4 110.9,57.4 106.8,49.3 "/>
<line class="st6" x1="129.3" y1="39.5" x2="134" y2="33.7"/>
<line class="st6" x1="269.4" y1="25.5" x2="274.1" y2="19.7"/>
<line class="st6" x1="437.4" y1="25.5" x2="442.2" y2="19.7"/>
<line class="st6" x1="224.3" y1="39.5" x2="219.5" y2="33.7"/>
<line class="st6" x1="308.6" y1="39.5" x2="303.8" y2="33.7"/>
<line class="st6" x1="9.3" y1="68.4" x2="37.3" y2="40.3"/>
<path d="M17.5,21.2c0,0-0.1,0.5-0.2,1.5c-0.3,1.9-0.5,3.3-0.5,4.2v4.3c0,1.2,0.1,1.9,0.2,2.1c0,0,0.1,0.1,0.2,0.2
	c0.1,0.1,0.1,0.2,0.1,0.3c0,0.2-0.1,0.4-0.4,0.4c-0.2,0-0.5-0.1-0.9-0.3c-0.1-0.2-0.2-0.5-0.2-0.7v-9.3c-0.1-0.1-0.2-0.1-0.3-0.2
	v-0.5c0-0.3,0.1-0.9,0.4-1.9c0.2-1,0.4-1.5,0.6-1.5c0.2,0,0.4,0.2,0.6,0.6C17.4,20.7,17.5,21,17.5,21.2z"/>
<path d="M35.7,32.7c0,0.3-0.1,0.5-0.3,0.5c0,0-0.1,0-0.3-0.1C34.8,33,34.4,33,33.9,33C32,33,30,33.2,28,33.8c0,0-0.3,0.1-0.7,0.2
	c-0.4,0.1-0.6,0.2-0.7,0.2c-0.5,0-0.8-0.2-0.8-0.7c0-0.2,0.1-0.5,0.4-0.7c0.4-0.4,1.1-0.9,1.9-1.7c1.2-1.1,2.3-2.3,3.3-3.8
	c1.2-1.8,1.8-3.3,1.8-4.5c0-0.6-0.2-1.2-0.7-1.6c-0.4-0.4-1-0.6-1.6-0.6c-0.7,0-1.4,0.3-2.1,0.8c-0.7,0.5-1.2,1.1-1.4,1.8
	c-0.1,0.4-0.1,0.8-0.2,1.2c-0.1,0.6-0.3,0.9-0.5,0.9c-0.1,0-0.3-0.1-0.5-0.3s-0.3-0.3-0.3-0.4c0-0.8,0.4-1.6,1.1-2.5
	c0.6-0.8,1.3-1.5,2.1-1.8c0.6-0.3,1.3-0.5,2.1-0.5c0.9,0,1.7,0.3,2.3,1c0.7,0.7,1,1.4,1,2.3c0,1.4-0.7,2.9-2,4.6
	c-0.8,1-2,2.2-3.7,3.7c-0.3,0.3-0.6,0.5-0.7,0.7c-0.2,0.3-0.4,0.5-0.5,0.8c0.1,0.1,0.2,0.2,0.4,0.2l0.1,0l7.1-1.1
	c0.2,0,0.4,0.1,0.6,0.3C35.7,32.3,35.7,32.5,35.7,32.7z"/>
<path d="M78.8,81.1c0,0.1,0,0.3-0.1,0.6c-0.2,0.6-0.6,1-1.2,1.4c-0.6,0.3-1.1,0.5-1.8,0.5c-1.1,0-1.9-0.4-2.5-1.3
	c-0.5-0.7-0.7-1.7-0.7-2.8c0-1,0.1-1.9,0.4-2.8c0.3-1,0.8-1.8,1.5-2.4c0.5-0.4,1-0.6,1.4-0.6c0.7,0,1.3,0.3,1.6,1
	c0.3,0.5,0.4,1.2,0.4,2c0,0.4-0.1,0.8-0.2,1.4c-0.2,0.7-0.4,1-0.6,1c-0.2,0-0.3-0.1-0.4-0.3c0.1,0,0.1-0.1,0.3-0.2
	c0.2-0.2,0.4-0.8,0.4-1.7c0-0.6-0.1-1.1-0.3-1.6c-0.3-0.7-0.6-1-1.1-1c-0.4,0-0.7,0.2-1.1,0.7c-0.3,0.3-0.6,0.7-0.8,1.1
	c-0.5,1-0.7,2.2-0.7,3.7c0,1,0.2,1.7,0.5,2.3c0.4,0.7,1.1,1.1,2,1.1c0.5,0,0.9-0.1,1.3-0.4c0.4-0.3,0.7-0.6,0.9-1
	c0-0.1,0.1-0.3,0.2-0.6c0.1-0.1,0.2-0.2,0.3-0.2C78.7,80.8,78.8,80.9,78.8,81.1z"/>
<path d="M85.6,80.8c0,0.3-0.1,0.5-0.2,0.8c-0.6,1.1-1.7,1.7-3.2,1.7c-0.5,0-1.1-0.1-1.8-0.3c0,0,0,0,0,0.1c0,0,0,0.1,0.1,0.3
	c0,0.1-0.1,0.2-0.2,0.2l-0.1-0.1c-0.2,0-0.3-0.1-0.3-0.3c0-0.3-0.1-0.5-0.1-0.5c0,0-0.1-0.1-0.3-0.2c-0.1-0.1-0.2-0.1-0.2-0.3
	c0-0.1,0.1-0.2,0.2-0.2c0.1,0,0.2,0,0.2-0.1c0,0,0-0.1,0-0.2c0-0.2,0-0.4,0-0.8c0-0.3,0-0.6,0-0.8v-0.5c-0.2-0.1-0.3-0.2-0.3-0.3
	c0-0.1,0.1-0.3,0.3-0.3v-4.7c0-0.1,0.1-0.2,0.2-0.3c0.1-0.1,0.2-0.2,0.3-0.2c0.1,0,0.2,0,0.3,0c0.1,0.1,0.1,0.1,0.2,0.2
	c-0.1,0.9-0.2,1.5-0.2,1.9l0,0.1c0.6-1.6,1.6-2.5,2.8-2.5c0.7,0,1.3,0.3,1.7,0.8c0.3,0.5,0.5,1.1,0.5,1.9c0,0.6-0.1,1.1-0.4,1.7
	c-0.3,0.6-0.7,1-1.1,1.2C85,79.3,85.6,79.9,85.6,80.8z M84.9,80.7c0-0.5-0.5-0.8-1.5-1c-0.4-0.1-1.1-0.1-2.1-0.1
	c-0.4,0-0.7,0-0.9,0.1c0,0.3,0,0.9,0,1.9c0,0.2,0,0.5,0,0.7c0.4,0.3,1,0.4,1.8,0.4c0.6,0,1.2-0.2,1.8-0.5
	C84.6,81.7,84.9,81.3,84.9,80.7z M84.6,76.3c0-1.4-0.5-2.1-1.5-2.1c-0.7,0-1.3,0.5-1.9,1.4c-0.5,0.8-0.8,1.6-0.8,2.3v1.2
	c0,0,0.3,0,1,0c1.1,0,1.9-0.2,2.3-0.6C84.4,78.1,84.6,77.3,84.6,76.3z"/>
<path d="M52.2,114.1c0,0-0.1,0.1-0.2,0.3c-0.1,0.1-0.1,0.5-0.2,1.1c-0.3,2.7-0.5,5.3-0.5,7.6c0,1.9,0.2,3.2,0.6,3.7
	c-0.3,0.2-0.5,0.3-0.6,0.3c-0.6,0-0.9-0.5-1-1.4c-0.1-0.8-0.2-1.4-0.2-1.8l0.1-9.5c0-0.2,0.1-0.4,0.4-0.6c0.3-0.2,0.5-0.3,0.7-0.3
	c0.1,0,0.3,0.1,0.5,0.2C52.1,113.8,52.2,114,52.2,114.1z"/>
<path d="M107.8,114.1c0,0-0.1,0.1-0.2,0.3c-0.1,0.1-0.1,0.5-0.2,1.1c-0.3,2.7-0.5,5.3-0.5,7.6c0,1.9,0.2,3.2,0.6,3.7
	c-0.3,0.2-0.5,0.3-0.6,0.3c-0.6,0-0.9-0.5-1-1.4c-0.1-0.8-0.2-1.4-0.2-1.8l0.1-9.5c0-0.2,0.1-0.4,0.4-0.6s0.5-0.3,0.7-0.3
	c0.1,0,0.3,0.1,0.5,0.2C107.7,113.8,107.8,114,107.8,114.1z"/>
<path d="M135,114.1c0,0-0.1,0.1-0.2,0.3c-0.1,0.1-0.1,0.5-0.2,1.1c-0.3,2.7-0.5,5.3-0.5,7.6c0,1.9,0.2,3.2,0.6,3.7
	c-0.3,0.2-0.5,0.3-0.6,0.3c-0.6,0-0.9-0.5-1-1.4c-0.1-0.8-0.2-1.4-0.2-1.8l0.1-9.5c0-0.2,0.1-0.4,0.4-0.6c0.3-0.2,0.5-0.3,0.7-0.3
	c0.1,0,0.3,0.1,0.5,0.2C134.9,113.8,135,114,135,114.1z"/>
<path d="M219.6,114c0,0-0.1,0.1-0.2,0.3c0,0.1-0.1,0.5-0.1,1.1c-0.2,2.7-0.3,5.3-0.2,7.6c0.1,1.9,0.3,3.1,0.7,3.7
	c-0.2,0.2-0.4,0.3-0.6,0.3c-0.6,0-0.9-0.4-1.1-1.4c-0.1-0.8-0.2-1.4-0.2-1.8l-0.2-9.5c0-0.2,0.1-0.4,0.4-0.6
	c0.2-0.2,0.5-0.3,0.6-0.3s0.3,0.1,0.5,0.2C219.5,113.8,219.6,113.9,219.6,114z"/>
<path d="M247.8,114.1c0,0-0.1,0.1-0.2,0.3c-0.1,0.1-0.1,0.5-0.2,1.1c-0.3,2.7-0.5,5.3-0.5,7.6c0,1.9,0.2,3.2,0.6,3.7
	c-0.3,0.2-0.5,0.3-0.6,0.3c-0.6,0-0.9-0.5-1-1.4c-0.1-0.8-0.2-1.4-0.2-1.8l0.1-9.5c0-0.2,0.1-0.4,0.4-0.6c0.3-0.2,0.5-0.3,0.7-0.3
	c0.1,0,0.3,0.1,0.5,0.2C247.7,113.8,247.8,114,247.8,114.1z"/>
<path d="M275.8,114.1c0,0-0.1,0.1-0.2,0.3c-0.1,0.1-0.1,0.5-0.2,1.1c-0.3,2.7-0.5,5.3-0.5,7.6c0,1.9,0.2,3.2,0.6,3.7
	c-0.3,0.2-0.5,0.3-0.6,0.3c-0.6,0-0.9-0.5-1-1.4c-0.1-0.8-0.2-1.4-0.2-1.8l0.1-9.5c0-0.2,0.1-0.4,0.4-0.6s0.5-0.3,0.7-0.3
	c0.1,0,0.3,0.1,0.5,0.2C275.7,113.8,275.8,114,275.8,114.1z"/>
<path d="M303.8,114.1c0,0-0.1,0.1-0.2,0.3c-0.1,0.1-0.1,0.5-0.2,1.1c-0.3,2.7-0.5,5.3-0.5,7.6c0,1.9,0.2,3.2,0.6,3.7
	c-0.3,0.2-0.5,0.3-0.6,0.3c-0.6,0-0.9-0.5-1-1.4c-0.1-0.8-0.2-1.4-0.2-1.8l0.1-9.5c0-0.2,0.1-0.4,0.4-0.6s0.5-0.3,0.7-0.3
	c0.1,0,0.3,0.1,0.5,0.2C303.7,113.8,303.8,114,303.8,114.1z"/>
<path d="M331.8,114.1c0,0-0.1,0.1-0.2,0.3c-0.1,0.1-0.1,0.5-0.2,1.1c-0.3,2.7-0.5,5.3-0.5,7.6c0,1.9,0.2,3.2,0.6,3.7
	c-0.3,0.2-0.5,0.3-0.6,0.3c-0.6,0-0.9-0.5-1-1.4c-0.1-0.8-0.2-1.4-0.2-1.8l0.1-9.5c0-0.2,0.1-0.4,0.4-0.6s0.5-0.3,0.7-0.3
	c0.1,0,0.3,0.1,0.5,0.2C331.7,113.8,331.8,114,331.8,114.1z"/>
<path d="M359.8,114.1c0,0-0.1,0.1-0.2,0.3c-0.1,0.1-0.1,0.5-0.2,1.1c-0.3,2.7-0.5,5.3-0.5,7.6c0,1.9,0.2,3.2,0.6,3.7
	c-0.3,0.2-0.5,0.3-0.6,0.3c-0.6,0-0.9-0.5-1-1.4c-0.1-0.8-0.2-1.4-0.2-1.8l0.1-9.5c0-0.2,0.1-0.4,0.4-0.6s0.5-0.3,0.7-0.3
	c0.1,0,0.3,0.1,0.5,0.2C359.7,113.8,359.8,114,359.8,114.1z"/>
<path d="M415.8,114.1c0,0-0.1,0.1-0.2,0.3c-0.1,0.1-0.1,0.5-0.2,1.1c-0.3,2.7-0.5,5.3-0.5,7.6c0,1.9,0.2,3.2,0.6,3.7
	c-0.3,0.2-0.5,0.3-0.6,0.3c-0.6,0-0.9-0.5-1-1.4c-0.1-0.8-0.2-1.4-0.2-1.8l0.1-9.5c0-0.2,0.1-0.4,0.4-0.6s0.5-0.3,0.7-0.3
	c0.1,0,0.3,0.1,0.5,0.2C415.7,113.8,415.8,114,415.8,114.1z"/>
<path d="M443.1,114.1c0,0-0.1,0.1-0.2,0.3c-0.1,0.1-0.1,0.5-0.2,1.1c-0.3,2.7-0.5,5.3-0.5,7.6c0,1.9,0.2,3.2,0.6,3.7
	c-0.3,0.2-0.5,0.3-0.6,0.3c-0.6,0-0.9-0.5-1-1.4c-0.1-0.8-0.2-1.4-0.2-1.8l0.1-9.5c0-0.2,0.1-0.4,0.4-0.6s0.5-0.3,0.7-0.3
	c0.1,0,0.3,0.1,0.5,0.2C443,113.8,443.1,114,443.1,114.1z"/>
<path d="M388.8,122.1c0,0-0.1,0.1-0.2,0.3c-0.1,0.1-0.1,0.5-0.2,1.1c-0.3,2.7-0.5,5.3-0.5,7.6c0,1.9,0.2,3.2,0.6,3.7
	c-0.3,0.2-0.5,0.3-0.6,0.3c-0.6,0-0.9-0.5-1-1.4c-0.1-0.8-0.2-1.4-0.2-1.8l0.1-9.5c0-0.2,0.1-0.4,0.4-0.6s0.5-0.3,0.7-0.3
	c0.1,0,0.3,0.1,0.5,0.2C388.7,121.8,388.8,122,388.8,122.1z"/>
<path d="M499.8,114.1c0,0-0.1,0.1-0.2,0.3c-0.1,0.1-0.1,0.5-0.2,1.1c-0.3,2.7-0.5,5.3-0.5,7.6c0,1.9,0.2,3.2,0.6,3.7
	c-0.3,0.2-0.5,0.3-0.6,0.3c-0.6,0-0.9-0.5-1-1.4c-0.1-0.8-0.2-1.4-0.2-1.8l0.1-9.5c0-0.2,0.1-0.4,0.4-0.6s0.5-0.3,0.7-0.3
	c0.1,0,0.3,0.1,0.5,0.2C499.7,113.8,499.8,114,499.8,114.1z"/>
<path d="M218.3,81.1c0,0.1,0,0.3-0.1,0.6c-0.2,0.6-0.6,1-1.2,1.4c-0.6,0.3-1.1,0.5-1.8,0.5c-1.1,0-1.9-0.4-2.5-1.3
	c-0.5-0.7-0.7-1.7-0.7-2.8c0-1,0.1-1.9,0.4-2.8c0.3-1,0.8-1.8,1.5-2.4c0.5-0.4,1-0.6,1.4-0.6c0.7,0,1.3,0.3,1.6,1
	c0.3,0.5,0.4,1.2,0.4,2c0,0.4-0.1,0.8-0.2,1.4c-0.2,0.7-0.4,1-0.6,1c-0.2,0-0.3-0.1-0.4-0.3c0.1,0,0.1-0.1,0.3-0.2
	c0.2-0.2,0.4-0.8,0.4-1.7c0-0.6-0.1-1.1-0.3-1.6c-0.3-0.7-0.6-1-1.1-1c-0.4,0-0.7,0.2-1.1,0.7c-0.3,0.3-0.6,0.7-0.8,1.1
	c-0.5,1-0.7,2.2-0.7,3.7c0,1,0.2,1.7,0.5,2.3c0.4,0.7,1.1,1.1,2,1.1c0.5,0,0.9-0.1,1.3-0.4c0.4-0.3,0.7-0.6,0.9-1
	c0-0.1,0.1-0.3,0.2-0.6c0.1-0.1,0.2-0.2,0.3-0.2C218.2,80.8,218.3,80.9,218.3,81.1z"/>
<path d="M225.1,80.8c0,0.3-0.1,0.5-0.2,0.8c-0.6,1.1-1.7,1.7-3.2,1.7c-0.5,0-1.1-0.1-1.8-0.3c0,0,0,0,0,0.1c0,0,0,0.1,0.1,0.3
	c0,0.1-0.1,0.2-0.2,0.2l-0.1-0.1c-0.2,0-0.3-0.1-0.3-0.3c0-0.3-0.1-0.5-0.1-0.5c0,0-0.1-0.1-0.3-0.2c-0.1-0.1-0.2-0.1-0.2-0.3
	c0-0.1,0.1-0.2,0.2-0.2c0.1,0,0.2,0,0.2-0.1c0,0,0-0.1,0-0.2c0-0.2,0-0.4,0-0.8c0-0.3,0-0.6,0-0.8v-0.5c-0.2-0.1-0.3-0.2-0.3-0.3
	c0-0.1,0.1-0.3,0.3-0.3v-4.7c0-0.1,0.1-0.2,0.2-0.3c0.1-0.1,0.2-0.2,0.3-0.2c0.1,0,0.2,0,0.3,0c0.1,0.1,0.1,0.1,0.2,0.2
	c-0.1,0.9-0.2,1.5-0.2,1.9l0,0.1c0.6-1.6,1.6-2.5,2.8-2.5c0.7,0,1.3,0.3,1.7,0.8c0.3,0.5,0.5,1.1,0.5,1.9c0,0.6-0.1,1.1-0.4,1.7
	c-0.3,0.6-0.7,1-1.1,1.2C224.5,79.3,225.1,79.9,225.1,80.8z M224.4,80.7c0-0.5-0.5-0.8-1.5-1c-0.4-0.1-1.1-0.1-2.1-0.1
	c-0.4,0-0.7,0-0.9,0.1c0,0.3,0,0.9,0,1.9c0,0.2,0,0.5,0,0.7c0.4,0.3,1,0.4,1.8,0.4c0.6,0,1.2-0.2,1.8-0.5
	C224.1,81.7,224.4,81.3,224.4,80.7z M224.1,76.3c0-1.4-0.5-2.1-1.5-2.1c-0.7,0-1.3,0.5-1.9,1.4c-0.5,0.8-0.8,1.6-0.8,2.3v1.2
	c0,0,0.3,0,1,0c1.1,0,1.9-0.2,2.3-0.6C223.9,78.1,224.1,77.3,224.1,76.3z"/>
<path d="M411.9,80.2c0,0.8-0.1,1.5-0.3,2c-0.3,0.8-0.8,1.1-1.5,1.1c-0.2,0-0.4-0.1-0.7-0.2c-0.2-0.1-0.5-0.2-0.7-0.3
	c0,0.1,0,0.1,0,0.2c0,0,0,0.1,0,0.2c0,0.1,0,0.2,0,0.2c0,0.1-0.1,0.2-0.2,0.2s-0.3-0.1-0.4-0.2c-0.1-0.1-0.1-0.3-0.2-0.8
	c0-0.4,0-0.7,0-0.9v-0.1l0.3-7.8h0.2c0.1,0,0.3,0.1,0.4,0.2c0.1,0.1,0.2,0.3,0.2,0.4c0,0.3,0,0.9-0.1,1.5c-0.1,0.7-0.1,1.2-0.1,1.5
	c0,0,0,0.2,0,0.5c0.1,0,0.2-0.1,0.3-0.3c0.1-0.2,0.3-0.4,0.4-0.5c0.2-0.2,0.4-0.3,0.7-0.3c0.5,0,0.9,0.2,1.2,0.6
	c0.3,0.3,0.6,0.7,0.7,1.2C411.8,79.2,411.9,79.6,411.9,80.2z M411.1,80.3c0-0.6-0.1-1.1-0.2-1.5c-0.2-0.7-0.5-1-0.9-1
	c-0.5,0-0.9,0.4-1.2,1.1c-0.2,0.6-0.4,1.2-0.4,1.8c0,0.5,0.1,1,0.3,1.4c0.2,0.5,0.6,0.8,1.1,0.8c0.5,0,0.8-0.3,1.1-1
	C411,81.4,411.1,80.9,411.1,80.3z"/>
<path d="M418.8,81.1c0,0.1,0,0.3-0.1,0.6c-0.2,0.6-0.6,1-1.2,1.4c-0.6,0.3-1.1,0.5-1.8,0.5c-1.1,0-1.9-0.4-2.5-1.3
	c-0.5-0.7-0.7-1.7-0.7-2.8c0-1,0.1-1.9,0.4-2.8c0.3-1,0.8-1.8,1.5-2.4c0.5-0.4,1-0.6,1.4-0.6c0.7,0,1.3,0.3,1.6,1
	c0.3,0.5,0.4,1.2,0.4,2c0,0.4-0.1,0.8-0.2,1.4c-0.2,0.7-0.4,1-0.6,1c-0.2,0-0.3-0.1-0.4-0.3c0.1,0,0.1-0.1,0.3-0.2
	c0.2-0.2,0.4-0.8,0.4-1.7c0-0.6-0.1-1.1-0.3-1.6c-0.3-0.7-0.6-1-1.1-1c-0.4,0-0.7,0.2-1.1,0.7c-0.3,0.3-0.6,0.7-0.8,1.1
	c-0.5,1-0.7,2.2-0.7,3.7c0,1,0.2,1.7,0.5,2.3c0.4,0.7,1.1,1.1,2,1.1c0.5,0,0.9-0.1,1.3-0.4c0.4-0.3,0.7-0.6,0.9-1
	c0-0.1,0.1-0.3,0.2-0.6c0.1-0.1,0.2-0.2,0.3-0.2C418.7,80.8,418.8,80.9,418.8,81.1z"/>
<path d="M109.4,80.8c0,0.3-0.1,0.5-0.2,0.8c-0.6,1.1-1.7,1.7-3.2,1.7c-0.5,0-1.1-0.1-1.8-0.3c0,0,0,0,0,0.1c0,0,0,0.1,0.1,0.3
	c0,0.1-0.1,0.2-0.2,0.2l-0.1-0.1c-0.2,0-0.3-0.1-0.3-0.3c0-0.3-0.1-0.5-0.1-0.5c0,0-0.1-0.1-0.3-0.2c-0.1-0.1-0.2-0.1-0.2-0.3
	c0-0.1,0.1-0.2,0.2-0.2c0.1,0,0.2,0,0.2-0.1c0,0,0-0.1,0-0.2c0-0.2,0-0.4,0-0.8c0-0.3,0-0.6,0-0.8v-0.5c-0.2-0.1-0.3-0.2-0.3-0.3
	c0-0.1,0.1-0.3,0.3-0.3v-4.7c0-0.1,0.1-0.2,0.2-0.3c0.1-0.1,0.2-0.2,0.3-0.2c0.1,0,0.2,0,0.3,0c0.1,0.1,0.1,0.1,0.2,0.2
	c-0.1,0.9-0.2,1.5-0.2,1.9l0,0.1c0.6-1.6,1.6-2.5,2.8-2.5c0.7,0,1.3,0.3,1.7,0.8c0.3,0.5,0.5,1.1,0.5,1.9c0,0.6-0.1,1.1-0.4,1.7
	c-0.3,0.6-0.7,1-1.1,1.2C108.8,79.3,109.4,79.9,109.4,80.8z M108.7,80.7c0-0.5-0.5-0.8-1.5-1c-0.4-0.1-1.1-0.1-2.1-0.1
	c-0.4,0-0.7,0-0.9,0.1c0,0.3,0,0.9,0,1.9c0,0.2,0,0.5,0,0.7c0.4,0.3,1,0.4,1.8,0.4c0.6,0,1.2-0.2,1.8-0.5
	C108.4,81.7,108.7,81.3,108.7,80.7z M108.4,76.3c0-1.4-0.5-2.1-1.5-2.1c-0.7,0-1.3,0.5-1.9,1.4c-0.5,0.8-0.8,1.6-0.8,2.3v1.2
	c0,0,0.3,0,1,0c1.1,0,1.9-0.2,2.3-0.6C108.2,78.1,108.4,77.3,108.4,76.3z"/>
<path d="M116.4,81.1c0,0.1,0,0.3-0.1,0.6c-0.2,0.6-0.6,1-1.2,1.4c-0.6,0.3-1.1,0.5-1.8,0.5c-1.1,0-1.9-0.4-2.5-1.3
	c-0.5-0.7-0.7-1.7-0.7-2.8c0-1,0.1-1.9,0.4-2.8c0.3-1,0.8-1.8,1.5-2.4c0.5-0.4,1-0.6,1.4-0.6c0.7,0,1.3,0.3,1.6,1
	c0.3,0.5,0.4,1.2,0.4,2c0,0.4-0.1,0.8-0.2,1.4c-0.2,0.7-0.4,1-0.6,1c-0.2,0-0.3-0.1-0.4-0.3c0.1,0,0.1-0.1,0.3-0.2
	c0.2-0.2,0.4-0.8,0.4-1.7c0-0.6-0.1-1.1-0.3-1.6c-0.3-0.7-0.6-1-1.1-1c-0.4,0-0.7,0.2-1.1,0.7c-0.3,0.3-0.6,0.7-0.8,1.1
	c-0.5,1-0.7,2.2-0.7,3.7c0,1,0.2,1.7,0.5,2.3c0.4,0.7,1.1,1.1,2,1.1c0.5,0,0.9-0.1,1.3-0.4c0.4-0.3,0.7-0.6,0.9-1
	c0-0.1,0.1-0.3,0.2-0.6c0.1-0.1,0.2-0.2,0.3-0.2C116.3,80.8,116.4,80.9,116.4,81.1z"/>
<path d="M355.4,80.8c0,0.3-0.1,0.5-0.2,0.8c-0.6,1.1-1.7,1.7-3.2,1.7c-0.5,0-1.1-0.1-1.8-0.3c0,0,0,0,0,0.1c0,0,0,0.1,0.1,0.3
	c0,0.1-0.1,0.2-0.2,0.2l-0.1-0.1c-0.2,0-0.3-0.1-0.3-0.3c0-0.3-0.1-0.5-0.1-0.5c0,0-0.1-0.1-0.3-0.2c-0.1-0.1-0.2-0.1-0.2-0.3
	c0-0.1,0.1-0.2,0.2-0.2c0.1,0,0.2,0,0.2-0.1c0,0,0-0.1,0-0.2c0-0.2,0-0.4,0-0.8c0-0.3,0-0.6,0-0.8v-0.5c-0.2-0.1-0.3-0.2-0.3-0.3
	c0-0.1,0.1-0.3,0.3-0.3v-4.7c0-0.1,0.1-0.2,0.2-0.3c0.1-0.1,0.2-0.2,0.3-0.2c0.1,0,0.2,0,0.3,0c0.1,0.1,0.1,0.1,0.2,0.2
	c-0.1,0.9-0.2,1.5-0.2,1.9l0,0.1c0.6-1.6,1.6-2.5,2.8-2.5c0.7,0,1.3,0.3,1.7,0.8c0.3,0.5,0.5,1.1,0.5,1.9c0,0.6-0.1,1.1-0.4,1.7
	c-0.3,0.6-0.7,1-1.1,1.2C354.8,79.3,355.4,79.9,355.4,80.8z M354.7,80.7c0-0.5-0.5-0.8-1.5-1c-0.4-0.1-1.1-0.1-2.1-0.1
	c-0.4,0-0.7,0-0.9,0.1c0,0.3,0,0.9,0,1.9c0,0.2,0,0.5,0,0.7c0.4,0.3,1,0.4,1.8,0.4c0.6,0,1.2-0.2,1.8-0.5
	C354.4,81.7,354.7,81.3,354.7,80.7z M354.4,76.3c0-1.4-0.5-2.1-1.5-2.1c-0.7,0-1.3,0.5-1.9,1.4c-0.5,0.8-0.8,1.6-0.8,2.3v1.2
	c0,0,0.3,0,1,0c1.1,0,1.9-0.2,2.3-0.6C354.2,78.1,354.4,77.3,354.4,76.3z"/>
<path d="M362.4,81.1c0,0.1,0,0.3-0.1,0.6c-0.2,0.6-0.6,1-1.2,1.4c-0.6,0.3-1.1,0.5-1.8,0.5c-1.1,0-1.9-0.4-2.5-1.3
	c-0.5-0.7-0.7-1.7-0.7-2.8c0-1,0.1-1.9,0.4-2.8c0.3-1,0.8-1.8,1.5-2.4c0.5-0.4,1-0.6,1.4-0.6c0.7,0,1.3,0.3,1.6,1
	c0.3,0.5,0.4,1.2,0.4,2c0,0.4-0.1,0.8-0.2,1.4c-0.2,0.7-0.4,1-0.6,1c-0.2,0-0.3-0.1-0.4-0.3c0.1,0,0.1-0.1,0.3-0.2
	c0.2-0.2,0.4-0.8,0.4-1.7c0-0.6-0.1-1.1-0.3-1.6c-0.3-0.7-0.6-1-1.1-1c-0.4,0-0.7,0.2-1.1,0.7c-0.3,0.3-0.6,0.7-0.8,1.1
	c-0.5,1-0.7,2.2-0.7,3.7c0,1,0.2,1.7,0.5,2.3c0.4,0.7,1.1,1.1,2,1.1c0.5,0,0.9-0.1,1.3-0.4c0.4-0.3,0.7-0.6,0.9-1
	c0-0.1,0.1-0.3,0.2-0.6c0.1-0.1,0.2-0.2,0.3-0.2C362.3,80.8,362.4,80.9,362.4,81.1z"/>
<path d="M363.9,83.1c0,0.2-0.1,0.4-0.4,0.4c-0.4,0-0.6-0.8-0.6-2.5l0-6.3c0-0.1,0-0.2,0-0.4c0-0.2,0-0.3,0-0.4
	c0.2-0.1,0.3-0.2,0.4-0.2c0.1,0,0.3,0,0.4,0.1s0.2,0.2,0.2,0.3c0,0.1,0,0.2-0.1,0.4c-0.1,0.2-0.1,0.3-0.1,0.4
	c-0.1,0.6-0.2,1.5-0.2,2.7c0,1.8,0,2.7,0,2.7c0,1.1,0.1,2,0.2,2.6c0,0,0,0.1,0.1,0.2C363.9,83,363.9,83.1,363.9,83.1z"/>
<path d="M368.9,80.2c0,0.8-0.1,1.5-0.3,2c-0.3,0.8-0.8,1.1-1.5,1.1c-0.2,0-0.4-0.1-0.7-0.2c-0.2-0.1-0.5-0.2-0.7-0.3
	c0,0.1,0,0.1,0,0.2c0,0,0,0.1,0,0.2c0,0.1,0,0.2,0,0.2c0,0.1-0.1,0.2-0.2,0.2c-0.2,0-0.3-0.1-0.4-0.2c-0.1-0.1-0.1-0.3-0.2-0.8
	c0-0.4,0-0.7,0-0.9v-0.1l0.3-7.8h0.2c0.1,0,0.3,0.1,0.4,0.2s0.2,0.3,0.2,0.4c0,0.3,0,0.9-0.1,1.5c-0.1,0.7-0.1,1.2-0.1,1.5
	c0,0,0,0.2,0,0.5c0.1,0,0.2-0.1,0.3-0.3c0.1-0.2,0.3-0.4,0.4-0.5c0.2-0.2,0.4-0.3,0.7-0.3c0.5,0,0.9,0.2,1.2,0.6
	c0.3,0.3,0.6,0.7,0.7,1.2C368.9,79.2,368.9,79.6,368.9,80.2z M368.1,80.3c0-0.6-0.1-1.1-0.2-1.5c-0.2-0.7-0.5-1-0.9-1
	c-0.5,0-0.9,0.4-1.2,1.1c-0.2,0.6-0.4,1.2-0.4,1.8c0,0.5,0.1,1,0.3,1.4c0.2,0.5,0.6,0.8,1.1,0.8s0.8-0.3,1.1-1
	C368.1,81.4,368.1,80.9,368.1,80.3z"/>
<path d="M177.5,81.8c0,0.2-0.2,0.5-0.6,0.9c-0.4,0.4-0.7,0.6-0.9,0.7c-0.3,0.1-0.6,0.2-0.8,0.2c-0.7,0-1.2-0.2-1.6-0.7
	c-0.3-0.4-0.5-1-0.5-1.7c0-0.7,0.2-1.5,0.5-2.4c0.4-1.1,0.9-1.7,1.4-1.7c0.3,0,0.6,0.1,1.1,0.4c0.4,0.3,0.7,0.5,0.8,0.8
	c0.1,0.3,0.1,0.6,0.1,0.9c0,1-0.2,1.5-0.5,1.5c-0.1,0-0.2,0-0.3-0.1c-0.1-0.1-0.2-0.1-0.2-0.2c0,0,0-0.1,0.1-0.1
	c0-0.1,0.1-0.1,0.1-0.1c0-0.1,0.1-0.4,0.1-0.8c0-1-0.2-1.6-0.7-1.6c-0.5,0-0.9,0.5-1.3,1.4c-0.2,0.7-0.4,1.4-0.4,2.1
	c0,0.5,0.1,0.9,0.2,1.3c0.2,0.4,0.5,0.7,1,0.7c0.3,0,0.6-0.1,1-0.4c0.3-0.3,0.6-0.5,0.7-0.8c0-0.1,0.1-0.2,0.2-0.4
	c0-0.1,0.1-0.1,0.2-0.1c0.1,0,0.1,0.1,0.2,0.2C177.5,81.7,177.5,81.8,177.5,81.8z"/>
<path d="M182.3,80.2c0,0.8-0.1,1.5-0.3,2c-0.3,0.8-0.8,1.1-1.5,1.1c-0.2,0-0.4-0.1-0.7-0.2c-0.2-0.1-0.5-0.2-0.7-0.3
	c0,0.1,0,0.1,0,0.2c0,0,0,0.1,0,0.2c0,0.1,0,0.2,0,0.2c0,0.1-0.1,0.2-0.2,0.2c-0.2,0-0.3-0.1-0.4-0.2c-0.1-0.1-0.1-0.3-0.2-0.8
	c0-0.4,0-0.7,0-0.9v-0.1l0.3-7.8h0.2c0.1,0,0.3,0.1,0.4,0.2s0.2,0.3,0.2,0.4c0,0.3,0,0.9-0.1,1.5c-0.1,0.7-0.1,1.2-0.1,1.5
	c0,0,0,0.2,0,0.5c0.1,0,0.2-0.1,0.3-0.3c0.1-0.2,0.3-0.4,0.4-0.5c0.2-0.2,0.4-0.3,0.7-0.3c0.5,0,0.9,0.2,1.2,0.6
	c0.3,0.3,0.6,0.7,0.7,1.2C182.3,79.2,182.3,79.6,182.3,80.2z M181.5,80.3c0-0.6-0.1-1.1-0.2-1.5c-0.2-0.7-0.5-1-0.9-1
	c-0.5,0-0.9,0.4-1.2,1.1c-0.2,0.6-0.4,1.2-0.4,1.8c0,0.5,0.1,1,0.3,1.4c0.2,0.5,0.6,0.8,1.1,0.8s0.8-0.3,1.1-1
	C181.5,81.4,181.5,80.9,181.5,80.3z"/>
<path class="st3" d="M91,138.8c0,0,3.6-6.7,4.6-7.6"/>
<path class="st3" d="M314.5,107.6c0,0,3.6-6.7,4.6-7.6"/>
<path class="st3" d="M337.4,130.9c0,0,3.6-6.7,4.6-7.6"/>
<path class="st3" d="M346.4,135c0,0,3.6-6.7,4.6-7.6"/>
<path class="st3" d="M435.1,133.2c0,0,3.6-6.7,4.6-7.6"/>
<path class="st3" d="M249.8,105.8c0,0,3.6-6.7,4.6-7.6"/>
<path class="st6" d="M211.7,131.5c0,0,15.2,12.7,22.9-3.8"/>
<path class="st6" d="M232,126.2c-2.8,0.9-2.8,0.9-2.8,0.9"/>
<path class="st7" d="M374.2,130.4c-2.8,0.9-2.8,0.9-2.8,0.9"/>
<path class="st7" d="M409.6,126.9c-2.8,0.9-2.8,0.9-2.8,0.9"/>
<path class="st7" d="M409.6,153.1c-2.8,0.9-2.8,0.9-2.8,0.9"/>
<path class="st7" d="M420.3,153.1c-2.8,0.9-2.8,0.9-2.8,0.9"/>
<path class="st7" d="M379.2,151.4c0.1,4.7,0.1,4.7,0.1,4.7"/>
<path class="st7" d="M418.8,131.8c0.1,4.7,0.1,4.7,0.1,4.7"/>
<path class="st6" d="M264.8,125.8c0,0,2.2-19-11.7-23.8"/>
<path class="st6" d="M274.1,103.6c-7.8,0.4-12.8,52,9.3,20.2"/>
<path class="st3" d="M335,120c4.3-2,11.9-9.2,11.9-9.2"/>
</svg>
