<?xml version="1.0" encoding="utf-8"?>
<!-- Generator: Adobe Illustrator 21.0.0, SVG Export Plug-In . SVG Version: 6.00 Build 0)  -->
<svg version="1.1" id="Calque_1" xmlns="http://www.w3.org/2000/svg" xmlns:xlink="http://www.w3.org/1999/xlink" x="0px" y="0px"
	 viewBox="0 0 82.3 100.7" style="enable-background:new 0 0 82.3 100.7;" xml:space="preserve">
<style type="text/css">
	.st0{fill:none;stroke:#000000;stroke-width:2;stroke-miterlimit:10;}
</style>
<path class="st0" d="M78.6,54.8c0-1.4-1.1-2.2-2.3-2.4c-0.7-0.1-1.5-0.2-2.2-0.3c0.5-0.5,0.7-1.2,0.1-1.9
	c-4.9-6.8-10.6-13.6-16.8-19.9c0.5,0,1.1,0,1.6-0.1c2.3-0.1,2.4-3.4,0.5-3.8c0.3-0.5,0.4-1.1,0.1-1.7C55.9,16.5,46.9,9.1,40.4,3.2
	c-0.8-0.7-2-0.8-2.8,0C32.4,9,23.1,16.6,20.8,24.6c-0.7,0.9-1.3,1.8-1.8,2.6c-0.1,0.3-0.2,0.5-0.3,0.7c-0.2,0.4-0.5,0.7-0.7,1.1
	c-0.7,1,0,2.7,1.2,2.9c0.5,0.1,1,0.1,1.4,0.2c-1.3,1.3-2.7,2.6-4,3.9C13.2,39.6,5.2,46.5,5.6,52.2c-0.6,0.2-1.1,0.7-1.1,1.5
	c-0.9,11.4-2,22.8-2.7,34.2C1.6,91.3,2.5,95,6,96.3c7.6,2.8,18.1,0.5,25.9-0.2C47,94.9,61.9,93.6,77,95.4c1.3,0.2,2.4-1.2,2.4-2.3
	C79.4,80.3,78.6,67.6,78.6,54.8z M17.8,40.8c2.6-2.8,5.3-5.4,8.1-8c0.7,0.1,1.5,0.1,2.2,0.2c0.4,0,0.8,0,1.2,0.1
	c-0.2,2.9-0.1,5.9,0.1,8.9c0.1,0.8,0.6,1.2,1.1,1.2c0.3,0.2,0.6,0.4,1.1,0.4c6.1,0,12.2-0.1,18.2,0.2c0.2,0,0.4,0,0.6-0.1
	c0.5,0.2,1.1,0,1.2-0.6c0.6-3.9,0.8-7.6,0.8-11.5c0.7,0.8,1.4,1.5,2.1,2.3c5.3,5.8,10,12.9,16,17.9C50.5,49.6,30,48.6,9.9,50.5
	C12.8,47.6,15.2,43.5,17.8,40.8z M62.3,56.3L62.3,56.3c-1.3-0.3-2.5-0.6-3.7-0.9c1.2,0.1,2.4,0.2,3.6,0.3
	C62.2,55.9,62.3,56.1,62.3,56.3z M32.6,60.1c-0.2,0.3-0.3,0.5-0.3,0.8c-3,1.9-5.6,5.1-7.6,7.5c-5,6.1-9.2,13.1-12.7,20.3
	c-0.4,0.1-0.7,0.2-1.1,0.3c-1.6,0.5-1.9,2-1.3,3.2c-0.9-0.3-1.5-0.8-2-1.5c5.8-12.2,14.1-32.9,28.3-35.2
	C34.7,56.9,33.6,58.5,32.6,60.1z M55.2,89.9c0.1-0.1,0.2-0.2,0.2-0.3c0.1,0,0.1-0.1,0.2-0.1c1.2,0.1,2.3,0.2,3.5,0.4
	C57.8,89.9,56.5,89.9,55.2,89.9z M70.4,90.1c0.2-0.3,0.2-0.7,0.1-1.2c-2.1-5.9-8.6-11.8-12.8-16.2c-4.6-5-10.3-10.6-17-12.8
	c1.1-1.2,2.1-2.5,3.1-3.8c12.7,4.4,23,22.8,30.1,31.8c0.2,0.2,0.4,0.4,0.6,0.5c0,0.7,0,1.4,0,2.1C73.2,90.3,71.8,90.2,70.4,90.1z"/>
</svg>
