<?xml version="1.0" encoding="utf-8"?>
<!-- Generator: Adobe Illustrator 21.0.0, SVG Export Plug-In . SVG Version: 6.00 Build 0)  -->
<svg version="1.1" id="Calque_1" xmlns="http://www.w3.org/2000/svg" xmlns:xlink="http://www.w3.org/1999/xlink" x="0px" y="0px"
	 viewBox="0 0 68 76.3" style="enable-background:new 0 0 68 76.3;" xml:space="preserve">
<g>
	<g>
		<path d="M0,76.3v-38C0,28.1,2.7,19.6,8.1,13S21,2,30.5,0v16.3c-5.6,2-9.3,4.8-11,8.3c-1.7,3.5-2.6,8.1-2.6,13.7v3.9h13.6v34.1H0z"
			/>
	</g>
	<g>
		<path d="M37.5,76.3v-38c0-10.3,2.7-18.7,8.1-25.3S58.6,2,68,0v16.3c-5.6,2-9.3,4.8-11,8.3c-1.7,3.5-2.6,8.1-2.6,13.7v3.9H68v34.1
			H37.5z"/>
	</g>
</g>
</svg>
