<?xml version="1.0" encoding="utf-8"?>
<!-- Generator: Adobe Illustrator 21.0.0, SVG Export Plug-In . SVG Version: 6.00 Build 0)  -->
<svg version="1.1" id="Calque_1" xmlns="http://www.w3.org/2000/svg" xmlns:xlink="http://www.w3.org/1999/xlink" x="0px" y="0px"
	 viewBox="0 0 68 76.3" style="enable-background:new 0 0 68 76.3;" xml:space="preserve">
<g>
	<g>
		<path d="M68,0v38c0,10.3-2.7,18.7-8.1,25.3s-12.9,11-22.3,13V60.1c5.6-2,9.3-4.8,11-8.3c1.7-3.5,2.6-8.1,2.6-13.7v-3.9H37.5V0H68z
			"/>
	</g>
	<g>
		<path d="M30.5,0v38c0,10.3-2.7,18.7-8.1,25.3S9.5,74.3,0,76.3V60.1c5.6-2,9.3-4.8,11-8.3c1.7-3.5,2.6-8.1,2.6-13.7v-3.9H0V0H30.5z
			"/>
	</g>
</g>
</svg>
