<?xml version="1.0" encoding="utf-8"?>
<!-- Generator: Adobe Illustrator 21.0.0, SVG Export Plug-In . SVG Version: 6.00 Build 0)  -->
<svg version="1.1" id="Calque_1" xmlns="http://www.w3.org/2000/svg" xmlns:xlink="http://www.w3.org/1999/xlink" x="0px" y="0px"
	 viewBox="0 0 1238 497.8" style="enable-background:new 0 0 1238 497.8;" xml:space="preserve">
<style type="text/css">
	.st0{fill:#1D1D1D;}
	.st1{fill:#FFFFFF;}
	.st2{fill:#E20613;}
	.st3{fill:none;stroke:#1D1D1B;stroke-width:6;stroke-miterlimit:10;}
	.st4{fill:#1D1D1B;}
	.st5{enable-background:new    ;}
	.st6{fill:#EFECEC;}
</style>
<g>
	<g>
		<g>
			<g>
				<g>
					<g>
						<g>
							<g>
								<path class="st0" d="M1028,47.4c-1.6-0.1-1,0.7-1.2,0.9C1029.4,48.2,1027.9,47.2,1028,47.4z"/>
								<polygon class="st0" points="1054,47.7 1053.4,48 1057.4,47.8 								"/>
								<path class="st0" d="M1077.7,53.3c-0.9-1-3-1.6-5.5-2.1c-2.4-0.6-5.1-0.9-7.2-1.6l-0.6-0.5l-2.2,0.7
									c1.3,0.3,2.7,0.5,4.1,0.7s2.9,0.4,4.3,0.8C1073.4,51.9,1075.9,52.5,1077.7,53.3z"/>
								<path class="st0" d="M1088.7,60.5c-0.5-0.8,2.7,0.6-2.7-1.3c0.2,0.2,0.3,0.2,0.5,0.3C1087,59.8,1087.6,60.1,1088.7,60.5z"/>
								<path class="st0" d="M1086.5,59.6C1084.1,58.7,1087.8,60.7,1086.5,59.6L1086.5,59.6z"/>
								<path class="st0" d="M1097.3,63.9l-3.2-0.9c0.5,0.6,3.1,1.9,2.1,1.6C1099.3,65.7,1098.9,65.1,1097.3,63.9z"/>
								<path class="st0" d="M1100.6,64.3c-0.5-0.2-1.1-0.4-1.7-0.6C1099.2,63.9,1099.6,64.2,1100.6,64.3z"/>
								<path class="st0" d="M1095.4,62.6l3.5,1.1c-0.3-0.4-0.2-0.8-1.6-0.5C1097.8,62.9,1097,63,1095.4,62.6z"/>
								<path class="st0" d="M1093.6,61.5c-0.8-0.5-1.7-1.1-2.1-1.4c-0.3-0.3,0-0.4,1.6,0.1c-3-1.2-4.4-1.3-4.3-1
									c0.1,0.2,0.5,0.5,1.3,0.8C1091,60.4,1092.2,60.9,1093.6,61.5z"/>
								<path class="st0" d="M1079.3,52.3c-0.8-0.4-1.5-0.8-2.3-1.2l-2.3-0.1c0.6,0,1.7,0.5,2.7,0.8
									C1078.4,52.2,1079.3,52.5,1079.3,52.3z"/>
								<path class="st0" d="M1115.1,74.4c0.3-0.1-0.5-1.3-0.5-1.8c-0.7-0.4-1.5-0.7-2.3-1C1113.3,72.4,1115.2,73.9,1115.1,74.4z"/>
								<path class="st0" d="M1114.6,72.6l3.4,1.6C1115.2,72.3,1114.6,72.2,1114.6,72.6z"/>
								<path class="st0" d="M1101.9,63.1l-1.5-0.5l-1.5-0.4l-3-0.8c2.4,0.7,4.7,1.3,7.1,2.1L1101.9,63.1z"/>
								<path class="st0" d="M1126.6,82.3c-0.7-0.2-1.4-0.4-2.1-0.6l1.8,0.6l1.8,0.7L1126.6,82.3z"/>
								<path class="st0" d="M1133.9,88c-1.5-0.6,0.9,2.1-0.5,1.3c1.9,1.6,3.9,2.6,5.6,3.5C1137.4,91.6,1135.8,90.2,1133.9,88z"/>
								<path class="st0" d="M1141.9,94.6c-0.8-0.6-1.8-1.2-2.8-1.8C1140,93.5,1140.9,94.1,1141.9,94.6z"/>
								<path class="st0" d="M1123.1,77.8c0.1,0.3,0.3,1,1.9,2.4l-0.7-1.5C1123.9,78.4,1123.5,78.1,1123.1,77.8z"/>
								<path class="st0" d="M1124.3,78.6L1124.3,78.6c1.3,1,2.2,1.6,2.6,1.9C1126.5,80.3,1125.7,79.7,1124.3,78.6z"/>
								<path class="st0" d="M1122.8,77.6c0.1,0.1,0.2,0.1,0.3,0.2C1123.1,77.6,1123,77.6,1122.8,77.6z"/>
								<path class="st0" d="M1110.1,68.4c2.1,0.7,6.4,2.5,2.9-0.3C1111.3,67.8,1113.3,69.4,1110.1,68.4z"/>
								<path class="st0" d="M1122,75.7c-1-0.8-2.1-1.5-3.2-2.3c-0.1,0.2,0.4,0.9-0.7,0.5C1119.4,74.4,1120.7,75,1122,75.7z"/>
								<polygon class="st0" points="1123.7,76.6 1122,75.7 1123.1,76.6 								"/>
								<path class="st0" d="M1137.5,89.5c0.8,0.4,1.5,0.9,2.3,1.5c0.7,0.6,1.5,1.3,2.2,2c-0.8-0.8-1.5-1.7-2.4-2.5
									c-0.8-0.8-1.7-1.5-2.5-2.3C1136.7,88.2,1135.7,88,1137.5,89.5z"/>
								<path class="st0" d="M1131.3,84c0.1,0.1,0.2,0.1,0.3,0.2C1131.4,84,1131.3,83.8,1131.3,84z"/>
								<path class="st0" d="M1156.1,107.9c0-0.1-0.1-0.2-0.1-0.3c-0.1,0-0.1,0-0.2,0L1156.1,107.9z"/>
								<path class="st0" d="M1136.9,87.9c-1.2-1.2-2.1-1.7-3-2.2c1,0.8,2.1,1.6,3.1,2.5C1137.3,88.2,1137.4,88.2,1136.9,87.9z"/>
								<path class="st0" d="M1146.3,98.3c-0.5-0.8-1.1-1.6-1.7-2.4C1145,96.7,1145.9,98.2,1146.3,98.3z"/>
								<path class="st0" d="M1131.9,84.7c-0.1,0-0.1-0.1-0.2-0.1C1132,85.1,1132,85,1131.9,84.7z"/>
								<path class="st0" d="M1131.9,84.7c0.8,0.4,1.4,0.7,2.1,1c-0.8-0.6-1.7-1.1-2.4-1.5C1131.7,84.3,1131.8,84.6,1131.9,84.7z"/>
								<path class="st0" d="M1164.4,109.5c-0.4,0.1-1.5-0.6-2.6-1.8c-0.6-0.6-1.2-1.3-1.8-2.1c-0.6-0.8-1.2-1.6-1.7-2.5
									c-3-2.5-3.3,1.1-2.2,4.5c0.3-0.1,0.6-0.4,3.4,2.4c-0.4-1.4-4.8-7.3-2.1-5.3c1.9,1.8,2.5,2.7,2.8,3.4c0.3,0.7,0.3,1.2,1,2.3
									c-0.3-1.2,1-0.1,2.5,1.1c1.5,1.1,2.9,2.5,3.2,1.6c-1-1.2-2.1-2.3-3.2-3.4C1163.7,109.5,1165,110.6,1164.4,109.5z"/>
								<path class="st0" d="M1151.2,102l-1.2-1.1c1.2,1.4,1.8,2.6,2.9,4.8c2,1.7,2.6,2,2.9,1.9c-1.7-2-3.3-4-5.1-6L1151.2,102z"/>
								<path class="st0" d="M1145.1,95.7c1.5,0.2,4.4,2.8,3.5,0.4c-0.8-0.9-1.4-1.4-1.9-1.7c-0.5-0.3-0.8-0.5-1.1-0.6
									c-0.6-0.3-1-0.3-2.2-1.1C1149.1,97.8,1141.5,91.5,1145.1,95.7c-1.2-0.9-2.2-1.8-3.1-2.7c0.9,1,1.8,2,2.6,3
									c0-0.1-0.1-0.1-0.1-0.2l0,0l0,0c-0.2-0.3-0.2-0.4,0-0.1l0.1,0.1C1144.7,95.7,1144.9,95.7,1145.1,95.7c1.5,1.6,0.1,0.4-0.5,0
									c0,0-0.1,0-0.2,0l0,0c1,0.8,1.9,1.7,2.8,2.5l2.8,2.6C1149,99.6,1147.7,98.1,1145.1,95.7z"/>
								<path class="st0" d="M1117.5,68.6c0.2,0.2,0.1,0.2,0.1,0.3C1118.1,69.1,1118.3,69.1,1117.5,68.6z"/>
								<path class="st0" d="M1119.9,70.7c-0.5-0.2-1.1-0.2-2.6-1.2c-1.2-1.1,0.2-0.3,0.3-0.6c-1-0.4-3.6-1.5-0.9,0.7l0.5,0.2
									c2.5,1.9,5.2,5,4.7,4.8C1121.6,73.4,1121.2,72.5,1119.9,70.7z"/>
								<path class="st0" d="M1133.5,82.6c1.8,1.2,3.5,2.5,5.2,3.8l-2-2.7l-0.2,0.5C1133.9,81.7,1134.1,82.6,1133.5,82.6z"/>
								<path class="st0" d="M1156.3,108.8h-1.2c1.1,0.6,2.2,1.3,3.3,2L1156.3,108.8z"/>
								<path class="st0" d="M1161.4,115.1l-0.8,0.2c0.6,0.5,1.1,1,1.6,1.5L1161.4,115.1z"/>
								<path class="st0" d="M936.1,368.7l-1.8-0.8C935.1,368.4,935.7,368.6,936.1,368.7z"/>
								<path class="st0" d="M948.6,375.5l0.5-0.2C948.4,375.2,948.1,375.3,948.6,375.5z"/>
								<path class="st0" d="M1169.8,304.1c-2.1,1.9-4.6,3.8-3.7,4l1.2-0.2C1168.1,306.2,1168.9,305.1,1169.8,304.1z"/>
								<path class="st0" d="M1060.9,385.6c0.3,0,0.6,0.1,0.9,0.1c0.6-0.4,1.2-0.9,1.7-1.2C1062.6,384.9,1061.8,385.3,1060.9,385.6z
									"/>
								<path class="st0" d="M1059.6,389.5l-3.8,0.1C1056.7,389.7,1057.9,389.6,1059.6,389.5z"/>
								<path class="st0" d="M879.3,316.8c-0.7-0.5-1.4-0.9-2-1.4C879.3,318.4,878.8,316.8,879.3,316.8z"/>
								<path class="st0" d="M1193.4,191.7c0,2.4,0,4.2,0.2,5.8C1193.8,194.7,1194.2,192.3,1193.4,191.7z"/>
								<path class="st0" d="M945.4,363.5c-1.1-0.4-1.6-0.5-1.6-0.3C944.9,363.6,945.5,363.8,945.4,363.5z"/>
								<path class="st0" d="M1194.2,204.2c0.1-0.4,0.1-0.8,0.1-1.2c-0.3-1.7-0.5-3.4-0.7-5.4C1193.5,199.6,1193.4,202,1194.2,204.2
									z"/>
								<path class="st0" d="M927.2,68c0.2-0.1,0.4-0.2,0.6-0.3C927.7,67.6,927.5,67.8,927.2,68z"/>
								<path class="st0" d="M1004.2,47.9c-0.8,0.1-2,0.3-3.2,0.5C1001.6,48.3,1002.6,48.2,1004.2,47.9z"/>
								<path class="st0" d="M1178.1,143.4C1177.3,141.9,1177.9,143.2,1178.1,143.4L1178.1,143.4z"/>
								<path class="st0" d="M1177.3,134.3c0.3,0.3,0.5,0.5,0.7,0.4C1177.7,134.7,1177.5,134.5,1177.3,134.3z"/>
								<path class="st0" d="M1199.9,221.6c0,0.1,0,0.1,0,0.2C1200,221.3,1200,221.4,1199.9,221.6z"/>
								<path class="st0" d="M1177.3,140.9c0.2,0.6,0.5,1.3,0.8,2.1C1178,142.6,1177.7,142,1177.3,140.9z"/>
								<path class="st0" d="M1177.1,141.4c-0.2-0.5-0.4-1-0.6-1.4C1176.2,139.9,1176.2,140.1,1177.1,141.4z"/>
								<path class="st0" d="M1179.1,145.6c-0.4-0.9-0.8-1.8-1.1-2.6c0.1,0.3,0.1,0.5,0,0.4C1178.3,143.9,1178.6,144.5,1179.1,145.6
									z"/>
								<path class="st0" d="M852.5,192.6c0-0.1,0.1-0.3,0.1-0.4C852.6,190.4,852.5,191.2,852.5,192.6z"/>
								<path class="st0" d="M1147.2,345.5c0.1-0.1,0.1-0.1,0.1-0.2C1147.3,345.4,1147.2,345.5,1147.2,345.5L1147.2,345.5z"/>
								<path class="st0" d="M1142.8,350.4c1.4-2.7,2.7-3.5,4.4-4.9c-1.1-0.1-2.2-0.2-3.3-0.4
									C1143.5,346.9,1143.2,348.6,1142.8,350.4z"/>
								<path class="st0" d="M908.6,348.9l3,3.6c-5.1-2.7-7.9-5.8-5.3-2c0.6-0.4,1.7,0.1,3.2,1.1s3.2,2.5,5,3.8
									c1.8,1.4,3.6,2.7,5.1,3.7c1.5,0.9,2.7,1.3,3.3,0.8l2.2,2.2c-0.7-0.5-0.9-0.5-1.6-1c4.1,4.5,4.7,0.9,10.9,5.4
									c2.1,1.6,3.6,2.8,1.8,2.2l5.5,2.4c0.7,0.5,1,0.7,0.8,0.8c-0.2,0.1-0.7-0.1-1.4-0.6c2.7,1.4,5.4,2.7,8.1,4h-0.1
									c1.3,0.2,4.3,0.8,5.7,1.1c1.9,1.3-1.2-0.2-0.8,0.3c1.6,0.5,3.2,1,4.8,1.4c0.8,0.7,0.2,0.8-1,0.6c-1.2-0.3-3-0.9-4.5-1.7
									c1.6,2.2,2.6,2.5,4.3,2.9c1.7,0.3,4.1,0.8,8.6,3.4c-1.5-0.4-3-0.9-4.6-1.4c1.2,1.3,2.6,2.2,4.5,3c1.8,0.8,4,1.6,6.4,3
									c-1.1-0.9-9.5-5.8-4.1-4.6c1.4,0.7,3.3,1.5,6.2,1.8c-0.3,0.9,2.6,1.5,6,2.4l-0.6,1.2c1.9,0.4,2.9,0.3,3.6,0.2
									c0.7-0.1,1.3-0.3,2.5-0.3c4.2,1.1,4.9,2.3,5.7,3.3c6.8,1.4-4.4-2.4,3.7-1.2c1.4,0.4,2.7,0.7,4,0.9c1.3,0.2,2.5,0.3,3.8,0.4
									c2.6,0.2,5.3,0.2,8.8,0.1c4,0.7-0.8,0.7,0.6,1.2l3.6-0.7c0.9,0.1,0.6,0.4,0.4,0.5c3-0.2,0.3-1.2,5-1.5c0.7-0.7,3-0.1,6,0.4
									c1.5,0.2,3.1,0.4,4.8,0.4c1.6,0,3.2-0.1,4.7-0.6c1.5,0.3-0.6,0.8-0.2,1.3c4-0.8,5.7-1.1,7.2-1.5s2.8-0.9,6-2
									c1.9,0.1,3.8,0.1,5.6,0c-4.2-0.2,0.8-2.3,5-4c-1.5-0.2-2.8-0.4-3.6-0.4l3.5-1c1.2-0.3,2.3-0.7,3.4-1.1
									c0.9,0,0.3,0.6-0.7,1.4c0.5-0.2,0.9-0.4,1.2-0.6c2.6-0.1,1.5,0.9-0.2,2c-0.9,0-1.8-0.1-2.7-0.2c-1.6,1.1-3.1,2.2-2.6,2.9
									c0.4-0.2,1.3-0.5,2.3-0.8c-0.4,0.3-0.7,0.5-0.4,0.6c0.3,0.1,1-0.3,2.1-0.9l1.9,1l0.3-0.6l4.8-0.6c1.6-0.2,3.2-0.6,4.8-0.8
									c1.6-0.8,3-1.6,4.5-2.5s3-1.9,4.6-2.8s3.3-1.9,5.2-3c1-0.5,2-1.1,3-1.6c1.1-0.5,2.2-1.1,3.4-1.7c-2,2.1,0.1,1.8,0.5,3
									c-1.6,0-3.5,0.9-5.7,2c-1.1,0.6-2.2,1.2-3.5,1.8c-1.2,0.5-2.5,1.1-3.9,1.4c2.8-0.8,2.4,0,1.8,0.4c3.1-1.4,6-3.1,9-4.7
									c0.1,0.5,0.7,0.5,1.5,0.3c0.9-0.2,2-0.7,3.3-1.1c-1.3-0.5,0.3-1.6,2.6-2.8c0.6-0.3,1.2-0.6,1.9-0.9c0.6-0.3,1.3-0.7,1.9-1.1
									c1.2-0.7,2.4-1.4,3.3-2c0.5,0.5,0,1.5-4.5,3.7c2.8-0.6,4.1-1.9,5.4-3.3c1.3-1.3,2.5-2.8,5.1-3.6c-1,0.6-1.7,0.9-1.9,1.4
									c1.1-1,3.2-2.2,4.9-3c1.7-0.9,2.9-1.4,2.4-0.7l-1,0.7c1.7-1,3.9-2.4,6.2-3.9c2.2-1.5,4.5-3.3,6.6-4.9s3.8-3.3,5.1-4.7
									c1.3-1.3,2.1-2.4,2-2.9c0.2,0.1,0.5,2.3,0.3,2.8c2.5-4.6,4.8-9.1,6.8-13.8c0.1,1.9,6,1.1,1.7,6.3c0.8-0.6,1.6-1.3,2.6-2.2
									c1-0.9,2.1-2.1,3.3-3.7c-1.1,0.8-3.8,0.9-2.6-0.5c2.3-1.2,3-1.7,3.8-2.3c0.8-0.6,1.8-1.3,4.3-3.1c-1.5,1.3-1.8-1.9,0.3-4.2
									c-0.1,0.6,1.9,1.3,1.3,2.3l1.7-3.7c0.6-1.2,1-2.5,1.5-3.7c-0.9,1.8,1.3,1.5,2.9,0.5c-0.4,0.2,0.6-1.1,1.9-2.7
									s2.7-3.6,3.2-4.5l-2.3,2.4c2.7-3.5,3.3-5.7,3.8-7.9c0.2-1.1,0.5-2.2,0.9-3.5s1.2-2.7,2.2-4.6c-0.1,1.1,1.2,3.7,3.6,0
									c0-0.6,0-1.5,0-2.7s0.1-2.6,0.1-4.2c0.1-3.2,0.7-6.9,1.7-10.5l1.2-1c0.6-1.8,1.1-3.7,1.6-5.5c0.2,2,0,5.6-0.3,9.5
									c-0.1,2-0.5,3.9-0.8,5.8s-0.6,3.6-1,5c2-2.7,1.1-0.4,3.3-4.9c1.3-1.3-0.4,2.8-1,4.1l2.8-5.1l0.7-1.3l0.6-1.3l1.3-2.6
									c-0.7,0-0.1-2.2,0.5-4.3c0.5-2.2,1.1-4.3,0.5-4.3c-1,4.1-2.4,8-3.7,12c-0.7-0.1-0.8-2.1-0.3-5c0.2-1.5,0.7-3.1,1.1-4.9
									c0.5-1.8,1.1-3.7,1.9-5.5c1.3-1.7,1.7,2.3,2.2,2.3c0-0.6,0.5-2.4,1-4.3c0.5-1.8,1.1-3.6,1.3-3.9l-0.4,3.5
									c1-2.1,1.1-4,1.4-5.9c0.3-2,0.5-4,1.9-6.5c0.3-0.9,1.1-2.1,1.7-3.2s1-2,0.7-2.3c-2.2,2.6-6.9,2-7.6-0.2c0.1-0.3,1-2.5,2-4.9
									c0.3-0.6,0.5-1.2,0.8-1.8c0.2-0.6,0.5-1.2,0.7-1.7c0.4-1.1,0.8-2,1.1-2.5c1.7-2.8,2,5,3.5,2.6c-0.3-0.2-0.5-1.9-0.5-2.6
									c0.7-1.9,1,1,1.6-3.2c-1.2-0.9,1.2-8.6-0.9-2.2c0.1-2.1,0.3-3.2,0.5-4.3c0.3-1.2,0.6-2.4,0.7-4.9c-0.5,0.7-1.2-0.4-1.7-2.3
									c-0.6-1.8-0.9-4.3-1.1-6.4c0.3,0.3,0.8-0.6,1-1.1c0.1-2.1,0.2-3.9,0.3-5.7c0-1.7,0.1-3.3,0.1-4.9c0-1.6,0.1-3.1,0.1-4.8
									c-0.1-1.7-0.2-3.4-0.3-5.4c0.3-0.7,0.4-4.6,1.1-3c-0.4-1.1-1-2.1-1.3-4.5c0.6-4.8,0.9,5.4,1.8,1.6c-0.9-0.2-1.8-6.2-3-9.5
									c-0.3,0.3-0.3,1-0.2,1.8c0.1,0.9,0.3,1.9,0.5,3c0.4,2.3,1.1,4.8,1.6,6.5c-0.8,0.1-1.9-1.3-2.9-3.7c-0.5-1.2-1-2.6-1.6-4.3
									c-0.6-1.6-1.2-3.4-1.7-5.4c-0.7-3.1-0.7-3.8-0.4-3.9c0.3-0.1,0.7,0.5,0.5-0.1c-0.6-3-1.2-5-1.8-6.6c-0.7-1.6-1.4-2.6-2-3.7
									c-0.6-1-1.2-2-1.7-3.3s-1.1-3-1.6-5.4c-0.3-4.1,2-0.9,2.4-2c1,2.4,1.5,4.4,1.9,6.2c0.3,1.8,0.5,3.4,1,5.1l-0.7-4.4
									c0.8,1.5,2,4.8,2.3,6.8c0-0.9-0.3-2.5-0.9-4.7c-0.3-1.1-0.6-2.3-0.9-3.6c-0.4-1.3-0.9-2.6-1.3-4c-0.5-1.4-0.9-2.9-1.4-4.3
									c-0.5-1.4-1.1-2.9-1.6-4.3c-0.5-1.4-1-2.8-1.5-4.1s-1-2.5-1.4-3.6c-1-1.4-2.5-3.9-2.4-2.4l1.4,2.6c0.3,2.8-3.4-4.6-2.2-1
									c-1-1.7-2.4-3.3-3.7-5.3c-0.6-1-1.3-2-1.9-3.1c-0.7-1.1-1.3-2.2-1.9-3.5l0.5-1.5c-0.3,0.3,1.2,3.5,2.3,4.7
									c-0.8-0.9-1.5-2.9-2.3-4.9c-0.4-1-0.9-2-1.4-2.8c-0.6-0.8-1.2-1.5-1.8-1.8c0.5,1.2,0.9,2.5,1.3,3.7
									c-1.2-1.6-2.9-3.1-4.4-4.9c-0.8-0.9-1.5-1.8-2.3-2.7c-0.8-0.9-1.5-1.9-2.1-3c0.3,2.5,0.8,0.8,1.6,4.4
									c-0.1-3.5,6.6,10.5,5.6,5.4c0.2,2,0.8,3.4,1.5,4.9s1.5,3.1,1.9,5.5c0.3-0.3-0.1-1.8,1.6,1.9c0.2,0.1,0.5,0.4,0.7,0.6
									c0,0.1,0.1,0.2,0.1,0.3c0-0.1,0-0.1-0.1-0.2c0.1,0.1,0.2,0.1,0-0.1c-0.3-0.9-0.5-1.7-0.4-2.1c0.9,0.7,2.1,2.5,3.2,4.4
									c1,1.9,2,3.8,2.7,4.7c0.8,2.3-0.8-0.7-0.7,0.6l1,1.4l0.9,1.4c-0.7,0.7,1,6.5-1.6,1.4l1.8,4.8c0.3,1.5,0.7,3.2,1.2,4.9
									s1.1,3.2,1.6,4.4c0.5,2.4,2.6,5.6,1.4,3.7c0.4,1.3,0.9,2.5,1.3,3.8l1.2,3.8l-0.2,0.1c0.9,3.9,1.9,7.8,2.8,11.9
									c0.7,4.2,1.4,8.5,0.8,13.1c0.2,1.3,0.5,2.7,0.6,4.2c0.1,1.6,0.2,3.4,0.1,5.6l-0.8,0.9c0.2,1.7-0.1,4.3-0.3,6.6
									c-0.2,2.3-0.3,4.4,0,5.1c-0.6,0.9-1,2.3-1.3,4.1c-0.1,0.9-0.3,1.9-0.3,2.9c-0.1,1-0.2,2.1-0.4,3.2c-0.3,2.2-0.4,4.5-0.7,6.5
									c-0.3,2.1-0.6,4-1,5.4l1,0.4c-0.1,0.5-0.2,1-0.3,1.5c-0.1,0.5-0.2,1-0.3,1.5c-0.2,1-0.4,2-0.6,3.1s-0.4,2.2-0.5,3.3
									c-0.2,1.1-0.5,2.3-0.7,3.6l1-0.1c-0.3,2.2-1.1,5-2.4,7.9c-0.6,1.5-1.3,3-1.9,4.6c-0.7,1.6-1.4,3.2-2,4.8
									c-0.1-0.6,0.6-2.2,1.2-3.3c-1.2,1.8-2.2,3.7-3,5.7s-1.6,4.1-2.3,6.1c-0.6,2.1-1.5,4.1-2.3,6c-0.9,1.9-1.8,3.7-3.1,5.1
									c-0.7,1.8-1.4,2.9-2.3,4c0.1-0.2,0.2-0.3,0.2-0.4c-0.1,0.2-0.3,0.4-0.4,0.7c-0.5,0.7-1.2,1.3-1.8,2c0.6-0.6,1.2-1.1,1.6-1.6
									c-0.7,1.3-1.9,3.2-2.8,5.1l-1.3,0.3c-0.1,0.2-0.2,0.3-0.2,0.4c-1.4,1.6-0.5,1.7,0.7,1.1c-0.4,1-0.9,1.9-1.2,2.7
									c-1.1,0.3-1.9,1.5-2.6,2.8c-0.4,0.7-0.8,1.3-1.3,1.9c-0.5,0.5-1.1,1-1.8,1.2c-0.1,0.8-1.7,3.1-3.2,5.4
									c-1.6,2.2-3,4.5-2.8,5.5c-0.2-0.1-0.7,0.3,0-0.6c-1.7,1.8-3.6,3.4-4.7,5.3l-1.6-0.1l-1.3,2.5l-1.4,2.4
									c-2.9,1.7-4.1,2.3-2.5-0.6c-1.2,1.6-2,2.7-2.7,3.5s-1.2,1.3-1.7,1.9c-1,1-1.9,2-3.9,4.7l-0.2-0.8c-1.8,1.5-4.2,4.7-5.7,5
									c-1.3,0.5-3.3,1.6-5.7,3.2c-0.6,0.4-1.2,0.8-1.9,1.3c-0.7,0.4-1.4,0.9-2.1,1.3c-1.5,0.9-3,1.9-4.6,2.9
									c-6.5,3.8-14.2,7.8-20.7,9.8c1.7,0.5,0.1,1-1.8,1.4c-2,0.4-4.3,0.9-4.2,1.9c-0.9-0.2-2.8,0.2-0.9-1.1
									c-0.8,0.4-1.5,0.7-2.2,1s-1.4,0.5-2,0.7c-1.3,0.4-2.5,0.7-3.6,1c-2.2,0.7-4.2,1.2-6.2,2.6c-0.9-0.3,1.2-1.2,0.4-1.3
									c-0.5,0.3-2,1.1-2.7,0.9c-0.8-0.1,0.8-0.7,1.8-1.2c-1.7,0.5-2.9,1-3.9,1.5c-1,0.4-1.7,0.9-2.1,1.3c-0.9,0.9-1.1,1.7-1.1,2.6
									c-1.8,0-3.2,0.2-4.4,0.5c-1.2,0.3-2.2,0.8-3.4,1.5c-1.3-0.3-3.5-0.5,0.8-1.4c-0.6,0.1-1.9,0.3-3.4,0.5
									c-0.8,0.1-1.6,0.2-2.4,0.4c-0.9,0.1-1.7,0.2-2.6,0.3c-3.5,0.4-6.6,1-6.7,1.6c-0.8-0.3-3.5,0.2-4.1,0.4
									c-1.4,0.1-2.5,0.1-3.4,0.2c-0.9,0-1.7,0-2.4,0c-1.5,0-3,0.1-5.7,0.2l1.5,0.2c-2.1,1.7-4.6,0.4-9,0.4l0.1-0.2
									c-2.5-0.3-4-0.6-5.1-0.7c-1-0.1-1.6-0.1-2.1-0.1s-1.1,0-2.1-0.1c-0.5-0.1-1.1-0.1-1.9-0.3c-0.8-0.2-1.8-0.4-3-0.7l0.4,1
									c-0.6,1-2.8,0.4-5.5-0.4c-2.7-0.9-6-2.2-8.9-2.3c0.6,0.3,1.3,0.6,2,0.9c-1.6,0.1-3.7-1.1-5.6-2.4c-2-1.3-3.9-2.7-5.3-3.3
									c-0.6-0.4,1.1,0,2.1,0.1c-7.6-3.4-1.3,0.9-7.3-0.5c-0.9-1,1.9-1.2-2-2.5c-0.9-0.6-3.9-1-7.3-1.7c-1.7-0.4-3.4-0.9-5.1-1.5
									c-0.8-0.3-1.6-0.6-2.4-1c-0.7-0.4-1.4-0.8-2-1.2c0.9,1,1.8,2-0.9,1.2c-4.2-1.6-9.8-6.8-14-7.3c-0.4-0.4-0.5-0.6-0.5-0.8
									c-0.8-0.3-1.8-0.8-2.9-1.3c-1.1-0.5-2.3-1.1-3.4-1.7c-2.3-1.2-4.5-2.2-5.6-2.4c-0.2-1.1-1.4-2.4-3.1-3.6
									c-1.7-1.3-3.9-2.5-5.9-3.9c-2-1.3-4-2.5-5.3-3.7c-1.3-1.1-1.9-2.1-1.4-2.6c-1.3-1.1-2.7-2.2-3.9-3.3l-3.8-3.5h0.4
									c-1.2-1.2-2.2-2.1-3-2.9s-1.6-1.5-2.3-2c-1.3-1.1-2.4-1.6-3.5-2.3c-0.8-1.3,0.1-0.6,0.3-0.7c-2.9-3.9-4.6-5.9-6.2-7.8
									c-0.8-0.9-1.7-1.8-2.7-2.7c-1-0.9-2.2-2-3.7-3.5l0.3-1.3c-0.4-0.4-1.1-1.3-1.9-2.6c-0.8-1.3-1.7-3.1-2.8-5
									c-0.5-1-1.1-2-1.7-3c-0.5-1.1-1.1-2.1-1.7-3.2c-0.6-1.1-1.2-2.1-1.9-3.2c-0.7-1-1.3-2.1-1.9-3.1c0.1,0,0.4,0.1,0.9,0.7
									c-3-4.4-5.1-10.5-6.8-15.7c-0.4-1.3-0.8-2.6-1.2-3.7c-0.2-0.6-0.4-1.1-0.6-1.7c-0.2-0.5-0.4-1.1-0.6-1.5
									c-0.8-1.9-1.8-3.3-2.9-4l-0.8-1.6l-0.7-1.6l-1.4-3.3c2.2,8.9-1.9-0.9-1.4,2.9c-0.6-1.7-1-4.1-1-5.4c0-1.4,0.3-1.8,0.9,0.4
									v0.7c2.1,1.1-2-11.2-0.6-11.3c-1.8-8.8-2.5-17.6-2.6-26.3c0-2.2,0-4.3,0-6.5c0.1-2.1,0.2-4.3,0.3-6.4
									c0.1-1.1,0.1-2.1,0.2-3.2c0.1-1.1,0.2-2.1,0.3-3.1s0.2-2.1,0.3-3.1s0.2-2.1,0.3-3.1c-0.6,0.6-1.1,1.2-1.7,1.8
									c0.2-1.9,0.5-3.9,0.8-5.8c0.5-1.5,1.4-1.9,0.8,2.2c0.5-1,0.6-2.8,0.5-4.3c-0.2-1.5-0.3-2.8-0.5-2.9c2-7.9,1.1,3.4,1.6,0.9
									l0.5-3.3l-0.3,0.7c-0.1-1.4-0.2-2.2-0.3-3.2c0-0.5,0-1.1,0.1-1.9c0.1-0.8,0.3-1.7,0.6-2.9c1-3,1.2-1.4,1.6-2.6
									c0.1,0,0.2-0.4,0.5-1.8c0.7-2.3,1.4-4.7,2.1-7l-1.9,2.5c0.2-1.6,0.7-3.3,0.8-4.2c0.2-0.9,0-1-1.1,0.4
									c1.7-2.1,4-8.6,6.5-14.7c0.6-1.6,1.3-3,1.9-4.5c0.6-1.4,1.2-2.8,1.8-4c1.1-2.4,2.1-4.1,2.6-4.7c0.3-1.1,0.7-2.2,1.1-3.3
									c0.5-1.1,1-2.1,1.5-3.2c1.1-2.1,2.4-4.3,4-6.6c-1,1-2.5,1.1,0.3-2.9c0.3,0.7,0.8,0.7,1.5,0.1c0.7-0.5,1.4-1.6,2.4-2.7
									c0.9-1.1,1.9-2.4,2.9-3.6c0.5-0.6,1-1.1,1.5-1.5s1-0.8,1.5-1c-1.6,1,0.5-1.8,2.3-4.3c0.9-1.3,1.9-2.5,2.2-3.2
									c0.4-0.7,0.2-0.9-1-0.2c2.8-2.9,0.9,0.5,3.4-1.4c0.7-1,1.4-2,2.2-2.9s1.7-1.9,2.6-2.8c0.9-0.9,1.8-1.9,2.8-2.8
									s2-1.8,3.1-2.7c1.1-0.9,2.1-1.8,3.2-2.7c1.1-0.9,2.2-1.8,3.4-2.7c2.2-1.9,4.5-3.6,6.8-5.5c-0.1-0.4-2,0.4-0.3-1.6
									c2-0.9,4.1-1.5,6.1-2.3c0.9-0.7,1-1.5,1.5-2.2c0.2-0.4,0.5-0.7,1-1.1c0.5-0.3,1.2-0.7,2.3-1c-0.7,0.1-1.7,0.2-0.4-0.8
									c10.2-5.6,20.5-11.4,31.5-15.8c11-4.5,22.7-7.6,34.5-7.9c-3.2-0.1-1.2-0.6,1.2-1c-1.6,0.1-0.1-0.9-0.5-1.3h5
									c1.7,0,3.3,0,5,0.1c0.8-0.7,3.5-0.9,6-1.2c1.3-0.1,2.5-0.2,3.5-0.3s1.7-0.3,2-0.6l-3.1,0.3c2-0.8,0.6-1.6-1.4-2.4
									c-2-0.7-4.4-1.5-4.2-2.5c-1.2,0.5-2.5,0.7-4.1,0.7c-1.5,0-3.2,0-5-0.1c-0.9,0-1.8,0-2.8,0c-0.9,0-1.9,0.1-2.8,0.2
									c-1.9,0.3-3.8,0.9-5.6,1.8c-1.8-0.1,1.3-0.9,0.3-1.1c-1.8,1.1-4.1,1.9-8.6,2.5l0.4-0.3c-0.8,0.2-1.5,0.4-2.2,0.5
									c-0.7,0.2-1.4,0.4-2.1,0.6c-1.3,0.4-2.6,0.7-3.8,1c-2.4,0.6-4.6,1.3-6.9,1.9c-1.1,0.3-2.3,0.6-3.5,1
									c-1.2,0.3-2.4,0.8-3.7,1.2c-2.6,0.9-5.5,1.8-8.7,3.2l1.3,0.4c-2.8,1.1-3.5,1.1-4.9,1.5c-2.6,2.7,7.8-3.5,5.6-0.7
									c-1.1,0-2.9,0.5-5,1.3s-4.4,2.1-6.8,3.2c-0.6,0.3-1.2,0.6-1.7,0.9c-0.6,0.3-1.1,0.6-1.7,0.9c-1.1,0.6-2.1,1.1-3.1,1.6
									c-1.9,0.9-3.4,1.4-4.3,1.4c-4,2.5,1.7,0.2-2.2,2.7l-1.4,0.2l-0.6,1.3c-1.3,0.8-2.4,1.3-3.2,1.5s-1.3,0.2-1.5,0.1
									c0.6-0.4,1.7-1.4,2.3-1.9c-1.8,0.9-4.1,2.6-6.1,4.1c-2,1.6-3.5,3.1-4.1,3.4c1.3-0.8,2.5-1.7,3.8-2.5c-1.2,1-2.5,2.1-3.8,3.2
									s-2.7,2.1-4,3.3c-2.6,2.3-5.4,4.5-7.9,7.1c-1.3,1.2-2.5,2.5-3.8,3.7c-1.2,1.3-2.4,2.6-3.5,3.8c-2.3,2.5-4.3,5.2-6.1,7.7
									l1-0.4c-0.7,1-1.3,1.8-1.8,2.4c-0.5,0.7-0.9,1.3-1.4,1.8c-0.8,1-1.5,1.7-2.2,2.5c-0.7,0.7-1.4,1.5-2.3,2.6
									c-0.9,1.1-1.9,2.6-3.4,4.8l0.1-0.4c-0.9,1.9-2.1,4.4-3.7,6.7c1-2.5-3.5,3.6-2.2,0.4c-0.3,0.6-0.6,1.1-0.8,1.6
									s-0.4,0.9-0.6,1.3c-0.3,0.8-0.6,1.4-0.8,1.9c-0.4,1-0.6,1.5-0.7,1.9c-0.1,0.4-0.1,0.8-0.2,1.4c-0.1,0.7-0.3,1.6-0.7,3.3
									l-1.4,1c-0.2,1.2-0.3,1.8-0.5,2.8c-0.3,1-0.8,2.2-1.7,4.6c1.2-4.1-2.4,2.5-1.2-2.2c-1.5,2.3-2.6,4.4-3.4,6.4
									c-0.8,2-1.3,3.7-1.7,5.3s-0.9,3-1.4,4.3s-1.1,2.4-2.1,3.4c0.2,2.7,1.2,0.5,2.1-1.9c0.9-2.5,1.9-5.2,1.6-3.8
									c0.7-1,0.7,0.1,0.3,1.8c-0.3,1.7-0.9,4.1-1.6,5.7c-0.6,1.6-1.7,2.8-2.9,4.7c-0.6,0.9-1.2,2-1.9,3.4c-0.3,0.7-0.6,1.5-1,2.3
									c-0.3,0.9-0.5,1.8-0.8,2.9c0.2-0.8,0.1-0.9,0.3-1.8c-0.6,1.5-0.8,3.1-1.1,4.8c-0.1,0.8-0.3,1.7-0.5,2.6
									c-0.2,0.9-0.4,1.8-0.8,2.8c0.8,2.4-1,5.1,0.5,6l1-7.9c-0.2,2.3,0,4.5-0.1,7.1c0,2.6-0.1,5.5-1,9.1c-0.2-0.6-0.4-2.8-0.4-4.4
									c-0.4,1-0.4,2.1-0.5,3.2c-0.1,1.1-0.1,2.1-0.4,3.2c-0.4-0.2-0.6-0.9-0.6-1.9s0.1-2.4,0.3-3.8c0.2-1.5,0.4-3.1,0.5-4.6
									c0.2-1.5,0.3-3,0.2-4.3c-0.5,1.1-0.7,3.4-0.8,5.1c-0.1,1.7-0.2,2.8-0.9,1.5c0.9,1.9,0.5,4,0.1,6.4c-0.3,2.4-0.7,5.2-0.1,8.2
									l-0.9-0.4c0,0.9,0.4,2.9,0.4,4.6l-1.1-3.2c0.9,4.8-1.2,9.3-0.5,13.9c-0.1-4.9,0.2-5.4,0.5-5.2c0.4,0.2,0.8,1,1.2-1
									c0.1,1.5,0.2,2.7,0.3,3.7c0,1,0,1.8,0,2.6c-0.1,1.4-0.4,2.3-0.8,3.3c-0.4,1-0.6,2-0.8,3.6c-0.1,1.6-0.2,3.8,0.3,7.2
									c-0.3-1.8,0-6.8,0.7-4.1c0,1.3-0.1,2.8-0.1,4.1c0,1.4-0.1,2.6-0.2,3.4c1.3,8.8,0.8-1.5,1.9,2.2c-0.8,3.2,1.1,4.2,2.1,7.9
									l-0.9,0.2c0.1,1.3,0.3,2.2,0.4,3c0.2,0.8,0.4,1.3,0.5,1.7c0.3,0.8,0.6,1.1,0.9,1.3c0.6,0.4,1.1,0.7,1.8,5.2l-2.2-3.4
									c0.5,1.5,0.9,3,1.4,4.5c-0.4-0.2-0.9-0.4-1.3-0.7c1.1,2.4,1.7,4,2.2,5.6c0.2,0.8,0.4,1.6,0.6,2.5c0.2,0.9,0.5,1.9,0.8,3.1
									c0.3-1.3,1.9,0.1,3.3,4.3c0.5,3-1.5-1.3,0.9,4.6c-0.5-0.6-1.1-1.1-1.6-1.9c-0.2-0.4-0.5-0.9-0.6-1.4s-0.2-1.2-0.2-1.9
									c-0.4-0.2-1-1.1-1.4-1.3c0.3,3.4,2.7,7.8,3.6,10c-0.3-0.8-0.6-1.8-0.7-2.4c0.8,1.3,1.5,2.7,2.3,4l2.5,3.9
									c0.3,1.5-0.5,0.5-1.2-0.4c0.4,0.8,0.9,1.5,1.4,2.2c0.5,0.8,1,1.6,1.7,2.8c-1-0.3-1.7,0.3-3.7-3.2c1.4,2.6,3.1,5,4.7,7.5
									c0,0.3,0.3,1.5,0.5,2.4s0.4,1.6,0,1.2c1,2.2,2.8,4.7,4.8,7.2c1,1.3,2.1,2.5,3,3.9c1,1.3,1.8,2.7,2.7,4.1
									c0.3,0.2,0.8,0.7,1.7,1.7c0.8,1.3,1.6,2.5,2.4,3.8c0.8,1.2,1.6,2.4,2.5,3.7c0.9,1.2,1.8,2.5,2.9,3.7
									c1.1,1.2,2.3,2.4,3.7,3.5c0.6,1.3,1,2.7,1.7,4c4.1,3.9-2.5-5.2,4.3,1.2c2.4,2.2,2.6,2.9,2.4,3.2c-0.2,0.3-0.9,0.4-0.2,1.3
									c1.4,0.9,3.5,2.1,5.5,3.6c2.1,1.5,4.4,3.4,6.3,5.8C911.1,351.3,910.1,350.1,908.6,348.9z M968.2,383.3
									c-0.7-0.1-1.7-0.2-2.6-0.5c-0.9-0.2-1.8-0.6-2.1-1c0.9-0.2,1.6-0.1,2.3,0.2C966.4,382.3,967.2,382.7,968.2,383.3z
									 M1071,385.2c-0.9,0.6-2.4,0.7-4.1,0.8C1068,385.6,1069.4,385.4,1071,385.2z M1186,160.7l0.1,0.1
									C1186.6,163.6,1186.5,162.6,1186,160.7z M1184.4,155c-0.3-0.5-0.5-0.4-0.5-0.1c0.4,0.3,0.9,1.5,1.4,2.9
									C1185.4,157.4,1185.2,156.6,1184.4,155z M862.4,175.1l-0.5,1.1C862.2,173.6,862.3,174.4,862.4,175.1z"/>
								<path class="st0" d="M1059.8,389.1c-0.4-0.1-0.5-0.3-0.7-0.4C1058.6,388.9,1058.7,389.1,1059.8,389.1z"/>
								<path class="st0" d="M879.7,317l-0.1-0.2c-0.1-0.1-0.2-0.1-0.3-0.1L879.7,317z"/>
								<path class="st0" d="M1201.1,246.3c-0.4,1.2-0.7,1.9-0.9,2.3C1200.4,248.7,1200.7,248.2,1201.1,246.3z"/>
								<path class="st0" d="M1169.1,127.9c0.8,1,1.4,2,2.1,3.1c-0.9-1.5-1.1-2.2-1.4-3.1C1169.7,128.1,1169.8,128.9,1169.1,127.9z"
									/>
								<path class="st0" d="M1153.9,98.1c-0.5-0.3-0.8-0.9-1.3-1.2l-0.2,0.4C1154,99,1155.5,100,1153.9,98.1z"/>
								<path class="st0" d="M1170,123.3c0.3-0.3,0-1-0.5-1.8c-0.3-0.4-0.6-0.9-0.9-1.4c-0.4-0.5-0.8-1-1.2-1.5
									c0.1,0.1,0.2,0.2,0.3,0.4c-0.7,0-0.6,0.5,0,1.3C1168.1,121.1,1169,122.2,1170,123.3z"/>
								<path class="st0" d="M1166.9,118.1c-0.5-0.7-1-1.3-1.5-2C1164.9,116.1,1166,117,1166.9,118.1z"/>
								<path class="st0" d="M1181.1,148.3c-0.3-1.2-1.3-0.3-1.3-1.1c-0.8-0.4,0.4,1.3,1.3,2.5c0.5,0.6,0.8,1,0.9,0.9
									C1182.1,150.5,1181.9,149.8,1181.1,148.3z"/>
								<polygon class="st0" points="1171,120 1170.7,121.3 1172.2,122.2 								"/>
								<path class="st0" d="M1181.1,138.8l-1.7-4c-0.1,0.1-0.5-0.3-0.8-0.9C1179.7,136.4,1180.9,139.1,1181.1,138.8z"/>
								<path class="st0" d="M1178.5,134c-0.6-1.2-1.3-2.3-1.9-2.9C1177,131.7,1177.9,133.1,1178.5,134z"/>
								<path class="st0" d="M1174.5,124.8c0.2,0.4,0.3,0.8,0.5,1.2l1.5,2.7C1175.8,127.4,1175.2,126,1174.5,124.8z"/>
								<path class="st0" d="M1195.8,182.7l1.1,4.6c0.4,0.4,0.4-0.9,0-2.6C1196.4,183.6,1196,181.9,1195.8,182.7z"/>
								<path class="st0" d="M1195.1,168.1c0.2,1.3,0,1.4-0.2,2.2l1.2-0.2L1195.1,168.1z"/>
								<path class="st0" d="M1198.7,181.6c0.4,0.4,2.2,6.7,1,0.7c-0.2-0.2-0.6-1.5-0.9-2.2c-0.2-0.3-0.3-0.5-0.3-0.3
									C1198.5,180,1198.5,180.5,1198.7,181.6z"/>
								<polygon class="st0" points="1196.4,252.9 1196.6,251.7 1194.6,251.5 								"/>
								<path class="st0" d="M1176.2,313.3c3.5-4.6-0.3-1.8,3-5.9c0.1-0.7-0.5,0.2-1.2,1s-1.3,1.7-1.1,1
									C1175.4,312.6,1174.2,314,1176.2,313.3z"/>
								<path class="st0" d="M1176.9,309.4c0.2-0.5,0.5-1.1,0.7-1.6C1177.1,308.7,1177,309.1,1176.9,309.4z"/>
								<path class="st0" d="M1017.1,47.7c1.2,0,2.3,0.2,3.5,0.3l-2.3-0.6C1017.9,47.5,1017.5,47.6,1017.1,47.7z"/>
								<path class="st0" d="M1023.8,46l0.8,1.3l2.1-1.2C1026,46.1,1024.4,46.3,1023.8,46z"/>
								<path class="st0" d="M977.3,388.9l0.4-0.2c-0.5-0.5-1.3-0.7-3-1.3L977.3,388.9z"/>
								<polygon class="st0" points="931.5,367.4 932.2,367.9 931.5,366 								"/>
								<path class="st0" d="M897.5,341.8c0.6,0.6,1.3,1.3,2,1.9s1.5,1.2,2.1,1.9C898.6,343.1,898.2,340.4,897.5,341.8z"/>
							</g>
						</g>
					</g>
				</g>
			</g>
			<rect x="1004.7" y="165" class="st1" width="205" height="244"/>
			<circle class="st2" cx="1193.7" cy="215.7" r="41.8"/>
			<g>
				<g>
					<line class="st3" x1="948.7" y1="215.7" x2="1127.5" y2="215.7"/>
					<g>
						<polygon class="st4" points="903.9,245.4 954.1,215.5 903.9,185.6 						"/>
					</g>
					<g>
						<rect x="1124.5" y="196.2" class="st4" width="6" height="39"/>
					</g>
				</g>
			</g>
			<g class="st5">
				<path class="st4" d="M1035.5,370.2c0.9-0.7,1.8-1.1,2.6-1c0.9,0.1,1.6,0.3,2.1,0.9c0.5,0.5,0.8,1.2,0.9,2.1
					c0.1,0.9-0.3,1.8-1,2.6c-2,1.9-3.9,3.8-5.7,5.8c-1.9,2-3.7,3.9-5.5,5.9c2.2,2.5,4.3,5.1,6.3,7.8c2,2.7,3.8,5.4,5.6,8.3
					c0.3,1,0.3,1.9,0,2.6c-0.3,0.7-0.7,1.3-1.3,1.6s-1.3,0.5-2,0.4c-0.8-0.1-1.5-0.5-2.3-1.3c-1.5-2.5-3.2-5-5-7.4
					c-1.8-2.4-3.7-4.7-5.6-7c-3.5,4.3-6.8,8.8-10,13.7c-0.7,0.9-1.5,1.4-2.4,1.5c-0.9,0.1-1.6-0.1-2.3-0.5c-0.6-0.4-1-1.1-1.2-2
					s0-1.8,0.7-2.8c1.6-2.6,3.4-5.1,5.2-7.6c1.8-2.5,3.7-4.9,5.7-7.3c-1.7-1.8-3.4-3.7-5.2-5.5c-1.8-1.8-3.5-3.6-5.3-5.5
					c-0.8-0.8-1.3-1.7-1.3-2.6c0-0.9,0.2-1.6,0.7-2.1c0.5-0.6,1.2-0.9,2.1-1c0.9-0.1,1.8,0.1,2.7,0.8c1.8,1.8,3.6,3.7,5.4,5.5
					c1.8,1.8,3.5,3.6,5.2,5.5c1.7-1.9,3.5-3.9,5.4-5.8C1031.8,373.9,1033.6,372,1035.5,370.2z"/>
			</g>
		</g>
	</g>
	<g>
		<g>
			<g>
				<g>
					<g>
						<path class="st0" d="M577.4,47.4c-1.6-0.1-1,0.7-1.2,0.9C578.8,48.2,577.3,47.2,577.4,47.4z"/>
						<polygon class="st0" points="603.4,47.7 602.8,48 606.8,47.8 						"/>
						<path class="st0" d="M627.1,53.3c-0.9-1-3-1.6-5.5-2.1c-2.4-0.6-5.1-0.9-7.2-1.6l-0.6-0.5l-2.2,0.7c1.3,0.3,2.7,0.5,4.1,0.7
							c1.4,0.2,2.9,0.4,4.3,0.8C622.8,51.9,625.3,52.5,627.1,53.3z"/>
						<path class="st0" d="M638.1,60.5c-0.5-0.8,2.7,0.6-2.7-1.3c0.2,0.2,0.3,0.2,0.5,0.3C636.4,59.8,637,60.1,638.1,60.5z"/>
						<path class="st0" d="M635.9,59.6C633.5,58.7,637.2,60.7,635.9,59.6L635.9,59.6z"/>
						<path class="st0" d="M646.7,63.9l-3.2-0.9c0.5,0.6,3.1,1.9,2.1,1.6C648.7,65.7,648.3,65.1,646.7,63.9z"/>
						<path class="st0" d="M650,64.3c-0.5-0.2-1.1-0.4-1.7-0.6C648.6,63.9,649,64.2,650,64.3z"/>
						<path class="st0" d="M644.8,62.6l3.5,1.1c-0.3-0.4-0.2-0.8-1.6-0.5C647.2,62.9,646.4,63,644.8,62.6z"/>
						<path class="st0" d="M643,61.5c-0.8-0.5-1.7-1.1-2.1-1.4c-0.3-0.3,0-0.4,1.6,0.1c-3-1.2-4.4-1.3-4.3-1
							c0.1,0.2,0.5,0.5,1.3,0.8C640.4,60.4,641.6,60.9,643,61.5z"/>
						<path class="st0" d="M628.7,52.3c-0.8-0.4-1.5-0.8-2.3-1.2l-2.3-0.1c0.6,0,1.7,0.5,2.7,0.8C627.8,52.2,628.7,52.5,628.7,52.3z
							"/>
						<path class="st0" d="M664.5,74.4c0.3-0.1-0.5-1.3-0.5-1.8c-0.7-0.4-1.5-0.7-2.3-1C662.7,72.4,664.6,73.9,664.5,74.4z"/>
						<path class="st0" d="M664,72.6l3.4,1.6C664.6,72.3,664,72.2,664,72.6z"/>
						<path class="st0" d="M651.3,63.1l-1.5-0.5l-1.5-0.4l-3-0.8c2.4,0.7,4.7,1.3,7.1,2.1L651.3,63.1z"/>
						<path class="st0" d="M676,82.3c-0.7-0.2-1.4-0.4-2.1-0.6l1.8,0.6l1.8,0.7L676,82.3z"/>
						<path class="st0" d="M683.3,88c-1.5-0.6,0.9,2.1-0.5,1.3c1.9,1.6,3.9,2.6,5.6,3.5C686.8,91.6,685.2,90.2,683.3,88z"/>
						<path class="st0" d="M691.3,94.6c-0.8-0.6-1.8-1.2-2.8-1.8C689.4,93.5,690.3,94.1,691.3,94.6z"/>
						<path class="st0" d="M672.5,77.8c0.1,0.3,0.3,1,1.9,2.4l-0.7-1.5C673.3,78.4,672.9,78.1,672.5,77.8z"/>
						<path class="st0" d="M673.7,78.6L673.7,78.6c1.3,1,2.2,1.6,2.6,1.9C675.9,80.3,675.1,79.7,673.7,78.6z"/>
						<path class="st0" d="M672.2,77.6c0.1,0.1,0.2,0.1,0.3,0.2C672.5,77.6,672.4,77.6,672.2,77.6z"/>
						<path class="st0" d="M659.5,68.4c2.1,0.7,6.4,2.5,2.9-0.3C660.7,67.8,662.7,69.4,659.5,68.4z"/>
						<path class="st0" d="M671.4,75.7c-1-0.8-2.1-1.5-3.2-2.3c-0.1,0.2,0.4,0.9-0.7,0.5C668.8,74.4,670.1,75,671.4,75.7z"/>
						<polygon class="st0" points="673.1,76.6 671.4,75.7 672.5,76.6 						"/>
						<path class="st0" d="M686.9,89.5c0.8,0.4,1.5,0.9,2.3,1.5c0.7,0.6,1.5,1.3,2.2,2c-0.8-0.8-1.5-1.7-2.4-2.5
							c-0.8-0.8-1.7-1.5-2.5-2.3C686.1,88.2,685.1,88,686.9,89.5z"/>
						<path class="st0" d="M680.7,84c0.1,0.1,0.2,0.1,0.3,0.2C680.9,84,680.7,83.8,680.7,84z"/>
						<path class="st0" d="M705.5,107.9c0-0.1-0.1-0.2-0.1-0.3c-0.1,0-0.1,0-0.2,0L705.5,107.9z"/>
						<path class="st0" d="M686.3,87.9c-1.2-1.2-2.1-1.7-3-2.2c1,0.8,2.1,1.6,3.1,2.5C686.7,88.2,686.8,88.2,686.3,87.9z"/>
						<path class="st0" d="M695.7,98.3c-0.5-0.8-1.1-1.6-1.7-2.4C694.4,96.7,695.3,98.2,695.7,98.3z"/>
						<path class="st0" d="M681.3,84.7c-0.1,0-0.1-0.1-0.2-0.1C681.4,85.1,681.4,85,681.3,84.7z"/>
						<path class="st0" d="M681.3,84.7c0.8,0.4,1.4,0.7,2.1,1c-0.8-0.6-1.7-1.1-2.4-1.5C681.1,84.3,681.2,84.6,681.3,84.7z"/>
						<path class="st0" d="M713.8,109.5c-0.4,0.1-1.5-0.6-2.6-1.8c-0.6-0.6-1.2-1.3-1.8-2.1c-0.6-0.8-1.2-1.6-1.7-2.5
							c-3-2.5-3.3,1.1-2.2,4.5c0.3-0.1,0.6-0.4,3.4,2.4c-0.4-1.4-4.8-7.3-2.1-5.3c1.9,1.8,2.5,2.7,2.8,3.4c0.3,0.7,0.3,1.2,1,2.3
							c-0.3-1.2,1-0.1,2.5,1.1c1.5,1.1,2.9,2.5,3.2,1.6c-1-1.2-2.1-2.3-3.2-3.4C713.1,109.5,714.4,110.6,713.8,109.5z"/>
						<path class="st0" d="M700.6,102l-1.2-1.1c1.2,1.4,1.8,2.6,2.9,4.8c2,1.7,2.6,2,2.9,1.9c-1.7-2-3.3-4-5.1-6L700.6,102z"/>
						<path class="st0" d="M694.5,95.7c1.5,0.2,4.4,2.8,3.5,0.4c-0.8-0.9-1.4-1.4-1.9-1.7c-0.5-0.3-0.8-0.5-1.1-0.6
							c-0.6-0.3-1-0.3-2.2-1.1C698.5,97.8,690.9,91.5,694.5,95.7c-1.2-0.9-2.2-1.8-3.1-2.7c0.9,1,1.8,2,2.6,3c0-0.1-0.1-0.1-0.1-0.2
							l0,0l0,0c-0.2-0.3-0.2-0.4,0-0.1l0.1,0.1C694.1,95.7,694.3,95.7,694.5,95.7c1.5,1.6,0.1,0.4-0.5,0c0,0-0.1,0-0.2,0l0,0
							c1,0.8,1.9,1.7,2.8,2.5l2.8,2.6C698.4,99.6,697.1,98.1,694.5,95.7z"/>
						<path class="st0" d="M666.9,68.6c0.2,0.2,0.1,0.2,0.1,0.3C667.5,69.1,667.7,69.1,666.9,68.6z"/>
						<path class="st0" d="M669.3,70.7c-0.5-0.2-1.1-0.2-2.6-1.2c-1.2-1.1,0.2-0.3,0.3-0.6c-1-0.4-3.6-1.5-0.9,0.7l0.5,0.2
							c2.5,1.9,5.2,5,4.7,4.8C671,73.4,670.6,72.5,669.3,70.7z"/>
						<path class="st0" d="M682.9,82.6c1.8,1.2,3.5,2.5,5.2,3.8l-2-2.7l-0.2,0.5C683.3,81.7,683.5,82.6,682.9,82.6z"/>
						<path class="st0" d="M705.7,108.8h-1.2c1.1,0.6,2.2,1.3,3.3,2L705.7,108.8z"/>
						<path class="st0" d="M710.8,115.1l-0.8,0.2c0.6,0.5,1.1,1,1.6,1.5L710.8,115.1z"/>
						<path class="st0" d="M485.5,368.7l-1.8-0.8C484.5,368.4,485.1,368.6,485.5,368.7z"/>
						<path class="st0" d="M498,375.5l0.5-0.2C497.8,375.2,497.5,375.3,498,375.5z"/>
						<path class="st0" d="M719.2,304.1c-2.1,1.9-4.6,3.8-3.7,4l1.2-0.2C717.5,306.2,718.3,305.1,719.2,304.1z"/>
						<path class="st0" d="M610.3,385.6c0.3,0,0.6,0.1,0.9,0.1c0.6-0.4,1.2-0.9,1.7-1.2C612,384.9,611.2,385.3,610.3,385.6z"/>
						<path class="st0" d="M609,389.5l-3.8,0.1C606.1,389.7,607.3,389.6,609,389.5z"/>
						<path class="st0" d="M428.7,316.8c-0.7-0.5-1.4-0.9-2-1.4C428.7,318.4,428.2,316.8,428.7,316.8z"/>
						<path class="st0" d="M742.8,191.7c0,2.4,0,4.2,0.2,5.8C743.2,194.7,743.6,192.3,742.8,191.7z"/>
						<path class="st0" d="M494.8,363.5c-1.1-0.4-1.6-0.5-1.6-0.3C494.3,363.6,494.9,363.8,494.8,363.5z"/>
						<path class="st0" d="M743.6,204.2c0.1-0.4,0.1-0.8,0.1-1.2c-0.3-1.7-0.5-3.4-0.7-5.4C742.9,199.6,742.8,202,743.6,204.2z"/>
						<path class="st0" d="M476.6,68c0.2-0.1,0.4-0.2,0.6-0.3C477.1,67.6,476.9,67.8,476.6,68z"/>
						<path class="st0" d="M553.6,47.9c-0.8,0.1-2,0.3-3.2,0.5C551,48.3,552,48.2,553.6,47.9z"/>
						<path class="st0" d="M727.5,143.4C726.7,141.9,727.3,143.2,727.5,143.4L727.5,143.4z"/>
						<path class="st0" d="M726.7,134.3c0.3,0.3,0.5,0.5,0.7,0.4C727.1,134.7,726.9,134.5,726.7,134.3z"/>
						<path class="st0" d="M749.3,221.6c0,0.1,0,0.1,0,0.2C749.4,221.3,749.4,221.4,749.3,221.6z"/>
						<path class="st0" d="M726.7,140.9c0.2,0.6,0.5,1.3,0.8,2.1C727.4,142.6,727.1,142,726.7,140.9z"/>
						<path class="st0" d="M726.5,141.4c-0.2-0.5-0.4-1-0.6-1.4C725.6,139.9,725.6,140.1,726.5,141.4z"/>
						<path class="st0" d="M728.5,145.6c-0.4-0.9-0.8-1.8-1.1-2.6c0.1,0.3,0.1,0.5,0,0.4C727.7,143.9,728,144.5,728.5,145.6z"/>
						<path class="st0" d="M401.9,192.6c0-0.1,0.1-0.3,0.1-0.4C402,190.4,401.9,191.2,401.9,192.6z"/>
						<path class="st0" d="M696.6,345.5c0.1-0.1,0.1-0.1,0.1-0.2C696.7,345.4,696.6,345.5,696.6,345.5L696.6,345.5z"/>
						<path class="st0" d="M692.2,350.4c1.4-2.7,2.7-3.5,4.4-4.9c-1.1-0.1-2.2-0.2-3.3-0.4C692.9,346.9,692.6,348.6,692.2,350.4z"/>
						<path class="st0" d="M458,348.9l3,3.6c-5.1-2.7-7.9-5.8-5.3-2c0.6-0.4,1.7,0.1,3.2,1.1s3.2,2.5,5,3.8c1.8,1.4,3.6,2.7,5.1,3.7
							c1.5,0.9,2.7,1.3,3.3,0.8l2.2,2.2c-0.7-0.5-0.9-0.5-1.6-1c4.1,4.5,4.7,0.9,10.9,5.4c2.1,1.6,3.6,2.8,1.8,2.2l5.5,2.4
							c0.7,0.5,1,0.7,0.8,0.8c-0.2,0.1-0.7-0.1-1.4-0.6c2.7,1.4,5.4,2.7,8.1,4h-0.1c1.3,0.2,4.3,0.8,5.7,1.1
							c1.9,1.3-1.2-0.2-0.8,0.3c1.6,0.5,3.2,1,4.8,1.4c0.8,0.7,0.2,0.8-1,0.6c-1.2-0.3-3-0.9-4.5-1.7c1.6,2.2,2.6,2.5,4.3,2.9
							c1.7,0.3,4.1,0.8,8.6,3.4c-1.5-0.4-3-0.9-4.6-1.4c1.2,1.3,2.6,2.2,4.5,3c1.8,0.8,4,1.6,6.4,3c-1.1-0.9-9.5-5.8-4.1-4.6
							c1.4,0.7,3.3,1.5,6.2,1.8c-0.3,0.9,2.6,1.5,6,2.4l-0.6,1.2c1.9,0.4,2.9,0.3,3.6,0.2c0.7-0.1,1.3-0.3,2.5-0.3
							c4.2,1.1,4.9,2.3,5.7,3.3c6.8,1.4-4.4-2.4,3.7-1.2c1.4,0.4,2.7,0.7,4,0.9c1.3,0.2,2.5,0.3,3.8,0.4c2.6,0.2,5.3,0.2,8.8,0.1
							c4,0.7-0.8,0.7,0.6,1.2l3.6-0.7c0.9,0.1,0.6,0.4,0.4,0.5c3-0.2,0.3-1.2,5-1.5c0.7-0.7,3-0.1,6,0.4c1.5,0.2,3.1,0.4,4.8,0.4
							c1.6,0,3.2-0.1,4.7-0.6c1.5,0.3-0.6,0.8-0.2,1.3c4-0.8,5.7-1.1,7.2-1.5s2.8-0.9,6-2c1.9,0.1,3.8,0.1,5.6,0
							c-4.2-0.2,0.8-2.3,5-4c-1.5-0.2-2.8-0.4-3.6-0.4l3.5-1c1.2-0.3,2.3-0.7,3.4-1.1c0.9,0,0.3,0.6-0.7,1.4
							c0.5-0.2,0.9-0.4,1.2-0.6c2.6-0.1,1.5,0.9-0.2,2c-0.9,0-1.8-0.1-2.7-0.2c-1.6,1.1-3.1,2.2-2.6,2.9c0.4-0.2,1.3-0.5,2.3-0.8
							c-0.4,0.3-0.7,0.5-0.4,0.6s1-0.3,2.1-0.9l1.9,1l0.3-0.6l4.8-0.6c1.6-0.2,3.2-0.6,4.8-0.8c1.6-0.8,3-1.6,4.5-2.5s3-1.9,4.6-2.8
							s3.3-1.9,5.2-3c1-0.5,2-1.1,3-1.6c1.1-0.5,2.2-1.1,3.4-1.7c-2,2.1,0.1,1.8,0.5,3c-1.6,0-3.5,0.9-5.7,2
							c-1.1,0.6-2.2,1.2-3.5,1.8c-1.2,0.5-2.5,1.1-3.9,1.4c2.8-0.8,2.4,0,1.8,0.4c3.1-1.4,6-3.1,9-4.7c0.1,0.5,0.7,0.5,1.5,0.3
							c0.9-0.2,2-0.7,3.3-1.1c-1.3-0.5,0.3-1.6,2.6-2.8c0.6-0.3,1.2-0.6,1.9-0.9c0.6-0.3,1.3-0.7,1.9-1.1c1.2-0.7,2.4-1.4,3.3-2
							c0.5,0.5,0,1.5-4.5,3.7c2.8-0.6,4.1-1.9,5.4-3.3c1.3-1.3,2.5-2.8,5.1-3.6c-1,0.6-1.7,0.9-1.9,1.4c1.1-1,3.2-2.2,4.9-3
							c1.7-0.9,2.9-1.4,2.4-0.7l-1,0.7c1.7-1,3.9-2.4,6.2-3.9c2.2-1.5,4.5-3.3,6.6-4.9s3.8-3.3,5.1-4.7c1.3-1.3,2.1-2.4,2-2.9
							c0.2,0.1,0.5,2.3,0.3,2.8c2.5-4.6,4.8-9.1,6.8-13.8c0.1,1.9,6,1.1,1.7,6.3c0.8-0.6,1.6-1.3,2.6-2.2c1-0.9,2.1-2.1,3.3-3.7
							c-1.1,0.8-3.8,0.9-2.6-0.5c2.3-1.2,3-1.7,3.8-2.3c0.8-0.6,1.8-1.3,4.3-3.1c-1.5,1.3-1.8-1.9,0.3-4.2c-0.1,0.6,1.9,1.3,1.3,2.3
							l1.7-3.7c0.6-1.2,1-2.5,1.5-3.7c-0.9,1.8,1.3,1.5,2.9,0.5c-0.4,0.2,0.6-1.1,1.9-2.7c1.3-1.6,2.7-3.6,3.2-4.5l-2.3,2.4
							c2.7-3.5,3.3-5.7,3.8-7.9c0.2-1.1,0.5-2.2,0.9-3.5s1.2-2.7,2.2-4.6c-0.1,1.1,1.2,3.7,3.6,0c0-0.6,0-1.5,0-2.7s0.1-2.6,0.1-4.2
							c0.1-3.2,0.7-6.9,1.7-10.5l1.2-1c0.6-1.8,1.1-3.7,1.6-5.5c0.2,2,0,5.6-0.3,9.5c-0.1,2-0.5,3.9-0.8,5.8s-0.6,3.6-1,5
							c2-2.7,1.1-0.4,3.3-4.9c1.3-1.3-0.4,2.8-1,4.1l2.8-5.1l0.7-1.3l0.6-1.3l1.3-2.6c-0.7,0-0.1-2.2,0.5-4.3
							c0.5-2.2,1.1-4.3,0.5-4.3c-1,4.1-2.4,8-3.7,12c-0.7-0.1-0.8-2.1-0.3-5c0.2-1.5,0.7-3.1,1.1-4.9c0.5-1.8,1.1-3.7,1.9-5.5
							c1.3-1.7,1.7,2.3,2.2,2.3c0-0.6,0.5-2.4,1-4.3c0.5-1.8,1.1-3.6,1.3-3.9l-0.4,3.5c1-2.1,1.1-4,1.4-5.9c0.3-2,0.5-4,1.9-6.5
							c0.3-0.9,1.1-2.1,1.7-3.2c0.6-1.1,1-2,0.7-2.3c-2.2,2.6-6.9,2-7.6-0.2c0.1-0.3,1-2.5,2-4.9c0.3-0.6,0.5-1.2,0.8-1.8
							c0.2-0.6,0.5-1.2,0.7-1.7c0.4-1.1,0.8-2,1.1-2.5c1.7-2.8,2,5,3.5,2.6c-0.3-0.2-0.5-1.9-0.5-2.6c0.7-1.9,1,1,1.6-3.2
							c-1.2-0.9,1.2-8.6-0.9-2.2c0.1-2.1,0.3-3.2,0.5-4.3c0.3-1.2,0.6-2.4,0.7-4.9c-0.5,0.7-1.2-0.4-1.7-2.3
							c-0.6-1.8-0.9-4.3-1.1-6.4c0.3,0.3,0.8-0.6,1-1.1c0.1-2.1,0.2-3.9,0.3-5.7c0-1.7,0.1-3.3,0.1-4.9c0-1.6,0.1-3.1,0.1-4.8
							c-0.1-1.7-0.2-3.4-0.3-5.4c0.3-0.7,0.4-4.6,1.1-3c-0.4-1.1-1-2.1-1.3-4.5c0.6-4.8,0.9,5.4,1.8,1.6c-0.9-0.2-1.8-6.2-3-9.5
							c-0.3,0.3-0.3,1-0.2,1.8c0.1,0.9,0.3,1.9,0.5,3c0.4,2.3,1.1,4.8,1.6,6.5c-0.8,0.1-1.9-1.3-2.9-3.7c-0.5-1.2-1-2.6-1.6-4.3
							c-0.6-1.6-1.2-3.4-1.7-5.4c-0.7-3.1-0.7-3.8-0.4-3.9c0.3-0.1,0.7,0.5,0.5-0.1c-0.6-3-1.2-5-1.8-6.6c-0.7-1.6-1.4-2.6-2-3.7
							c-0.6-1-1.2-2-1.7-3.3s-1.1-3-1.6-5.4c-0.3-4.1,2-0.9,2.4-2c1,2.4,1.5,4.4,1.9,6.2c0.3,1.8,0.5,3.4,1,5.1l-0.7-4.4
							c0.8,1.5,2,4.8,2.3,6.8c0-0.9-0.3-2.5-0.9-4.7c-0.3-1.1-0.6-2.3-0.9-3.6c-0.4-1.3-0.9-2.6-1.3-4c-0.5-1.4-0.9-2.9-1.4-4.3
							c-0.5-1.4-1.1-2.9-1.6-4.3c-0.5-1.4-1-2.8-1.5-4.1s-1-2.5-1.4-3.6c-1-1.4-2.5-3.9-2.4-2.4l1.4,2.6c0.3,2.8-3.4-4.6-2.2-1
							c-1-1.7-2.4-3.3-3.7-5.3c-0.6-1-1.3-2-1.9-3.1c-0.7-1.1-1.3-2.2-1.9-3.5l0.5-1.5c-0.3,0.3,1.2,3.5,2.3,4.7
							c-0.8-0.9-1.5-2.9-2.3-4.9c-0.4-1-0.9-2-1.4-2.8c-0.6-0.8-1.2-1.5-1.8-1.8c0.5,1.2,0.9,2.5,1.3,3.7c-1.2-1.6-2.9-3.1-4.4-4.9
							c-0.8-0.9-1.5-1.8-2.3-2.7c-0.8-0.9-1.5-1.9-2.1-3c0.3,2.5,0.8,0.8,1.6,4.4c-0.1-3.5,6.6,10.5,5.6,5.4c0.2,2,0.8,3.4,1.5,4.9
							s1.5,3.1,1.9,5.5c0.3-0.3-0.1-1.8,1.6,1.9c0.2,0.1,0.5,0.4,0.7,0.6c0,0.1,0.1,0.2,0.1,0.3c0-0.1,0-0.1-0.1-0.2
							c0.1,0.1,0.2,0.1,0-0.1c-0.3-0.9-0.5-1.7-0.4-2.1c0.9,0.7,2.1,2.5,3.2,4.4c1,1.9,2,3.8,2.7,4.7c0.8,2.3-0.8-0.7-0.7,0.6l1,1.4
							l0.9,1.4c-0.7,0.7,1,6.5-1.6,1.4l1.8,4.8c0.3,1.5,0.7,3.2,1.2,4.9s1.1,3.2,1.6,4.4c0.5,2.4,2.6,5.6,1.4,3.7
							c0.4,1.3,0.9,2.5,1.3,3.8l1.2,3.8l-0.2,0.1c0.9,3.9,1.9,7.8,2.8,11.9c0.7,4.2,1.4,8.5,0.8,13.1c0.2,1.3,0.5,2.7,0.6,4.2
							c0.1,1.6,0.2,3.4,0.1,5.6l-0.8,0.9c0.2,1.7-0.1,4.3-0.3,6.6s-0.3,4.4,0,5.1c-0.6,0.9-1,2.3-1.3,4.1c-0.1,0.9-0.3,1.9-0.3,2.9
							c-0.1,1-0.2,2.1-0.4,3.2c-0.3,2.2-0.4,4.5-0.7,6.5c-0.3,2.1-0.6,4-1,5.4l1,0.4c-0.1,0.5-0.2,1-0.3,1.5s-0.2,1-0.3,1.5
							c-0.2,1-0.4,2-0.6,3.1c-0.2,1.1-0.4,2.2-0.5,3.3c-0.2,1.1-0.5,2.3-0.7,3.6l1-0.1c-0.3,2.2-1.1,5-2.4,7.9
							c-0.6,1.5-1.3,3-1.9,4.6c-0.7,1.6-1.4,3.2-2,4.8c-0.1-0.6,0.6-2.2,1.2-3.3c-1.2,1.8-2.2,3.7-3,5.7s-1.6,4.1-2.3,6.1
							c-0.6,2.1-1.5,4.1-2.3,6c-0.9,1.9-1.8,3.7-3.1,5.1c-0.7,1.8-1.4,2.9-2.3,4c0.1-0.2,0.2-0.3,0.2-0.4c-0.1,0.2-0.3,0.4-0.4,0.7
							c-0.5,0.7-1.2,1.3-1.8,2c0.6-0.6,1.2-1.1,1.6-1.6c-0.7,1.3-1.9,3.2-2.8,5.1l-1.3,0.3c-0.1,0.2-0.2,0.3-0.2,0.4
							c-1.4,1.6-0.5,1.7,0.7,1.1c-0.4,1-0.9,1.9-1.2,2.7c-1.1,0.3-1.9,1.5-2.6,2.8c-0.4,0.7-0.8,1.3-1.3,1.9c-0.5,0.5-1.1,1-1.8,1.2
							c-0.1,0.8-1.7,3.1-3.2,5.4c-1.6,2.2-3,4.5-2.8,5.5c-0.2-0.1-0.7,0.3,0-0.6c-1.7,1.8-3.6,3.4-4.7,5.3l-1.6-0.1l-1.3,2.5
							l-1.4,2.4c-2.9,1.7-4.1,2.3-2.5-0.6c-1.2,1.6-2,2.7-2.7,3.5s-1.2,1.3-1.7,1.9c-1,1-1.9,2-3.9,4.7l-0.2-0.8
							c-1.8,1.5-4.2,4.7-5.7,5c-1.3,0.5-3.3,1.6-5.7,3.2c-0.6,0.4-1.2,0.8-1.9,1.3c-0.7,0.4-1.4,0.9-2.1,1.3c-1.5,0.9-3,1.9-4.6,2.9
							c-6.5,3.8-14.2,7.8-20.7,9.8c1.7,0.5,0.1,1-1.8,1.4c-2,0.4-4.3,0.9-4.2,1.9c-0.9-0.2-2.8,0.2-0.9-1.1c-0.8,0.4-1.5,0.7-2.2,1
							s-1.4,0.5-2,0.7c-1.3,0.4-2.5,0.7-3.6,1c-2.2,0.7-4.2,1.2-6.2,2.6c-0.9-0.3,1.2-1.2,0.4-1.3c-0.5,0.3-2,1.1-2.7,0.9
							c-0.8-0.1,0.8-0.7,1.8-1.2c-1.7,0.5-2.9,1-3.9,1.5c-1,0.4-1.7,0.9-2.1,1.3c-0.9,0.9-1.1,1.7-1.1,2.6c-1.8,0-3.2,0.2-4.4,0.5
							s-2.2,0.8-3.4,1.5c-1.3-0.3-3.5-0.5,0.8-1.4c-0.6,0.1-1.9,0.3-3.4,0.5c-0.8,0.1-1.6,0.2-2.4,0.4c-0.9,0.1-1.7,0.2-2.6,0.3
							c-3.5,0.4-6.6,1-6.7,1.6c-0.8-0.3-3.5,0.2-4.1,0.4c-1.4,0.1-2.5,0.1-3.4,0.2c-0.9,0-1.7,0-2.4,0c-1.5,0-3,0.1-5.7,0.2l1.5,0.2
							c-2.1,1.7-4.6,0.4-9,0.4l0.1-0.2c-2.5-0.3-4-0.6-5.1-0.7c-1-0.1-1.6-0.1-2.1-0.1s-1.1,0-2.1-0.1c-0.5-0.1-1.1-0.1-1.9-0.3
							c-0.8-0.2-1.8-0.4-3-0.7l0.4,1c-0.6,1-2.8,0.4-5.5-0.4c-2.7-0.9-6-2.2-8.9-2.3c0.6,0.3,1.3,0.6,2,0.9
							c-1.6,0.1-3.7-1.1-5.6-2.4c-2-1.3-3.9-2.7-5.3-3.3c-0.6-0.4,1.1,0,2.1,0.1c-7.6-3.4-1.3,0.9-7.3-0.5c-0.9-1,1.9-1.2-2-2.5
							c-0.9-0.6-3.9-1-7.3-1.7c-1.7-0.4-3.4-0.9-5.1-1.5c-0.8-0.3-1.6-0.6-2.4-1c-0.7-0.4-1.4-0.8-2-1.2c0.9,1,1.8,2-0.9,1.2
							c-4.2-1.6-9.8-6.8-14-7.3c-0.4-0.4-0.5-0.6-0.5-0.8c-0.8-0.3-1.8-0.8-2.9-1.3s-2.3-1.1-3.4-1.7c-2.3-1.2-4.5-2.2-5.6-2.4
							c-0.2-1.1-1.4-2.4-3.1-3.6c-1.7-1.3-3.9-2.5-5.9-3.9c-2-1.3-4-2.5-5.3-3.7c-1.3-1.1-1.9-2.1-1.4-2.6c-1.3-1.1-2.7-2.2-3.9-3.3
							l-3.8-3.5h0.4c-1.2-1.2-2.2-2.1-3-2.9s-1.6-1.5-2.3-2c-1.3-1.1-2.4-1.6-3.5-2.3c-0.8-1.3,0.1-0.6,0.3-0.7
							c-2.9-3.9-4.6-5.9-6.2-7.8c-0.8-0.9-1.7-1.8-2.7-2.7c-1-0.9-2.2-2-3.7-3.5l0.3-1.3c-0.4-0.4-1.1-1.3-1.9-2.6
							c-0.8-1.3-1.7-3.1-2.8-5c-0.5-1-1.1-2-1.7-3c-0.5-1.1-1.1-2.1-1.7-3.2s-1.2-2.1-1.9-3.2c-0.7-1-1.3-2.1-1.9-3.1
							c0.1,0,0.4,0.1,0.9,0.7c-3-4.4-5.1-10.5-6.8-15.7c-0.4-1.3-0.8-2.6-1.2-3.7c-0.2-0.6-0.4-1.1-0.6-1.7
							c-0.2-0.5-0.4-1.1-0.6-1.5c-0.8-1.9-1.8-3.3-2.9-4l-0.8-1.6l-0.7-1.6l-1.4-3.3c2.2,8.9-1.9-0.9-1.4,2.9c-0.6-1.7-1-4.1-1-5.4
							c0-1.4,0.3-1.8,0.9,0.4v0.7c2.1,1.1-2-11.2-0.6-11.3c-1.8-8.8-2.5-17.6-2.6-26.3c0-2.2,0-4.3,0-6.5c0.1-2.1,0.2-4.3,0.3-6.4
							c0.1-1.1,0.1-2.1,0.2-3.2c0.1-1.1,0.2-2.1,0.3-3.1c0.1-1,0.2-2.1,0.3-3.1c0.1-1,0.2-2.1,0.3-3.1c-0.6,0.6-1.1,1.2-1.7,1.8
							c0.2-1.9,0.5-3.9,0.8-5.8c0.5-1.5,1.4-1.9,0.8,2.2c0.5-1,0.6-2.8,0.5-4.3c-0.2-1.5-0.3-2.8-0.5-2.9c2-7.9,1.1,3.4,1.6,0.9
							l0.5-3.3l-0.3,0.7c-0.1-1.4-0.2-2.2-0.3-3.2c0-0.5,0-1.1,0.1-1.9c0.1-0.8,0.3-1.7,0.6-2.9c1-3,1.2-1.4,1.6-2.6
							c0.1,0,0.2-0.4,0.5-1.8c0.7-2.3,1.4-4.7,2.1-7l-1.9,2.5c0.2-1.6,0.7-3.3,0.8-4.2c0.2-0.9,0-1-1.1,0.4c1.7-2.1,4-8.6,6.5-14.7
							c0.6-1.6,1.3-3,1.9-4.5c0.6-1.4,1.2-2.8,1.8-4c1.1-2.4,2.1-4.1,2.6-4.7c0.3-1.1,0.7-2.2,1.1-3.3c0.5-1.1,1-2.1,1.5-3.2
							c1.1-2.1,2.4-4.3,4-6.6c-1,1-2.5,1.1,0.3-2.9c0.3,0.7,0.8,0.7,1.5,0.1c0.7-0.5,1.4-1.6,2.4-2.7c0.9-1.1,1.9-2.4,2.9-3.6
							c0.5-0.6,1-1.1,1.5-1.5s1-0.8,1.5-1c-1.6,1,0.5-1.8,2.3-4.3c0.9-1.3,1.9-2.5,2.2-3.2c0.4-0.7,0.2-0.9-1-0.2
							c2.8-2.9,0.9,0.5,3.4-1.4c0.7-1,1.4-2,2.2-2.9c0.8-0.9,1.7-1.9,2.6-2.8s1.8-1.9,2.8-2.8s2-1.8,3.1-2.7
							c1.1-0.9,2.1-1.8,3.2-2.7c1.1-0.9,2.2-1.8,3.4-2.7c2.2-1.9,4.5-3.6,6.8-5.5c-0.1-0.4-2,0.4-0.3-1.6c2-0.9,4.1-1.5,6.1-2.3
							c0.9-0.7,1-1.5,1.5-2.2c0.2-0.4,0.5-0.7,1-1.1c0.5-0.3,1.2-0.7,2.3-1c-0.7,0.1-1.7,0.2-0.4-0.8c10.2-5.6,20.5-11.4,31.5-15.8
							c11-4.5,22.7-7.6,34.5-7.9c-3.2-0.1-1.2-0.6,1.2-1c-1.6,0.1-0.1-0.9-0.5-1.3h5c1.7,0,3.3,0,5,0.1c0.8-0.7,3.5-0.9,6-1.2
							c1.3-0.1,2.5-0.2,3.5-0.3s1.7-0.3,2-0.6l-3.1,0.3c2-0.8,0.6-1.6-1.4-2.4c-2-0.7-4.4-1.5-4.2-2.5c-1.2,0.5-2.5,0.7-4.1,0.7
							c-1.5,0-3.2,0-5-0.1c-0.9,0-1.8,0-2.8,0c-0.9,0-1.9,0.1-2.8,0.2c-1.9,0.3-3.8,0.9-5.6,1.8c-1.8-0.1,1.3-0.9,0.3-1.1
							c-1.8,1.1-4.1,1.9-8.6,2.5l0.4-0.3c-0.8,0.2-1.5,0.4-2.2,0.5c-0.7,0.2-1.4,0.4-2.1,0.6c-1.3,0.4-2.6,0.7-3.8,1
							c-2.4,0.6-4.6,1.3-6.9,1.9c-1.1,0.3-2.3,0.6-3.5,1c-1.2,0.3-2.4,0.8-3.7,1.2c-2.6,0.9-5.5,1.8-8.7,3.2l1.3,0.4
							c-2.8,1.1-3.5,1.1-4.9,1.5c-2.6,2.7,7.8-3.5,5.6-0.7c-1.1,0-2.9,0.5-5,1.3s-4.4,2.1-6.8,3.2c-0.6,0.3-1.2,0.6-1.7,0.9
							c-0.6,0.3-1.1,0.6-1.7,0.9c-1.1,0.6-2.1,1.1-3.1,1.6c-1.9,0.9-3.4,1.4-4.3,1.4c-4,2.5,1.7,0.2-2.2,2.7l-1.4,0.2l-0.6,1.3
							c-1.3,0.8-2.4,1.3-3.2,1.5c-0.8,0.2-1.3,0.2-1.5,0.1c0.6-0.4,1.7-1.4,2.3-1.9c-1.8,0.9-4.1,2.6-6.1,4.1
							c-2,1.6-3.5,3.1-4.1,3.4c1.3-0.8,2.5-1.7,3.8-2.5c-1.2,1-2.5,2.1-3.8,3.2s-2.7,2.1-4,3.3c-2.6,2.3-5.4,4.5-7.9,7.1
							c-1.3,1.2-2.5,2.5-3.8,3.7c-1.2,1.3-2.4,2.6-3.5,3.8c-2.3,2.5-4.3,5.2-6.1,7.7l1-0.4c-0.7,1-1.3,1.8-1.8,2.4
							c-0.5,0.7-0.9,1.3-1.4,1.8c-0.8,1-1.5,1.7-2.2,2.5c-0.7,0.7-1.4,1.5-2.3,2.6s-1.9,2.6-3.4,4.8l0.1-0.4
							c-0.9,1.9-2.1,4.4-3.7,6.7c1-2.5-3.5,3.6-2.2,0.4c-0.3,0.6-0.6,1.1-0.8,1.6c-0.2,0.5-0.4,0.9-0.6,1.3
							c-0.3,0.8-0.6,1.4-0.8,1.9c-0.4,1-0.6,1.5-0.7,1.9s-0.1,0.8-0.2,1.4c-0.1,0.7-0.3,1.6-0.7,3.3l-1.4,1
							c-0.2,1.2-0.3,1.8-0.5,2.8c-0.3,1-0.8,2.2-1.7,4.6c1.2-4.1-2.4,2.5-1.2-2.2c-1.5,2.3-2.6,4.4-3.4,6.4s-1.3,3.7-1.7,5.3
							c-0.4,1.6-0.9,3-1.4,4.3s-1.1,2.4-2.1,3.4c0.2,2.7,1.2,0.5,2.1-1.9c0.9-2.5,1.9-5.2,1.6-3.8c0.7-1,0.7,0.1,0.3,1.8
							c-0.3,1.7-0.9,4.1-1.6,5.7c-0.6,1.6-1.7,2.8-2.9,4.7c-0.6,0.9-1.2,2-1.9,3.4c-0.3,0.7-0.6,1.5-1,2.3c-0.3,0.9-0.5,1.8-0.8,2.9
							c0.2-0.8,0.1-0.9,0.3-1.8c-0.6,1.5-0.8,3.1-1.1,4.8c-0.1,0.8-0.3,1.7-0.5,2.6c-0.2,0.9-0.4,1.8-0.8,2.8c0.8,2.4-1,5.1,0.5,6
							l1-7.9c-0.2,2.3,0,4.5-0.1,7.1c0,2.6-0.1,5.5-1,9.1c-0.2-0.6-0.4-2.8-0.4-4.4c-0.4,1-0.4,2.1-0.5,3.2
							c-0.1,1.1-0.1,2.1-0.4,3.2c-0.4-0.2-0.6-0.9-0.6-1.9s0.1-2.4,0.3-3.8c0.2-1.5,0.4-3.1,0.5-4.6c0.2-1.5,0.3-3,0.2-4.3
							c-0.5,1.1-0.7,3.4-0.8,5.1c-0.1,1.7-0.2,2.8-0.9,1.5c0.9,1.9,0.5,4,0.1,6.4c-0.3,2.4-0.7,5.2-0.1,8.2l-0.9-0.4
							c0,0.9,0.4,2.9,0.4,4.6l-1.1-3.2c0.9,4.8-1.2,9.3-0.5,13.9c-0.1-4.9,0.2-5.4,0.5-5.2c0.4,0.2,0.8,1,1.2-1
							c0.1,1.5,0.2,2.7,0.3,3.7c0,1,0,1.8,0,2.6c-0.1,1.4-0.4,2.3-0.8,3.3s-0.6,2-0.8,3.6c-0.1,1.6-0.2,3.8,0.3,7.2
							c-0.3-1.8,0-6.8,0.7-4.1c0,1.3-0.1,2.8-0.1,4.1c0,1.4-0.1,2.6-0.2,3.4c1.3,8.8,0.8-1.5,1.9,2.2c-0.8,3.2,1.1,4.2,2.1,7.9
							l-0.9,0.2c0.1,1.3,0.3,2.2,0.4,3c0.2,0.8,0.4,1.3,0.5,1.7c0.3,0.8,0.6,1.1,0.9,1.3c0.6,0.4,1.1,0.7,1.8,5.2l-2.2-3.4
							c0.5,1.5,0.9,3,1.4,4.5c-0.4-0.2-0.9-0.4-1.3-0.7c1.1,2.4,1.7,4,2.2,5.6c0.2,0.8,0.4,1.6,0.6,2.5s0.5,1.9,0.8,3.1
							c0.3-1.3,1.9,0.1,3.3,4.3c0.5,3-1.5-1.3,0.9,4.6c-0.5-0.6-1.1-1.1-1.6-1.9c-0.2-0.4-0.5-0.9-0.6-1.4s-0.2-1.2-0.2-1.9
							c-0.4-0.2-1-1.1-1.4-1.3c0.3,3.4,2.7,7.8,3.6,10c-0.3-0.8-0.6-1.8-0.7-2.4c0.8,1.3,1.5,2.7,2.3,4l2.5,3.9
							c0.3,1.5-0.5,0.5-1.2-0.4c0.4,0.8,0.9,1.5,1.4,2.2c0.5,0.8,1,1.6,1.7,2.8c-1-0.3-1.7,0.3-3.7-3.2c1.4,2.6,3.1,5,4.7,7.5
							c0,0.3,0.3,1.5,0.5,2.4s0.4,1.6,0,1.2c1,2.2,2.8,4.7,4.8,7.2c1,1.3,2.1,2.5,3,3.9c1,1.3,1.8,2.7,2.7,4.1
							c0.3,0.2,0.8,0.7,1.7,1.7c0.8,1.3,1.6,2.5,2.4,3.8c0.8,1.2,1.6,2.4,2.5,3.7c0.9,1.2,1.8,2.5,2.9,3.7s2.3,2.4,3.7,3.5
							c0.6,1.3,1,2.7,1.7,4c4.1,3.9-2.5-5.2,4.3,1.2c2.4,2.2,2.6,2.9,2.4,3.2c-0.2,0.3-0.9,0.4-0.2,1.3c1.4,0.9,3.5,2.1,5.5,3.6
							c2.1,1.5,4.4,3.4,6.3,5.8C460.5,351.3,459.5,350.1,458,348.9z M517.6,383.3c-0.7-0.1-1.7-0.2-2.6-0.5c-0.9-0.2-1.8-0.6-2.1-1
							c0.9-0.2,1.6-0.1,2.3,0.2C515.8,382.3,516.6,382.7,517.6,383.3z M620.4,385.2c-0.9,0.6-2.4,0.7-4.1,0.8
							C617.4,385.6,618.8,385.4,620.4,385.2z M735.4,160.7l0.1,0.1C736,163.6,735.9,162.6,735.4,160.7z M733.8,155
							c-0.3-0.5-0.5-0.4-0.5-0.1c0.4,0.3,0.9,1.5,1.4,2.9C734.8,157.4,734.6,156.6,733.8,155z M411.8,175.1l-0.5,1.1
							C411.6,173.6,411.7,174.4,411.8,175.1z"/>
						<path class="st0" d="M609.2,389.1c-0.4-0.1-0.5-0.3-0.7-0.4C608,388.9,608.1,389.1,609.2,389.1z"/>
						<path class="st0" d="M429.1,317l-0.1-0.2c-0.1-0.1-0.2-0.1-0.3-0.1L429.1,317z"/>
						<path class="st0" d="M750.5,246.3c-0.4,1.2-0.7,1.9-0.9,2.3C749.8,248.7,750.1,248.2,750.5,246.3z"/>
						<path class="st0" d="M718.5,127.9c0.8,1,1.4,2,2.1,3.1c-0.9-1.5-1.1-2.2-1.4-3.1C719.1,128.1,719.2,128.9,718.5,127.9z"/>
						<path class="st0" d="M703.3,98.1c-0.5-0.3-0.8-0.9-1.3-1.2l-0.2,0.4C703.4,99,704.9,100,703.3,98.1z"/>
						<path class="st0" d="M719.4,123.3c0.3-0.3,0-1-0.5-1.8c-0.3-0.4-0.6-0.9-0.9-1.4c-0.4-0.5-0.8-1-1.2-1.5
							c0.1,0.1,0.2,0.2,0.3,0.4c-0.7,0-0.6,0.5,0,1.3C717.5,121.1,718.4,122.2,719.4,123.3z"/>
						<path class="st0" d="M716.3,118.1c-0.5-0.7-1-1.3-1.5-2C714.3,116.1,715.4,117,716.3,118.1z"/>
						<path class="st0" d="M730.5,148.3c-0.3-1.2-1.3-0.3-1.3-1.1c-0.8-0.4,0.4,1.3,1.3,2.5c0.5,0.6,0.8,1,0.9,0.9
							C731.5,150.5,731.3,149.8,730.5,148.3z"/>
						<polygon class="st0" points="720.4,120 720.1,121.3 721.6,122.2 						"/>
						<path class="st0" d="M730.5,138.8l-1.7-4c-0.1,0.1-0.5-0.3-0.8-0.9C729.1,136.4,730.3,139.1,730.5,138.8z"/>
						<path class="st0" d="M727.9,134c-0.6-1.2-1.3-2.3-1.9-2.9C726.4,131.7,727.3,133.1,727.9,134z"/>
						<path class="st0" d="M723.9,124.8c0.2,0.4,0.3,0.8,0.5,1.2l1.5,2.7C725.2,127.4,724.6,126,723.9,124.8z"/>
						<path class="st0" d="M745.2,182.7l1.1,4.6c0.4,0.4,0.4-0.9,0-2.6C745.8,183.6,745.4,181.9,745.2,182.7z"/>
						<path class="st0" d="M744.5,168.1c0.2,1.3,0,1.4-0.2,2.2l1.2-0.2L744.5,168.1z"/>
						<path class="st0" d="M748.1,181.6c0.4,0.4,2.2,6.7,1,0.7c-0.2-0.2-0.6-1.5-0.9-2.2c-0.2-0.3-0.3-0.5-0.3-0.3
							C747.9,180,747.9,180.5,748.1,181.6z"/>
						<polygon class="st0" points="745.8,252.9 746,251.7 744,251.5 						"/>
						<path class="st0" d="M725.6,313.3c3.5-4.6-0.3-1.8,3-5.9c0.1-0.7-0.5,0.2-1.2,1s-1.3,1.7-1.1,1
							C724.8,312.6,723.6,314,725.6,313.3z"/>
						<path class="st0" d="M726.3,309.4c0.2-0.5,0.5-1.1,0.7-1.6C726.5,308.7,726.4,309.1,726.3,309.4z"/>
						<path class="st0" d="M566.5,47.7c1.2,0,2.3,0.2,3.5,0.3l-2.3-0.6C567.3,47.5,566.9,47.6,566.5,47.7z"/>
						<path class="st0" d="M573.2,46l0.8,1.3l2.1-1.2C575.4,46.1,573.8,46.3,573.2,46z"/>
						<path class="st0" d="M526.7,388.9l0.4-0.2c-0.5-0.5-1.3-0.7-3-1.3L526.7,388.9z"/>
						<polygon class="st0" points="480.9,367.4 481.6,367.9 480.9,366 						"/>
						<path class="st0" d="M446.9,341.8c0.6,0.6,1.3,1.3,2,1.9s1.5,1.2,2.1,1.9C448,343.1,447.6,340.4,446.9,341.8z"/>
					</g>
				</g>
			</g>
		</g>
	</g>
	<rect x="554.1" y="42.6" class="st1" width="205" height="366.4"/>
	<rect x="518.2" y="22.4" class="st1" width="240.9" height="81.4"/>
	<circle class="st2" cx="574.2" cy="42.5" r="41.8"/>
	<g>
		<g>
			<line class="st3" x1="498.1" y1="215.7" x2="567" y2="215.7"/>
			<g>
				<polygon class="st4" points="453.3,245.4 503.5,215.5 453.3,185.6 				"/>
			</g>
			<g>
				<rect x="564" y="196.2" class="st4" width="6" height="39"/>
			</g>
		</g>
	</g>
	<g>
		<path class="st4" d="M584.9,370.2c0.9-0.7,1.8-1.1,2.6-1c0.9,0.1,1.6,0.3,2.1,0.9c0.5,0.5,0.8,1.2,0.9,2.1c0.1,0.9-0.3,1.8-1,2.6
			c-2,1.9-3.9,3.8-5.7,5.8c-1.9,2-3.7,3.9-5.5,5.9c2.2,2.5,4.3,5.1,6.3,7.8c2,2.7,3.8,5.4,5.6,8.3c0.3,1,0.3,1.9,0,2.6
			s-0.7,1.3-1.3,1.6c-0.6,0.3-1.3,0.5-2,0.4c-0.8-0.1-1.5-0.5-2.3-1.3c-1.5-2.5-3.2-5-5-7.4s-3.7-4.7-5.6-7
			c-3.5,4.3-6.8,8.8-10,13.7c-0.7,0.9-1.5,1.4-2.4,1.5s-1.6-0.1-2.3-0.5c-0.6-0.4-1-1.1-1.2-2s0-1.8,0.7-2.8
			c1.6-2.6,3.4-5.1,5.2-7.6s3.7-4.9,5.7-7.3c-1.7-1.8-3.4-3.7-5.2-5.5s-3.5-3.6-5.3-5.5c-0.8-0.8-1.3-1.7-1.3-2.6s0.2-1.6,0.7-2.1
			c0.5-0.6,1.2-0.9,2.1-1c0.9-0.1,1.8,0.1,2.7,0.8c1.8,1.8,3.6,3.7,5.4,5.5c1.8,1.8,3.5,3.6,5.2,5.5c1.7-1.9,3.5-3.9,5.4-5.8
			C581.2,373.9,583,372,584.9,370.2z"/>
	</g>
	<g>
		<g>
			<g>
				<polygon class="st4" points="2.7,245.4 52.9,215.5 2.7,185.6 				"/>
			</g>
		</g>
		<g>
			<path class="st4" d="M134.3,370.2c0.9-0.7,1.8-1.1,2.6-1c0.9,0.1,1.6,0.3,2.1,0.9c0.5,0.5,0.8,1.2,0.9,2.1c0.1,0.9-0.3,1.8-1,2.6
				c-2,1.9-3.9,3.8-5.7,5.8c-1.9,2-3.7,3.9-5.5,5.9c2.2,2.5,4.3,5.1,6.3,7.8c2,2.7,3.8,5.4,5.6,8.3c0.3,1,0.3,1.9,0,2.6
				s-0.7,1.3-1.3,1.6c-0.6,0.3-1.3,0.5-2,0.4c-0.8-0.1-1.5-0.5-2.3-1.3c-1.5-2.5-3.2-5-5-7.4s-3.7-4.7-5.6-7
				c-3.5,4.3-6.8,8.8-10,13.7c-0.7,0.9-1.5,1.4-2.4,1.5s-1.6-0.1-2.3-0.5c-0.6-0.4-1-1.1-1.2-2s0-1.8,0.7-2.8
				c1.6-2.6,3.4-5.1,5.2-7.6c1.8-2.5,3.7-4.9,5.7-7.3c-1.7-1.8-3.4-3.7-5.2-5.5c-1.8-1.8-3.5-3.6-5.3-5.5c-0.8-0.8-1.3-1.7-1.3-2.6
				s0.2-1.6,0.7-2.1c0.5-0.6,1.2-0.9,2.1-1s1.8,0.1,2.7,0.8c1.8,1.8,3.6,3.7,5.4,5.5s3.5,3.6,5.2,5.5c1.7-1.9,3.5-3.9,5.4-5.8
				C130.6,373.9,132.4,372,134.3,370.2z"/>
		</g>
	</g>
	<ellipse class="st6" cx="576.2" cy="488.8" rx="70.1" ry="7.8"/>
	<ellipse class="st6" cx="1026.8" cy="488.8" rx="70.1" ry="7.8"/>
	<ellipse class="st6" cx="123.6" cy="488.8" rx="70.1" ry="7.8"/>
</g>
</svg>
