<?xml version="1.0" encoding="utf-8"?>
<!-- Generator: Adobe Illustrator 21.0.0, SVG Export Plug-In . SVG Version: 6.00 Build 0)  -->
<svg version="1.1" id="Calque_1" xmlns="http://www.w3.org/2000/svg" xmlns:xlink="http://www.w3.org/1999/xlink" x="0px" y="0px"
	 viewBox="0 0 82 83" style="enable-background:new 0 0 82 83;" xml:space="preserve">
<style type="text/css">
	.st0{fill:none;stroke:#1D1D1B;stroke-miterlimit:10;}
</style>
<path class="st0" d="M66.2,70c-1.8-2.1-3.7-4.1-5.3-6.3c2-2,3.8-4.4,5.3-7.2c0.9-1.6,1.7-3.4,2.3-5.2c0.1,0,0.3,0,0.4,0
	c3,0.1,6.1,0.1,9.2-0.1c0.9-0.1,1.7-0.7,1.7-1.6c0-6.7,1.2-13.2,0.2-19.9c-0.1-0.6-0.9-1.3-1.5-1.2c-3.1,0.3-6.4,0.5-9.3,1.8
	c-1-3.2-2.6-6.2-4.9-8.7c2.1-1.6,4-4.2,5.2-5.9c0.4-0.6,0.3-1.4-0.2-2C64.9,8.9,59.5,6,54,2.8c-1-0.6-2,0-2.3,0.9
	c-1,2.4-2.3,4.7-3.2,7.1c-2.3-0.7-4.7-1.1-7.1-1.1c-0.4-2.5-1.3-5-2.2-7.2c-0.3-0.8-1-1.4-1.9-1.2c-5.5,1.3-11.1,2.3-15.9,5.5
	c-0.8,0.5-1,1.3-0.6,2.1c1,2.2,2.3,4.3,3.8,6.1c-2.5,1.7-4.8,3.7-6.8,6c-2.9-1.5-5.9-2.7-8.9-3.9c-0.7-0.3-1.6,0.1-1.9,0.7
	C3,24.6,1.7,32.5,1.7,40.3c0,0.8,0.5,1.4,1.2,1.7c2.4,0.8,4.9,1.2,7.5,1.3c0.3,3.3,1.2,6.5,2.6,9.5c-2.7,1-5.5,3.5-7.3,4.8
	c-0.8,0.6-0.6,1.8-0.1,2.4c0.5,0.6,1,1.1,1.5,1.7c0.1,0.5,0.5,0.9,1,1.1c3.9,4.5,7.6,9.1,12.4,12.8c1,0.7,2.1-0.1,2.5-1
	c1-2.4,2.6-4.4,4-6.6c4.2,2.4,8.5,3.8,12.8,4c0.3,3,1.2,6.2,1.7,8.4c0.2,1,1.2,1.4,2.1,1.3c8-1.4,16.3-3.9,22.5-9.4
	C66.8,71.7,66.8,70.6,66.2,70z M49.5,27c0.2,0.5,0.4,0.9,0.7,1.4c-0.6-0.6-1.2-1.2-1.9-1.7C48.6,26.8,49.1,26.9,49.5,27z M29.2,45.7
	c-6.8-7.5,3.5-21,12.6-18.5c0.1,0.1,0.2,0.3,0.4,0.4c3.2,2.1,6.1,2.8,7.6,6.8c1.3,3.4,0.5,7.2-1.3,10.3
	C44.6,51.6,34.2,51.2,29.2,45.7z"/>
</svg>
