<?xml version="1.0" encoding="utf-8"?>
<!-- Generator: Adobe Illustrator 21.0.0, SVG Export Plug-In . SVG Version: 6.00 Build 0)  -->
<svg version="1.1" id="Calque_1" xmlns="http://www.w3.org/2000/svg" xmlns:xlink="http://www.w3.org/1999/xlink" x="0px" y="0px"
	 viewBox="0 0 72.5 71.8" style="enable-background:new 0 0 72.5 71.8;" xml:space="preserve">
<style type="text/css">
	.st0{fill:none;stroke:#000000;stroke-miterlimit:10;}
</style>
<path class="st0" d="M11.7,50.6c0.8,0.2,1.4-0.6,1.4-1.3c0.8-0.4,1.6-0.9,2-1.2c0.8-0.5,1.5-1,2.2-1.5c0.9,0.1,1.9-0.9,1.6-1.8
	c0-0.4-0.1-0.8-0.6-0.9c-10.8-12.2,0.3-28,14.3-31c17.8-3.7,25.5,12.6,23.3,27.2c-0.8,2.1-1.4,4.3-1.8,6.6c0,0.1-0.1,0.2-0.1,0.4
	c-2.1-0.8-4.1-1.5-6.2-2.1c-1.2-0.3-2.2,0.4-2.1,1.6c0.2,7.6,2.6,15,3.8,22.5c0.1,1.2,1.4,1.7,2.4,1c3.5-2.2,6.8-4.7,9.9-7.4
	c2.6-2.2,6-4.8,7.4-7.9c0.3-0.7,0-1.3-0.5-1.7c-0.1-0.3-0.3-0.5-0.7-0.6c-0.1,0-0.2-0.1-0.3-0.1c-0.4-0.4-0.9-0.8-1.5-1.1
	c-0.1-0.2-0.3-0.3-0.5-0.2c-0.1-0.1-0.3-0.1-0.4-0.2h-0.1c0.6-1.6,1.1-3.3,1.5-4.9c3.5-5.8,2.5-14.4,0.1-20.6
	C62.8,14.8,53.5,4.9,42.4,2c-13.1-3.5-31,6.3-36.7,18C2.1,27.4,1.3,48,11.7,50.6z"/>
</svg>
