<?xml version="1.0" encoding="utf-8"?>
<!-- Generator: Adobe Illustrator 21.0.0, SVG Export Plug-In . SVG Version: 6.00 Build 0)  -->
<svg version="1.1" id="Calque_1" xmlns="http://www.w3.org/2000/svg" xmlns:xlink="http://www.w3.org/1999/xlink" x="0px" y="0px"
	 viewBox="0 0 110 108" style="enable-background:new 0 0 110 108;" xml:space="preserve">
<style type="text/css">
	.st0{fill:none;stroke:#1D1D1B;stroke-miterlimit:10;}
</style>
<g>
	<path class="st0" d="M72.8,101.5c0-3.2-0.2-6.1-1-9.2c-0.3-1.4-1.8-1.6-2.8-1c-0.3-0.8-1-1.4-2.1-1.1C43.3,97,16,68.8,25.6,45.8
		c3.4-0.2,6.8-0.3,10.1,0.1c2.5,0.3,2.5-3.6,0-3.9c-0.2,0-0.4,0-0.6,0c0.7-0.4,1.1-1.3,0.7-2.3c-4-8.5-7.3-16.8-10-25.8
		c-0.5-1.6-2.8-2-3.7-0.5c-5.5,10-11.2,20.4-20.3,27.6c-0.6,0.5-0.6,1.1-0.3,1.6c-0.3,0.9,0.1,2.1,1.4,2.1c1.7,0.1,3.3,0.2,5,0.3
		c1.2,0.9,3.6,1.2,5.4,1.2c-11.2,32.4,25.3,69.5,58.1,58c0.9-0.3,1.3-1.1,1.3-1.9C72.7,102,72.8,101.8,72.8,101.5z M19.8,75.2
		c0.4,0.8,0.9,1.6,1.3,2.5c0,0.1,0.1,0.3,0.1,0.4c0.8,1.6,1.7,3.2,2.5,4.7C22.2,80.4,20.9,77.9,19.8,75.2
		C19.8,75.2,19.8,75.2,19.8,75.2z"/>
	<path class="st0" d="M102.5,80.6c10.4-21.9,8-50.8-10.3-67.8c-7.7-7.2-19.9-9.3-30-10.5c-7.4-0.9-21-1.6-26.3,5.3
		c-1.3-0.7-3.2,0.3-2.6,2c0.2,0.5,0.4,1,0.6,1.5c0,0,0,0,0,0.1c0.3,1.1,0.8,2.1,1.3,3.1c0,0,0,0.1,0.1,0.1c0.6,1.3,1.1,2.5,1.6,3.8
		c0.1,1,1.1,1.4,2,1.3c0,0,0,0,0,0.1c0.9,1.4,2.9,0.8,3.2-0.5c0.1,0,0.2,0,0.4,0c15.9-4.9,30.8-1.2,42.5,10.7
		C97.1,42.1,98.6,60.3,87.9,74c-0.1,0.1-0.1,0.1-0.1,0.2c-3.4-1.4-6.9-2.8-10.4-3.6c-0.3-0.1-0.5,0-0.7,0c-0.7-0.2-1.5,0.2-1.8,0.9
		c-0.2,0.1-0.4,0.2-0.6,0.4c-0.9,0-1.9,0.6-1.7,1.7c0.9,8.6,1,17.4,3.5,25.8c0.4,1.2,1.7,1.7,2.8,1.1C86,97.1,93.8,94.9,99.9,90
		c1.9-1.2,3.6-2.6,5-4.3c1.3-0.2,2.5-1.8,1.2-2.8C105,82,103.8,81.2,102.5,80.6z"/>
</g>
</svg>
