<?xml version="1.0" encoding="utf-8"?>
<!-- Generator: Adobe Illustrator 21.0.0, SVG Export Plug-In . SVG Version: 6.00 Build 0)  -->
<svg version="1.1" id="Calque_1" xmlns="http://www.w3.org/2000/svg" xmlns:xlink="http://www.w3.org/1999/xlink" x="0px" y="0px"
	 viewBox="0 0 82.5 63.5" style="enable-background:new 0 0 82.5 63.5;" xml:space="preserve">
<style type="text/css">
	.st0{fill:none;stroke:#1D1D1B;stroke-miterlimit:10;}
</style>
<g>
	<path class="st0" d="M49.1,1.4c-7.7,3.6-13.3,11.7-19.1,17.6c-8.8,9.1-19.4,16.5-28,25.7c-1.9,2.1,0.9,5,3,3.2
		c9.3-7.9,18.5-16.2,27.4-24.7c6.2-5.9,11.3-13.4,18.8-17.8C53.9,3.9,51.8,0.2,49.1,1.4z"/>
	<path class="st0" d="M69.1,59.3c0.5-0.4,0.6-1.2,0.2-1.7C66.7,55,65,52.3,63.9,49c6.4,0.8,15-1,17.1-7.3c0.2-0.5,0-0.9-0.3-1.2
		c-0.2-0.8-1-1.5-2-1.3C59.4,43.4,67.6,8.5,51,10c-0.4-0.4-1-0.5-1.5-0.1c-4.2,3.2-8.1,6.9-12,10.5c-2.8,2.6-6.3,5.3-7.8,8.8
		c-0.2,0.5,0.1,1,0.6,1.2c0,0,0,0,0,0c4,3.8,7.6,6.9,10.2,11.9c2.4,4.6,4.1,9.2,7.4,13.2c4.8,5.9,14.1,9.1,20.8,4.5
		C68.9,59.9,69.1,59.6,69.1,59.3z"/>
</g>
</svg>
