<?xml version="1.0" encoding="utf-8"?>
<!-- Generator: Adobe Illustrator 21.0.0, SVG Export Plug-In . SVG Version: 6.00 Build 0)  -->
<svg version="1.1" id="Calque_1" xmlns="http://www.w3.org/2000/svg" xmlns:xlink="http://www.w3.org/1999/xlink" x="0px" y="0px"
	 viewBox="0 0 72.5 69.5" style="enable-background:new 0 0 72.5 69.5;" xml:space="preserve">
<style type="text/css">
	.st0{fill:none;stroke:#000000;stroke-miterlimit:10;}
</style>
<path class="st0" d="M21.5,10.1c-0.2,0.8,0.6,1.4,1.3,1.4c0.4,0.8,0.9,1.6,1.2,2c0.5,0.8,1,1.5,1.5,2.2c-0.1,0.9,0.9,1.9,1.8,1.6
	c0.4,0,0.8-0.1,0.9-0.6c12.2-10.8,28,0.3,31,14.3C62.9,48.8,46.6,56.5,32,54.3c-2.1-0.8-4.3-1.4-6.6-1.8c-0.1,0-0.2-0.1-0.4-0.1
	c0.8-2.1,1.5-4.1,2.1-6.2c0.3-1.2-0.4-2.2-1.6-2.1c-7.6,0.2-15,2.6-22.5,3.8C1.8,48,1.3,49.3,2,50.3c2.2,3.5,4.7,6.8,7.4,9.9
	c2.2,2.6,4.8,6,7.9,7.4c0.7,0.3,1.3,0,1.7-0.5c0.3-0.1,0.5-0.3,0.6-0.7c0-0.1,0.1-0.2,0.1-0.3c0.4-0.4,0.8-0.9,1.1-1.5
	c0.2-0.1,0.3-0.3,0.2-0.5c0.1-0.1,0.1-0.3,0.2-0.4c0,0,0-0.1,0-0.1c1.6,0.6,3.3,1.1,4.9,1.5c5.8,3.5,14.4,2.5,20.6,0.1
	c10.6-4,20.5-13.3,23.4-24.4c3.5-13.1-6.3-31-18-36.7C44.7,0.5,24.1-0.3,21.5,10.1z"/>
</svg>
