<?xml version="1.0" encoding="utf-8"?>
<!-- Generator: Adobe Illustrator 21.0.0, SVG Export Plug-In . SVG Version: 6.00 Build 0)  -->
<svg version="1.1" id="Calque_1" xmlns="http://www.w3.org/2000/svg" xmlns:xlink="http://www.w3.org/1999/xlink" x="0px" y="0px"
	 viewBox="0 0 117 118" style="enable-background:new 0 0 117 118;" xml:space="preserve">
<style type="text/css">
	.st0{fill:none;stroke:#1D1D1B;stroke-miterlimit:10;}
</style>
<g>
	<path class="st0" d="M11.8,65.7c-1.6-0.1-3.8,0.5-4.6,2c0,0.1,0,0.1,0,0.1c-3.2,0.8-5.4,2.7-5.7,6.4c-0.3,3.6,2.1,7.1,5.1,8.7
		c7.3,3.8,17.6-4.1,13.6-12.1C18.6,67.7,15.1,65.7,11.8,65.7z M12.9,78.8c0.2,0.2,0.3,0.3,0.5,0.3c-1,0.4-2.1,0.6-3,0.7
		C11.3,79.6,12.2,79.2,12.9,78.8z"/>
	<path class="st0" d="M81,24.6c-0.3,0.6-0.5,1.4-0.6,2.1c-1.6,1.5-2.3,3.9-1.9,6c0.8,4.3,5,7.7,9.3,8c6.9,0.5,12.5-8.5,10.3-14.6
		C95.7,19.8,84,18,81,24.6z"/>
	<path class="st0" d="M35.5,92.1c-3.4-4.1-8.2-7.8-13.6-7.5c-6.2,0.3-10.1,6.2-10.8,11.8c-0.7,6.4,2.7,13.1,6.8,17.8
		c0.6,0.7,1.4,0.4,1.8-0.2c3.6-1.7,7.3-3.5,10.8-5.5c2.6-1.5,6.2-3.4,7.9-6c0.7,0.2,1.4-0.1,1.7-1C41.1,98.1,37.5,94.5,35.5,92.1z
		 M26.1,89.3c-0.3,0.1-0.5,0.4-0.6,0.6c-0.3-0.1-0.6-0.1-1-0.3c-0.9-0.4-2-0.7-3.1-0.9c0.6-0.1,1.1-0.2,1.8-0.2
		C24.3,88.7,25.2,89,26.1,89.3z"/>
	<path class="st0" d="M95,44.9c-8.6,4.4-5.9,16.5-2,23c0.6,1,2.2,0.6,2.4-0.4c0.3,0.3,0.5,0.6,1.1,0.8c0.5,0.2,0.9-0.6,0.3-0.8
		c0,0-0.1,0-0.1,0.1c0.3-0.1,0.4-0.3,0.7-0.4c3.1-2.7,7.4-4.2,11.1-6.1c2.2-1.1,7.4-3,7.2-6c0-0.2-0.1-0.5-0.2-0.7
		c-0.1-0.1,0-0.3-0.1-0.5C112.8,46.3,102.3,41.1,95,44.9z M99.1,47.4C99,47.7,99,47.9,99,48.2c-0.1,0.1-0.3,0-0.4,0
		c-0.2-0.1-0.5-0.1-0.7-0.1s-0.4,0-0.7,0.2c-0.1,0-0.1,0-0.2-0.1C97.6,47.8,98.4,47.6,99.1,47.4z M95,49.9c-0.7,1.6-1.2,3-1.5,4.5
		c-0.2,0.6-0.4,1.1-0.6,1.7C93,53.9,93.5,51.6,95,49.9z"/>
	<path class="st0" d="M3.9,25.1c-0.1,0.6,0,1.2,0.3,1.6C1,35.5,11,46.4,21.2,48c1.8,0.3,3.6,0.3,5.4,0.2c0,0.2,0,0.4,0,0.6
		c-0.4,3.8-0.8,7.6-2.1,11.3c-0.7,1.9,1.5,3,3,2.3c8.4-3.7,15.4-10.1,15.5-19c8.5-5,15.1-13.3,16-22.9C61.8-11.2,8.9,3.4,3.9,25.1z
		 M11.2,38.3c-1.5-1.6-2.6-3.3-3.1-5.1c0.6,1.7,1.6,3.4,3.1,4.9C11.2,38.2,11.2,38.3,11.2,38.3z M45.5,7c-1.4-0.5-2.7-0.9-4.3-1.2
		c1.7,0.1,3.3,0.3,4.8,0.9C45.9,6.7,45.6,6.8,45.5,7z"/>
</g>
</svg>
