<?xml version="1.0" encoding="utf-8"?>
<!-- Generator: Adobe Illustrator 21.0.0, SVG Export Plug-In . SVG Version: 6.00 Build 0)  -->
<svg version="1.1" id="Calque_1" xmlns="http://www.w3.org/2000/svg" xmlns:xlink="http://www.w3.org/1999/xlink" x="0px" y="0px"
	 viewBox="0 0 56.5 82.5" style="enable-background:new 0 0 56.5 82.5;" xml:space="preserve">
<style type="text/css">
	.st0{fill:none;stroke:#1D1D1B;stroke-miterlimit:10;}
</style>
<g>
	<path class="st0" d="M44.5,24c-3.2-0.6-6.4-1-9.6-1c-1.5-3.2-3.4-6.2-6.2-8.5c-0.9-0.7-2.2-0.7-2.9,0.4c-1.6,2.8-2.7,5.8-3.6,8.8
		c-2.8,0.3-5.7,0.7-8.5,1c-1.7,0.2-2.8,2.6-1,3.5c2.4,1.2,4.9,2.4,7.3,3.6c-0.6,2.2-1.1,4.5-1.8,6.7c-0.2,0.7,0.2,1.2,0.8,1.4
		c-0.2,1,0.7,2.2,1.8,1.4c2.7-1.9,5.8-3.2,8.5-5c2.7,1.4,5.3,3,7.9,4.8c1.4,1,3.2-0.6,2.8-2.1c-0.7-2.5-1.4-5-2.1-7.6
		c2.3-1.4,4.6-2.7,7-3.9C46.3,26.7,46.1,24.3,44.5,24z M30.2,28.5c0.2,0.4,0.3,0.9,0.5,1.3c0,0,0,0,0,0c-0.3,0.3-0.4,0.7-0.4,1
		c0,0,0,0.1,0,0.1c0,0.1,0,0.2,0,0.4c-0.1,0-0.1,0.1-0.2,0.1C30,30.5,30.1,29.5,30.2,28.5z"/>
	<path class="st0" d="M39.8,3.2C32.6,0.1,24.9,2.2,18.5,6c-0.3,0.2-0.5,0.3-0.6,0.5C9,10.1,2.6,18.7,1.6,29.2
		C0.4,40.4,6.4,48.3,14.9,52.6c-2.2,8.5-3.6,17.3-5,26c-0.3,1.8,1.6,3,3,1.8c3.8-3.3,8.1-7.9,13.5-8.1c5-0.2,10.4,3.9,14.5,6.2
		c1.2,0.7,2.8-0.2,2.8-1.6c-0.2-7.4-1.9-15.3-4.7-22.3c9-3.2,14.9-11.3,16-21.6C56.1,21.7,50.7,8,39.8,3.2z M12.1,46
		c1.4,1,2.8,1.9,4.4,2.7c0,0.1,0,0.3,0,0.4C14.9,48.2,13.4,47.2,12.1,46z M25.5,68.6c-1.2,0.1-2.3,0.3-3.4,0.7c0.3-4.7,1-9.2,2-13.8
		c1.3,0.2,2.7,0.4,4.1,0.5c0.2,4.4,0.8,8.9,2,13.1C28.7,68.7,27.1,68.5,25.5,68.6z M23.5,46.9c-10.9-2.4-18.8-12.1-14.1-23
		c1.9-4.4,5.5-7.9,9.6-10.3c3-1.8,7.5-1.8,10.7-3.3c3.1,0.8,6.2,1.2,9.3,2.1c6.3,1.7,9.4,6.1,10.7,12.4
		C52.6,39.4,36.4,49.7,23.5,46.9z"/>
</g>
</svg>
