<?xml version="1.0" encoding="utf-8"?>
<!-- Generator: Adobe Illustrator 21.0.0, SVG Export Plug-In . SVG Version: 6.00 Build 0)  -->
<svg version="1.1" id="Calque_1" xmlns="http://www.w3.org/2000/svg" xmlns:xlink="http://www.w3.org/1999/xlink" x="0px" y="0px"
	 viewBox="0 0 89.5 51.5" style="enable-background:new 0 0 89.5 51.5;" xml:space="preserve">
<style type="text/css">
	.st0{fill:none;stroke:#1D1D1B;stroke-miterlimit:10;}
</style>
<path class="st0" d="M45.8,6.2c-7.6,2.4-15,5.7-22.3,8.9c-6.8,3.1-14.2,6-19.4,11.6c-6.7,7.1,0.4,13.4,7.4,15.5
	c9.8,2.9,20.8,0.8,30.6-0.8C50.8,39.9,62.4,38,68.5,31c5.7-6.5-0.9-14.9-7.8-16.4C47.8,11.8,33.4,19.9,22.3,25
	c-1.5,0.7-0.3,2.6,1.1,2.4c9-1.4,17.4-5,26.3-6.9c4-0.9,9.8-1.8,13.3,1c3.9,3.1,1.7,6.3-1.5,8.4c-6.6,4.2-15.4,5.6-23,6.7
	c-8.8,1.4-18.1,2.7-26.8,0.1c-14.4-4.3,10.2-15.1,14.6-17.1c13-5.9,27.3-12.2,41.8-12.2c5.6,0,13.8,1.9,14.6,8.6
	c0.7,5.7-4.2,11.1-8.4,14.3C69,34.4,61.5,36.6,55.2,39c-6.6,2.6-13.6,5-20.7,5.6c-3.4,0.3-3.3,5.6,0.1,5.3
	c7.7-0.6,14.9-3.1,22.1-5.8c7.3-2.8,15.4-5.5,21.7-10.3c7-5.4,13.9-17.3,6.7-25.4C75.5-2.2,57.5,2.5,45.8,6.2z"/>
</svg>
