<?xml version="1.0" encoding="utf-8"?>
<!-- Generator: Adobe Illustrator 21.0.0, SVG Export Plug-In . SVG Version: 6.00 Build 0)  -->
<svg version="1.1" id="Calque_1" xmlns="http://www.w3.org/2000/svg" xmlns:xlink="http://www.w3.org/1999/xlink" x="0px" y="0px"
	 viewBox="0 0 95.8 97.9" style="enable-background:new 0 0 95.8 97.9;" xml:space="preserve">
<style type="text/css">
	.st0{fill:none;stroke:#1D1D1B;stroke-miterlimit:10;}
</style>
<g>
	<path class="st0" d="M51.4,19.9c-2.4,0-5.9-0.5-7.9,0.5c-0.6-2.1-1.6-4-2.9-5.7c0.5-0.2,0.9-0.7,1-1.4c0-0.3,0-0.6,0-0.9
		c0.7-1.3,1.3-2.7,1.5-3.5c0.2-0.8-0.3-1.5-1-1.8C38,5.3,34.1,3.1,30,1.4c-0.6-0.2-1.4,0.2-1.7,0.7c-0.8,1.5-1.2,3-1.3,4.7
		c-1.3-0.1-2.5-0.2-3.8,0c-0.7,0.1-1.1,0.4-1.4,0.9c-0.7,0.1-1.4,0.2-2.1,0.4c0-0.1,0-0.1-0.1-0.2c-1.4-2.3-4-3.4-5.8-5.2
		c-0.5-0.4-1.3-0.6-1.8-0.2C10,3.6,8.4,5.2,6.8,6.8C5.8,8,3.9,10,3.9,11.7c0,1.9,3.1,4,4.5,5c0.5,0.4,1.1,0.7,1.7,0.9
		c-0.5,1.6-0.9,3.2-1,4.9c-2.4-0.1-4.8,1.2-6.8,2.4c-0.6,0.4-0.8,1-0.7,1.7c0.8,4.6,1.6,9.3,3.2,13.7c0.3,0.9,1.4,1.5,2.2,0.9
		c1.4-1,2.8-1.5,4.4-1.8c0.7-0.2,1.4-0.4,2.1-0.6c1.6,2,3.7,3.7,6.1,4.8c-1.2,2.1-1.3,5.8-1.3,7.6c0,0.8,0.7,1.5,1.5,1.5
		c4.2,0,8.3,0.7,12.5-0.1c0.8-0.2,1.2-1.1,1-1.8c-0.4-1.3-0.7-2.7-1.2-4c-0.3-0.8-0.6-1.8-1-2.6c0,0,0-0.1-0.1-0.1
		c5.4-1.6,9.7-5.6,11.8-10.8c1.8,0.3,3.6,0.5,5.2,1.4c0.7,0.4,1.7,0.2,2.1-0.5c1.9-4,2.5-8.4,2.6-12.9
		C52.8,20.6,52.1,19.9,51.4,19.9z M29.5,30.3c-2.4,1.3-6.1-0.9-6.7-3.3c-0.5-1.6,0.2-3,1.3-4.2c0.2,0.1,0.5,0.1,0.8,0
		c0.6-0.1,1-0.4,1.4-0.8c0.3-0.2,0.6-0.4,0.7-0.7c2.4,0.4,4.3,1.4,4.9,3.9C32.4,27.2,31.3,29.4,29.5,30.3z"/>
	<path class="st0" d="M93.8,56c-2.2-4.3-4.7-8.4-6.5-12.9c-0.4-0.8-1.5-0.9-2.2-0.4c-0.4-0.3-0.9-0.3-1.4-0.1c-1.8,1-3.5,3-4.7,4.7
		c-1.3-1.3-2.7-2.6-4.2-3.6c1.1-1.7,1.6-4.4,2.1-6c0.2-0.6-0.1-1.4-0.7-1.7c-4.6-2.3-9.3-4.2-14.4-4.3c-0.6-0.3-1.2-0.2-1.7,0.1
		c-0.2,0-0.5,0-0.7,0c-0.6,0.1-1.3,0.4-1.4,1c-0.4,2.5-0.5,5,0.5,7.1c-2,0.4-4.1,1.2-6.1,2.4c-0.8-0.8-1.7-1.6-2.2-2.7
		C50,39.2,49,39,48.3,39.3c-0.5-0.1-1-0.1-1.4,0.1c-3.9,1.6-7.5,4.4-10.4,7.4c-0.5,0.5-0.6,1.4-0.3,2c0.2,0.5,0.5,0.9,0.8,1.3
		c0.1,0.3,0.3,0.5,0.5,0.7c0.7,0.8,1.4,1.5,2.3,2c0.3,0.4,0.7,0.7,1,1.1c-1.8,3-2.9,6.5-3.2,10.1c-0.2-0.1-0.4-0.1-0.6-0.1
		c-2.4-0.3-4.8,0-7.1,0.4c-0.8,0.2-1.3,1.2-1.1,1.9c1.6,5.6,3.2,11.2,4,16.9c0.2,1,1.5,1.4,2.3,0.9c2.2-1.4,4.6-2.5,6.6-4.1
		c2,3,4.4,5.3,7.2,7c-1.1,1.4-1.7,3.2-2.2,5.1c-0.2,0.8,0.2,1.5,1,1.8c4.8,1.6,9.8,2.5,14.9,2.5c0.8,0,1.5-0.7,1.5-1.5
		c0.1-1.6,0.3-3.2,0.3-4.8c3.4-0.4,6.8-1.5,10.1-3.1c0.9,2.7,2.9,4.7,6.2,5.4c0.9,0.2,1.6-0.3,1.9-1.1c1.7-4.7,3.9-8.9,7.7-12.2
		c0.6-0.5,0.6-1.4,0.2-2c0.6-0.9,0-1.9-0.9-2.3c-1-0.3-1.9-0.8-2.9-1.3c1.2-3.9,1.1-8,0.1-12c2.1-1.1,4.3-2.2,6.4-3.2
		C94.1,57.8,94.2,56.8,93.8,56z M65.6,72.8c-4,1.6-9.7-1.9-9.8-6.2c-0.1-3.8,3.8-7.5,7.5-8.2c3.2,1.1,5.5,3.1,6,6.7
		C69.7,68.1,68.6,71.7,65.6,72.8z M80.1,77.7c0.6-0.7,1.3-1.4,1.8-2.2c-1.1,2-2.6,4-4.6,5.7C78.3,80.1,79.2,78.9,80.1,77.7z
		 M77.3,85.3c0.1,0,0.1-0.1,0.2-0.1c0.1,0.2,0.3,0.4,0.5,0.5c0.1,0.2,0.4,0.4,0.7,0.3c0.3,0.1,0.8,0.2,1.2,0.2c0,0,0,0,0,0
		c-0.2,0.2-0.3,0.4-0.5,0.7C78.7,86.4,78,85.9,77.3,85.3z"/>
</g>
</svg>
